<?xml version="1.0" encoding="utf-8"?>
<!-- Generator: Adobe Illustrator 18.1.1, SVG Export Plug-In . SVG Version: 6.00 Build 0)  -->
<svg version="1.1" id="Capa_1" xmlns="http://www.w3.org/2000/svg" xmlns:xlink="http://www.w3.org/1999/xlink" x="0px" y="0px"
	 viewBox="64 0 768 768" enable-background="new 64 0 768 768" xml:space="preserve">
<g>
	<g>
		<path fill="#FFA700" d="M448,711.7C267,711.7,120.3,565,120.3,384S267,56.3,448,56.3S775.7,203,775.7,384S629,711.7,448,711.7z
			 M448,71.9C276.8,71.9,135.9,212,135.9,384S276,696.1,448,696.1S760.1,556,760.1,384S620,71.9,448,71.9z"/>
	</g>
	<g>
		<g>
			<g>
				<path fill="#FFA700" d="M447.2,436.4L362,351.2c-0.8-0.8-1.6-2.5-1.6-4.1c0-1.6,0.8-3.3,1.6-4.1l13.9-13.9
					c2.5-2.5,5.7-2.5,8.2,0l86,84.4L447.2,436.4z"/>
			</g>
		</g>
		<g>
			<g>
				<path fill="#FFA700" d="M424.2,413.5l172-172.9c2.5-2.5,5.7-2.5,8.2,0l14.7,13.9c0.8,0.8,1.6,2.5,1.6,4.1c0,1.6-0.8,3.3-1.6,4.1
					l-172,172.9L424.2,413.5z"/>
			</g>
		</g>
	</g>
	<g>
		<polygon fill="#FFA700" points="556.1,499.5 326.8,499.5 326.8,271 534,271 534,286.5 343.1,286.5 343.1,483.9 540.6,483.9 
			540.6,359.4 556.1,359.4 		"/>
	</g>
</g>
</svg>
