<?xml version="1.0" encoding="utf-8"?>
<!-- Generator: Adobe Illustrator 18.1.1, SVG Export Plug-In . SVG Version: 6.00 Build 0)  -->
<svg version="1.1" id="Capa_1" xmlns="http://www.w3.org/2000/svg" xmlns:xlink="http://www.w3.org/1999/xlink" x="0px" y="0px"
	 viewBox="64 0 768 768" enable-background="new 64 0 768 768" xml:space="preserve">
<g>
	<path fill="#FFA700" d="M448,247.2c75.4,0,136.8,61.4,136.8,136.8S523.4,520.8,448,520.8S311.2,459.4,311.2,384
		S372.6,247.2,448,247.2 M448,227.5c-86,0-156.5,70.5-156.5,156.5S362,540.5,448,540.5S604.5,470,604.5,384S534,227.5,448,227.5
		L448,227.5z"/>
	<polygon fill="#FFA700" points="558.6,507.7 576.6,490.5 620.9,536.4 602.8,553.6 	"/>
	<path fill="#FFA700" d="M448,333.2l9,18.8l4.1,9l9.8,0.8l20.5,3.3l-14.7,14.7l-6.6,7.4l1.6,9.8l3.3,20.5l-18.8-9.8l-9-4.9l-9,4.9
		l-18.8,9.8l3.3-20.5l1.6-9.8l-7.4-7.4l-14.7-14.7l20.5-3.3l9.8-0.8l4.1-9L448,333.2 M448,290.6l-26.2,53.2l-59,9l42.6,41.8
		l-9.8,58.2l53.2-27l53.2,27l-9.8-58.2l42.6-41.8l-59-9L448,290.6L448,290.6z"/>
	<g>
		<path fill="#FFA700" d="M448,711.7C267,711.7,120.3,565,120.3,384S267,56.3,448,56.3S775.7,203,775.7,384S629,711.7,448,711.7z
			 M448,71.9C276,71.9,135.9,212,135.9,384S276,696.1,448,696.1S760.1,556,760.1,384S620,71.9,448,71.9z"/>
	</g>
</g>
</svg>
