<?xml version="1.0" encoding="utf-8"?>
<!-- Generator: Adobe Illustrator 18.1.1, SVG Export Plug-In . SVG Version: 6.00 Build 0)  -->
<svg version="1.1" id="Capa_1" xmlns="http://www.w3.org/2000/svg" xmlns:xlink="http://www.w3.org/1999/xlink" x="0px" y="0px"
	 viewBox="128 0 768 768" enable-background="new 128 0 768 768" xml:space="preserve">
<g>
	<g>
		<path fill="#FFA700" d="M512,711.7C331,711.7,184.3,565,184.3,384S331,56.3,512,56.3S839.7,203,839.7,384S693,711.7,512,711.7z
			 M512,71.9C340.8,71.9,199.9,212,199.9,384S340,696.1,512,696.1S824.1,556,824.1,384S684,71.9,512,71.9z"/>
	</g>
	<g>
		<g>
			<path fill="#FFA700" d="M499.7,479c-0.8,0-0.8-0.8-1.6-0.8c-0.8-0.8-0.8-1.6-0.8-2.5l2.5-10.6c0-0.8,0.8-0.8,0.8-0.8l78.6-79.5
				c0.8-0.8,2.5-0.8,4.1,0l7.4,7.4c0.8,0.8,0.8,0.8,0.8,1.6s-0.8,0.8-0.8,1.6L512,475.8c-0.8,0-0.8,0.8-0.8,0.8L499.7,479L499.7,479
				z"/>
		</g>
		<g>
			<path fill="#FFA700" d="M604.6,383.2c-0.8,0-0.8-0.8-1.6-0.8l-8.2-8.2c-0.8-0.8-0.8-2.5,0-4.1l4.1-4.1c0.8-0.8,0.8-0.8,1.6-0.8
				c0.8,0,0.8,0.8,1.6,0.8l8.2,8.2c0.8,0.8,0.8,0.8,0.8,1.6c0,0.8-0.8,0.8-0.8,1.6l-4.1,4.1C605.4,382.4,604.6,383.2,604.6,383.2z"
				/>
		</g>
	</g>
	<g>
		<g>
			<g>
				<path fill="#FFA700" d="M627.5,542.1H417.8c-9.8,0-17.2-7.4-17.2-17.2V245.6c0-9.8,7.4-17.2,17.2-17.2h125.3
					c0.8,0,2.5,0.8,3.3,0.8l97.5,95.8c0.8,0.8,0.8,2.5,0.8,3.3v195.8C643.9,533.9,637.3,542.1,627.5,542.1z M419.4,240.6
					c-4.1,0-6.6,3.3-6.6,6.6v274.4c0,4.1,3.3,6.6,6.6,6.6h206.4c4.1,0,6.6-3.3,6.6-7.4V331.6l-92.6-90.9H419.4z"/>
			</g>
			<g>
				<path fill="#FFA700" d="M639,334L639,334H548c-5.7,0-10.6-4.9-10.6-10.6v-89.3c0-2.5,0.8-4.1,3.3-4.9c2.5-0.8,4.1-0.8,5.7,0.8
					l95.8,95.8c0.8,0.8,1.6,2.5,1.6,4.1C643.9,332.4,642.3,334,639,334z M550.5,252.1v68c0,0,0,0.8,0.8,0.8h68.8L550.5,252.1z"/>
			</g>
			<g>
				<path fill="#FFA700" d="M604.6,508.5H437.5c-2.5,0-5.7-3.3-5.7-7.4s2.5-7.4,5.7-7.4h167.1c2.5,0,5.7,3.3,5.7,7.4
					C610.3,505.2,607.8,508.5,604.6,508.5z"/>
			</g>
		</g>
	</g>
</g>
</svg>
