<?xml version="1.0" encoding="utf-8"?>
<!-- Generator: Adobe Illustrator 16.0.0, SVG Export Plug-In . SVG Version: 6.00 Build 0)  -->
<!DOCTYPE svg PUBLIC "-//W3C//DTD SVG 1.1//EN" "http://www.w3.org/Graphics/SVG/1.1/DTD/svg11.dtd">
<svg version="1.1" id="Layer_1" xmlns="http://www.w3.org/2000/svg" xmlns:xlink="http://www.w3.org/1999/xlink" x="0px" y="0px"
	 width="16px" height="16px" viewBox="0 0 16 16" enable-background="new 0 0 16 16" xml:space="preserve">
<path fill="#FFFFFF" d="M8,0C3.573,0,0,3.573,0,8s3.573,8,8,8s8-3.573,8-8S12.427,0,8,0z M8,15.359c-4.053,0-7.36-3.308-7.36-7.359
	c0-4.053,3.307-7.36,7.36-7.36c4.053,0,7.359,3.307,7.359,7.36S12.053,15.359,8,15.359z"/>
<g>
	<path fill="#FFFFFF" d="M5.6,6.027c0-1.333,1.066-2.4,2.4-2.4s2.4,1.067,2.4,2.4c0,0.853-0.48,1.653-1.174,2.08v4
		c0,0.213-0.106,0.479-0.268,0.64l-0.586,0.588C8.267,13.439,8.106,13.493,8,13.493c-0.16,0-0.32-0.054-0.427-0.159l-0.586-0.588
		c-0.107-0.105-0.16-0.266-0.16-0.426S6.88,12,6.987,11.895l0.48-0.48l-0.48-0.479c-0.107-0.107-0.16-0.269-0.16-0.428
		c0-0.16,0.053-0.32,0.16-0.427l0.48-0.479L6.987,9.12C6.827,8.96,6.72,8.693,6.72,8.48V7.947C6.027,7.68,5.6,6.88,5.6,6.027z
		 M9.76,6.027c0-0.96-0.8-1.76-1.76-1.76s-1.76,0.8-1.76,1.76c0,0.693,0.373,1.28,1.013,1.6c0.106,0.054,0.213,0.16,0.213,0.32
		v0.693C7.467,8.693,7.52,8.8,7.52,8.8l0.533,0.534C8.16,9.439,8.213,9.6,8.213,9.76s-0.053,0.32-0.16,0.428l-0.48,0.479l0.48,0.48
		c0.107,0.106,0.16,0.267,0.16,0.427c0,0.159-0.053,0.321-0.16,0.427l-0.48,0.48L8,12.8l0.48-0.479
		c0.053-0.053,0.053-0.106,0.053-0.159V7.947c0-0.107,0.054-0.267,0.213-0.32C9.387,7.307,9.76,6.72,9.76,6.027z"/>
	<circle fill="#FFFFFF" cx="8" cy="5.547" r="0.693"/>
</g>
</svg>
