<?xml version="1.0" encoding="utf-8"?>
<!-- Generator: Adobe Illustrator 18.1.1, SVG Export Plug-In . SVG Version: 6.00 Build 0)  -->
<svg version="1.1" id="Capa_1" xmlns="http://www.w3.org/2000/svg" xmlns:xlink="http://www.w3.org/1999/xlink" x="0px" y="0px"
	 viewBox="0 0 1024 768" enable-background="new 0 0 1024 768" xml:space="preserve">
<g>
	<path fill="#666666" d="M263.2,416.3v-3.1c-3.1,2-9.2,4.6-15.9,4.6c-9.7,0-14.8-4.6-14.8-14.3v-2c0-13.3,10.2-14.8,24.6-14.8h4.6
		V384c0-6.1-1.5-7.2-9.2-7.2c-4.6,0-10.8,0-16.4,1v-9.2c3.1-1,10.8-3.1,19.5-3.1c15.9,0,21.5,5.1,21.5,18.9v32.8h-13.8V416.3z
		 M262.1,394.2H257c-7.2,0-9.7,1-9.7,6.7v2c0,4.1,2.6,5.1,5.6,5.1c4.1,0,7.7-1.5,9.2-2.6V394.2z"/>
	<path fill="#666666" d="M345.1,416.3l-18.9-33.8c-1.5-2.6-3.1-6.1-4.6-9.2l0,0c0,3.6,0.5,7.2,0.5,10.8v32.3h-14.8v-65.5h16.9
		L343,384c1.5,2.6,3.6,6.1,4.6,9.2l0,0c0-3.1-0.5-7.2-0.5-11.3v-31.2H362v65.5L345.1,416.3L345.1,416.3z"/>
	<path fill="#666666" d="M407.6,416.3v-4.1c-5.1,3.1-10.8,5.6-17.4,5.6c-13.8,0-15.4-9.7-15.4-20v-31.7h15.4v31.7
		c0,6.1,1,8.2,6.1,8.2c3.1,0,6.7-1,10.8-3.1v-37.4h15.4v50.2h-14.8V416.3z"/>
	<path fill="#666666" d="M447.5,395.3v0.5c0,6.7,1,10.2,11.8,10.2c5.1,0,10.2-0.5,18.9-1v10.2c-4.1,1-10.8,2-19.5,2
		c-18.4,0-26.1-6.7-26.1-25.1v-2.6c0-17.4,8.2-25.1,24.1-25.1c18.9,0,24.1,11.8,24.1,26.6v4.1H447.5z M465.4,386.6
		c0-5.6-1-10.8-9.2-10.8c-7.7,0-8.7,5.1-8.7,10.8v0.5h17.9L465.4,386.6L465.4,386.6z"/>
	<path fill="#666666" d="M520.7,416.3h-22l-14.8-50.2h15.9l7.2,27.1c1,4.6,2,9.7,3.1,13.8c1-4.1,2-8.7,3.1-13.8l6.7-27.1h15.9
		L520.7,416.3z"/>
	<path fill="#666666" d="M569.3,416.3v-3.1c-3.1,2-9.2,4.6-15.9,4.6c-9.7,0-14.8-4.6-14.8-14.3v-2c0-13.3,10.2-14.8,24.6-14.8h5.1
		V384c0-6.1-1.5-7.2-9.2-7.2c-4.6,0-10.8,0-16.4,1v-9.2c3.1-1,10.8-3.1,19.5-3.1c15.9,0,21.5,5.1,21.5,18.9v32.8h-14.3V416.3z
		 M568.8,394.2h-5.1c-7.2,0-9.7,1-9.7,6.7v2c0,4.1,2.6,5.1,5.6,5.1c4.1,0,7.7-1.5,9.2-2.6V394.2z"/>
	<path fill="#666666" d="M211.5,506.4c-17.4,0-27.6-9.2-27.6-28.2v-38.9h16.4v38.4c0,11.8,2.6,15.9,11.3,15.9
		c8.7,0,11.3-4.6,11.3-15.9v-38.4h16.4v38.9C239.1,497.2,228.9,506.4,211.5,506.4"/>
	<path fill="#666666" d="M283.1,504.8v-31.7c0-6.1-1-8.2-6.1-8.2c-3.1,0-6.7,1-10.8,2.6v37.4h-15.4v-50.2h14.3v4.1
		c5.1-3.1,10.8-5.1,16.4-5.1c15.4,0,16.4,8.7,16.4,20v31.7h-14.8V504.8z"/>
	<path fill="#666666" d="M310.3,436.2h15.9V448h-15.9V436.2z M310.8,454.7h15.4v50.2h-15.4V454.7z"/>
	<path fill="#666666" d="M370.7,504.8h-22l-14.8-50.2h15.9l7.2,27.1c1,4.6,2,9.7,3.1,13.8c1-4.1,2-8.7,3.1-13.8l6.7-27.1h15.9
		L370.7,504.8z"/>
	<path fill="#666666" d="M404,483.8v0.5c0,6.7,1,10.2,11.8,10.2c5.1,0,10.2-0.5,18.9-1v10.2c-4.1,1-10.8,2-19.5,2
		c-18.4,0-26.1-6.7-26.1-25.1v-2.6c0-17.4,8.2-25.1,24.1-25.1c18.9,0,24.1,11.8,24.1,26.6v4.1H404z M421.9,474.6
		c0-5.6-1-10.8-9.2-10.8c-7.7,0-8.7,5.1-8.7,10.8v0.5h17.9V474.6z"/>
	<path fill="#666666" d="M461.8,468.5v36.4h-15.4v-50.2h14.3v4.1c5.1-4.6,11.3-5.6,16.4-5.6v12.8
		C472.1,465.9,465.9,466.9,461.8,468.5"/>
	<path fill="#666666" d="M501.8,505.9c-7.2,0-15.4-1-17.9-2v-9.2c2,0,10.2,1,17.4,1c6.1,0,8.2-1.5,8.2-4.6s-1.5-3.6-8.2-6.1
		l-4.1-1.5c-9.2-3.6-14.3-7.7-14.3-16.4c0-11.3,7.7-14.3,20.5-14.3c7.2,0,14.8,1,17.9,2v9.7c-6.1-0.5-11.3-1-16.4-1
		c-5.1,0-7.2,0-7.2,3.1c0,2.6,1.5,3.1,6.7,5.1l4.6,1.5c11.3,4.1,14.8,8.2,14.8,15.9C523.8,500.7,516.6,505.9,501.8,505.9"/>
	<path fill="#666666" d="M533,436.2h15.9V448H533V436.2z M533.5,454.7h15.4v50.2h-15.4V454.7z"/>
	<path fill="#666666" d="M592.4,504.8v-2.6c-3.6,2-8.2,4.1-14.3,4.1c-11.8,0-18.9-7.2-18.9-23v-6.1c0-17.4,8.7-23.6,23-23.6
		c3.6,0,6.7,0.5,9.2,1v-17.9h15.4v68.6h-14.3V504.8z M591.4,465.4c-2.6-0.5-5.6-0.5-7.7-0.5c-6.1,0-9.2,2-9.2,12.3v6.1
		c0,8.7,2,11.3,8.7,11.3c3.1,0,5.6-0.5,8.2-1.5L591.4,465.4L591.4,465.4z"/>
	<path fill="#666666" d="M647.2,504.8v-3.1c-3.1,2-9.2,4.6-15.9,4.6c-9.7,0-14.8-4.6-14.8-14.3v-2c0-13.3,10.2-14.8,24.6-14.8h4.6
		v-2.6c0-6.1-1.5-7.2-9.2-7.2c-4.6,0-10.8,0.5-16.4,1v-9.2c3.1-1,10.8-3.1,19.5-3.1c15.9,0,21.5,5.1,21.5,18.9v32.8h-13.8V504.8z
		 M646.1,482.3H641c-7.2,0-9.7,1-9.7,6.7v2c0,4.1,2.6,5.1,5.6,5.1c4.1,0,7.7-1.5,9.2-2.6V482.3z"/>
	<path fill="#666666" d="M704,504.8v-2.6c-3.6,2-8.2,4.1-14.3,4.1c-11.8,0-18.9-7.2-18.9-23v-6.1c0-17.4,8.7-23.6,23-23.6
		c3.6,0,6.7,0.5,9.2,1v-17.9h15.4v68.6H704V504.8z M703,465.4c-2.6-0.5-5.6-0.5-7.7-0.5c-6.1,0-9.2,2-9.2,12.3v6.1
		c0,8.7,2,11.3,8.7,11.3c3.1,0,5.6-0.5,8.2-1.5L703,465.4L703,465.4z"/>
	<path fill="#666666" d="M223.2,592.9l-13.3-23.6h-9.7v23.6h-15.9v-65.5c6.7-0.5,13.3-1,21-1c16.4,0,30.2,3.1,30.2,21v0.5
		c0,9.7-4.1,14.8-10.2,17.9l14.8,26.6h-16.9V592.9z M220.2,547.8c0-7.2-4.1-9.2-13.8-9.2c-2,0-3.6,0-5.6,0v18.9h6.1
		c9.7,0,13.8-2.6,13.8-9.2v-0.5H220.2z"/>
	<path fill="#666666" d="M259.1,571.9v0.5c0,6.7,1,10.2,11.8,10.2c5.1,0,10.2-0.5,18.9-1v10.2c-4.1,1-10.8,2-19.5,2
		c-18.4,0-26.1-6.7-26.1-25.1v-2.6c0-17.4,8.2-25.1,24.1-25.1c18.9,0,24.1,11.8,24.1,26.6v4.1H259.1z M277,562.7
		c0-5.6-1-10.8-9.2-10.8c-7.7,0-8.7,5.1-8.7,10.8v0.5H277V562.7z"/>
	<path fill="#666666" d="M324.1,611.8c-9.7,0-18.9-1.5-21-2v-9.2c5.6,0.5,13.3,0.5,19.5,0.5c8.7,0,9.7-2,9.7-7.2v-1.5
		c-1.5,0.5-5.1,0.5-8.2,0.5c-15.4,0-24.1-6.7-24.1-23.6v-5.1c0-16.4,8.2-23.6,26.6-23.6c7.2,0,14.8,0.5,20.5,1.5v51.7
		C347.6,605.2,342.5,611.8,324.1,611.8 M332.3,553.5c-1,0-3.6-0.5-6.7-0.5c-7.7,0-10.2,3.6-10.2,11.8v5.1c0,8.7,2.6,11.8,9.7,11.8
		c2.6,0,6.1,0,7.2-0.5L332.3,553.5L332.3,553.5z"/>
	<path fill="#666666" d="M359.9,524.3h15.9v11.8h-15.9V524.3z M359.9,542.7h15.4v50.2h-15.4V542.7z"/>
	<path fill="#666666" d="M410.1,594.4c-15.4,0-24.1-7.2-24.1-23.6v-5.6c0-16.4,8.7-23.6,24.1-23.6c15.4,0,24.1,7.2,24.1,23.6v5.6
		C434.2,587.3,425.5,594.4,410.1,594.4 M418.8,565.2c0-8.7-2.6-11.8-8.7-11.8c-6.1,0-8.7,3.1-8.7,11.8v5.6c0,8.7,2.6,11.8,8.7,11.8
		c6.1,0,8.7-3.1,8.7-11.8V565.2z"/>
	<path fill="#666666" d="M502.3,592.9v-32.8c0-4.6,0-7.2-5.1-7.2c-2.6,0-5.6,1-8.7,2.6c0.5,1.5,0.5,3.6,0.5,5.1v32.8h-15.4v-32.8
		c0-4.6,0-7.2-5.1-7.2c-3.1,0-6.1,1.5-8.7,2.6v37.4h-15.4v-50.7h14.3v4.1c4.1-3.1,9.7-5.1,15.4-5.1c6.1,0,9.7,2,11.8,5.6
		c5.6-4.1,11.3-5.6,15.9-5.6c13.8,0,15.9,8.7,15.9,18.4v33.3h-15.4V592.9z"/>
	<path fill="#666666" d="M551.4,594.4c-15.4,0-24.1-7.2-24.1-23.6v-5.6c0-16.4,8.7-23.6,24.1-23.6c15.4,0,24.1,7.2,24.1,23.6v5.6
		C575.5,587.3,566.8,594.4,551.4,594.4 M560.6,565.2c0-8.7-2.6-11.8-8.7-11.8c-6.1,0-8.7,3.1-8.7,11.8v5.6c0,8.7,2.6,11.8,8.7,11.8
		c6.1,0,8.7-3.1,8.7-11.8V565.2z"/>
	<path fill="#666666" d="M618,592.9v-31.7c0-6.1-1-8.2-6.1-8.2c-3.1,0-6.7,1-10.8,2.6v37.4h-15.4v-50.2h14.3v4.1
		c5.1-3.1,10.8-5.6,16.4-5.6c15.4,0,16.4,8.7,16.4,20v31.7H618z"/>
	<path fill="#666666" d="M663,594.4c-10.8,0-15.4-4.1-15.4-15.4V554l-8.7-1v-10.2h8.7v-12.8H663v12.8h11.3v10.8H663v25.1
		c0,4.1,0.5,5.1,4.1,5.1c2.6,0,5.6,0,7.2-0.5v9.2C673.3,592.9,668.2,594.4,663,594.4"/>
	<path fill="#666666" d="M711.2,592.9v-3.1c-3.1,2-9.2,4.6-15.9,4.6c-9.7,0-14.8-4.6-14.8-14.3v-2c0-13.3,10.2-14.8,24.6-14.8h4.6
		v-2.6c0-6.1-1.5-7.2-9.2-7.2c-4.6,0-10.8,0.5-16.4,1v-9.2c3.1-1,10.8-3.1,19.5-3.1c15.9,0,21.5,5.1,21.5,18.9v32.8h-13.8V592.9z
		 M710.7,570.9h-5.1c-7.2,0-9.7,1-9.7,6.7v2c0,4.1,2.6,5.1,5.6,5.1c4.1,0,7.7-1.5,9.2-2.6V570.9z"/>
	<path fill="#666666" d="M769,592.9v-31.7c0-6.1-1-8.2-6.1-8.2c-3.1,0-6.7,1-10.8,2.6v37.4h-15.4v-50.2h14.3v4.1
		c5.1-3.1,10.8-5.6,16.4-5.6c15.4,0,16.4,8.7,16.4,20v31.7H769z"/>
	<path fill="#666666" d="M824.3,592.9v-3.1c-3.1,2-9.2,4.6-15.9,4.6c-9.7,0-14.8-4.6-14.8-14.3v-2c0-13.3,10.2-14.8,24.6-14.8h4.6
		v-2.6c0-6.1-1.5-7.2-9.2-7.2c-4.6,0-10.8,0.5-16.4,1v-9.2c3.1-1,10.8-3.1,19.5-3.1c15.9,0,21.5,5.1,21.5,18.9v32.8h-13.8V592.9z
		 M823.3,570.9h-5.1c-7.2,0-9.7,1-9.7,6.7v2c0,4.1,2.6,5.1,5.6,5.1c4.1,0,7.7-1.5,9.2-2.6L823.3,570.9L823.3,570.9z"/>
	<path fill="#666666" d="M228.9,268.3c-29.2,0-46.6-14.3-46.6-43.5v-61.4H214v60.9c0,15.4,3.1,21.5,14.3,21.5
		c11.8,0,14.3-5.6,14.3-21.5v-61.4h31.7v61.4C275.5,254,257.5,268.3,228.9,268.3"/>
	<rect x="291.3" y="203.8" fill="#666666" width="36.9" height="19.5"/>
	<polygon fill="#666666" points="345.1,265.7 345.1,162.8 419.8,162.8 419.8,184.8 377.3,184.8 377.3,203.3 416.8,203.3 
		416.8,223.7 377.3,223.7 377.3,243.7 419.8,243.7 419.8,265.7 	"/>
	<path fill="#666666" d="M498.7,265.7l-19.5-35.3h-6.1h-6.7v35.3h-30.7V163.3c11.3-1,22.5-1.5,37.9-1.5c26.6,0,50.2,5.1,50.2,34.3v1
		c0,14.8-5.6,23-14.8,28.2l21.5,41h-31.7V265.7z M492.5,196.1c0-9.7-4.6-12.3-17.9-12.3h-8.2v25.6h8.2c12.8,0,17.4-3.1,17.4-12.8
		v-0.5H492.5z"/>
	<path fill="#666666" d="M604.2,265.7l-19.5-35.3h-6.1h-6.7v35.3h-30.7V163.3c11.3-1,22.5-1.5,37.9-1.5c26.6,0,50.2,5.1,50.2,34.3v1
		c0,14.8-5.6,23-14.8,28.2l21.5,41h-31.7V265.7z M598,196.1c0-9.7-4.6-12.3-17.9-12.3h-8.2v25.6h8.2c12.8,0,17.4-3.1,17.4-12.8v-0.5
		H598z"/>
	<polygon fill="#666666" points="646.7,265.7 646.7,162.8 721.4,162.8 721.4,184.8 679.4,184.8 679.4,203.3 718.3,203.3 
		718.3,223.7 679.4,223.7 679.4,243.7 721.4,243.7 721.4,265.7 	"/>
	<path fill="#666666" d="M750.1,185.3c-6.1,0-9.7-3.1-9.7-9.2v-12.8h6.7v12.8c0,3.1,0.5,4.6,3.1,4.6c2.6,0,3.1-1,3.1-4.6v-12.8h6.7
		v12.8C759.8,182.3,756.2,185.3,750.1,185.3"/>
	<path fill="#666666" d="M776.7,184.8l-4.1-7.2h-1H770v7.2h-6.7v-21.5c2.6,0,4.6-0.5,7.7-0.5c5.6,0,10.2,1,10.2,7.2l0,0
		c0,3.1-1,4.6-3.1,5.6l4.6,8.7h-6.1V184.8z M775.7,170c0-2-1-2.6-3.6-2.6h-1.5v5.1h1.5C774.7,173.1,775.7,172,775.7,170L775.7,170z"
		/>
	<polygon fill="#666666" points="184.3,416.3 184.3,350.7 200.7,350.7 200.7,404 226.3,404 226.3,416.3 	"/>
</g>
</svg>
