<?xml version="1.0" encoding="utf-8"?>
<!-- Generator: Adobe Illustrator 18.1.1, SVG Export Plug-In . SVG Version: 6.00 Build 0)  -->
<svg version="1.1" id="Capa_1" xmlns="http://www.w3.org/2000/svg" xmlns:xlink="http://www.w3.org/1999/xlink" x="0px" y="0px"
	 viewBox="0 0 1024 768" enable-background="new 0 0 1024 768" xml:space="preserve">
<line fill="none" stroke="#999999" stroke-width="1.255" x1="150" y1="461.3" x2="873" y2="461.3"/>
<g>
	<g>
		<defs>
			<path id="SVGID_1_" d="M150.5,359.4c0,14.8,3.1,32.3,19.5,45.6c20,15.9,52.7,17.4,76.3,17.4c26.1,0,56.3-2.6,75.8-15.9
				c20-13.3,22.5-30.2,22.5-47.6V242.2c-20,0-36.9,6.1-45.1,14.8v95.2c0,9.2,0,21.5-12.8,29.2c-9.2,5.6-24.6,7.2-41.5,7.2
				c-13.8,0-28.7-0.5-37.9-6.7c-11.3-7.2-11.8-16.9-11.8-26.1v-99.3c-8.2-8.7-25.1-14.8-45.6-14.8v117.8H150.5z M612.4,241.7
				L612.4,241.7C612.4,242.2,612.4,241.7,612.4,241.7c-23,0-42.5,6.1-51.2,14.8L490.5,364l-70.7-107c-9.2-8.7-28.7-14.8-51.2-14.8
				l0,0l0,0h-14.3l120.3,180.2h31.7l120.8-180.2h-14.8V241.7z M870.4,241.7L870.4,241.7C870.4,242.2,870.4,241.7,870.4,241.7
				c-20.5,0-37.9,6.1-46.1,14.8l-70.1,77.3l-69.1-77.3l0,0c-8.2-9.2-25.6-15.4-46.1-15.4l0,0l0,0h-2.6v180.2H681V310.8l73.7,83.5
				l73.2-83.5v111.6H873V241.7H870.4z"/>
		</defs>
		<use xlink:href="#SVGID_1_"  overflow="visible" fill="#666666"/>
		<clipPath id="SVGID_2_">
			<use xlink:href="#SVGID_1_"  overflow="visible"/>
		</clipPath>
		<rect x="150.5" y="241.7" clip-path="url(#SVGID_2_)" fill="#666666" width="722.4" height="180.7"/>
	</g>
</g>
<g>
	<polygon fill="#666666" points="152.1,526.8 152.1,500.7 158.7,500.7 158.7,521.2 166.4,521.2 167.4,526.8 	"/>
</g>
<g>
	<path fill="#666666" d="M186.9,526.8l-2-5.6h-8.7l-1.5,5.1h-6.7l9.2-26.1h7.2l8.7,25.1L186.9,526.8z M180.2,507.4l-3.1,9.2h5.6
		L180.2,507.4z"/>
</g>
<g>
	<path fill="#666666" d="M203.8,526.8c-4.6,0-8.2-2.6-8.2-8.2v-17.9h6.7v16.9c0,2.6,1,3.6,3.6,3.6c1.5,0,3.6-0.5,5.1-2v-18.4h6.1
		v25.6h-5.6l-0.5-2.6C208.9,525.8,206.8,526.8,203.8,526.8"/>
</g>
<g>
	<path fill="#666666" d="M241.7,525.8l-6.7,1l-5.6-9.2h-1.5v8.7h-6.1v-25.6h8.7c6.1,0,9.7,3.1,9.7,8.2c0,3.6-1.5,6.1-4.6,7.2
		L241.7,525.8z M229.9,505.9h-2v7.7h2c2.6,0,4.1-1.5,4.1-3.6C234,506.9,232.4,505.9,229.9,505.9"/>
</g>
<g>
	<polygon fill="#666666" points="244.2,526.8 244.2,500.7 260.1,500.7 260.1,505.9 250.4,505.9 250.4,510.5 258,510.5 258.6,516.1 
		250.4,516.1 250.4,521.7 260.6,521.7 260.6,526.8 	"/>
</g>
<g>
	<path fill="#666666" d="M280.6,526.8l-2-5.6h-8.7l-1.5,5.1h-6.1l9.2-26.1h7.2l9.2,25.1L280.6,526.8z M274.4,507.4l-3.1,9.2h5.6
		L274.4,507.4z"/>
</g>
<g>
	<polygon fill="#666666" points="301.6,506.4 301.6,526.8 295.4,526.8 295.4,506.4 288.3,506.4 288.3,500.7 308.7,500.7 
		309.8,506.4 	"/>
</g>
<g>
	<polygon fill="#666666" points="311.8,526.8 311.8,500.7 328.2,500.7 328.2,505.9 318.5,505.9 318.5,510.5 325.6,510.5 
		326.7,516.1 318.5,516.1 318.5,521.7 328.7,521.7 328.7,526.8 	"/>
</g>
<g>
	<rect x="339.5" y="500.7" fill="#666666" width="6.7" height="25.6"/>
</g>
<g>
	<polygon fill="#666666" points="366.1,526.8 356.4,511.5 356.4,526.8 350.2,526.8 350.2,500.7 356.4,500.7 366.1,515.6 
		366.1,500.7 371.7,500.7 371.7,526.8 	"/>
</g>
<g>
	<polygon fill="#666666" points="388.6,506.4 388.6,526.8 382,526.8 382,506.4 374.8,506.4 374.8,500.7 395.3,500.7 396.3,506.4 	
		"/>
</g>
<g>
	<polygon fill="#666666" points="398.8,526.8 398.8,500.7 414.7,500.7 414.7,505.9 405,505.9 405,510.5 412.2,510.5 413.2,516.1 
		405,516.1 405,521.7 415.2,521.7 415.2,526.8 	"/>
</g>
<g>
	<path fill="#666666" d="M438.8,525.8l-6.7,1l-5.6-9.2H425v8.7h-6.1v-25.6h9.2c6.1,0,9.7,3.1,9.7,8.2c0,3.6-1.5,6.1-4.6,7.2
		L438.8,525.8z M426.5,505.9h-2v7.7h2c2.6,0,4.1-1.5,4.1-3.6C431.1,506.9,429.6,505.9,426.5,505.9"/>
</g>
<g>
	<polygon fill="#666666" points="457.2,526.8 447,511.5 447,526.8 440.8,526.8 440.8,500.7 447,500.7 456.7,515.6 456.7,500.7 
		462.3,500.7 462.3,526.8 	"/>
</g>
<g>
	<path fill="#666666" d="M483.8,526.8l-2-5.6h-8.7l-1.5,5.1h-6.1l9.2-26.1h6.7l9.2,25.1L483.8,526.8z M477.7,507.4l-3.1,9.2h5.6
		L477.7,507.4z"/>
</g>
<g>
	<polygon fill="#666666" points="504.8,506.4 504.8,526.8 498.7,526.8 498.7,506.4 491.5,506.4 491.5,500.7 512,500.7 512.5,506.4 	
		"/>
</g>
<g>
	<rect x="515.6" y="500.7" fill="#666666" width="6.1" height="25.6"/>
</g>
<g>
	<path fill="#666666" d="M537.6,527.4c-7.2,0-12.3-5.6-12.3-13.3c0-8.2,5.1-13.3,12.3-13.3c7.7,0,12.3,5.6,12.3,13.3
		C549.9,521.7,545.3,527.4,537.6,527.4 M537.6,505.3c-3.6,0-5.6,3.1-5.6,8.2s2,8.2,5.6,8.2s6.1-3.1,6.1-8.2
		C543.7,508.4,541.2,505.3,537.6,505.3"/>
</g>
<g>
	<polygon fill="#666666" points="569.3,526.8 559.1,511.5 559.1,526.8 553.5,526.8 553.5,500.7 559.6,500.7 568.8,515.6 
		568.8,500.7 575,500.7 575,526.8 	"/>
</g>
<g>
	<path fill="#666666" d="M596.5,526.8l-2-5.6h-8.7l-2,5.1h-6.1l9.2-26.1h7.2l9.2,25.1L596.5,526.8z M589.8,507.4l-3.1,9.2h5.6
		L589.8,507.4z"/>
</g>
<g>
	<polygon fill="#666666" points="605.2,526.8 605.2,500.7 611.8,500.7 611.8,521.2 619.5,521.2 620.5,526.8 	"/>
</g>
<g>
	<path fill="#666666" d="M638.5,526.8c-4.6,0-8.2-2.6-8.2-8.2v-17.9h6.7v16.9c0,2.6,1,3.6,3.6,3.6c1.5,0,3.1-0.5,5.1-2v-18.4h6.7
		v25.6h-5.6l-0.5-2.6C643.6,525.8,641.5,526.8,638.5,526.8"/>
</g>
<g>
	<polygon fill="#666666" points="672.3,526.8 662,511.5 662,526.8 656.4,526.8 656.4,500.7 662.5,500.7 671.7,515.6 671.7,500.7 
		677.9,500.7 677.9,526.8 	"/>
</g>
<g>
	<rect x="682.5" y="500.7" fill="#666666" width="6.7" height="25.6"/>
</g>
<g>
	<polygon fill="#666666" points="707.1,526.8 700.4,526.8 691.2,501.8 698.4,500.7 704,518.7 709.6,500.7 716.3,500.7 	"/>
</g>
<g>
	<polygon fill="#666666" points="718.8,526.8 718.8,500.7 734.7,500.7 734.7,505.9 725,505.9 725,510.5 732.7,510.5 733.2,516.1 
		725,516.1 725,521.7 735.2,521.7 735.2,526.8 	"/>
</g>
<g>
	<path fill="#666666" d="M758.8,525.8l-6.7,1l-5.6-9.2H745v8.7h-6.1v-25.6h9.2c6.1,0,9.7,3.1,9.7,8.2c0,3.6-1.5,6.1-4.6,7.2
		L758.8,525.8z M747,505.9h-2v7.7h2c2.6,0,4.1-1.5,4.1-3.6C751.1,506.9,749.6,505.9,747,505.9"/>
</g>
<g>
	<path fill="#666666" d="M769,526.8c-3.6,0-6.7-0.5-9.2-2l1-5.6c2.6,1.5,5.6,2.6,8.2,2.6c2,0,3.1-1,3.1-2.6c0-1.5-0.5-2-4.6-3.6
		c-5.1-2-7.2-3.6-7.2-8.2c0-5.1,4.1-7.7,8.7-7.7c3.6,0,5.6,0.5,7.7,1.5l-1,5.1c-2.6-1.5-4.6-2-6.7-2c-2,0-3.1,1-3.1,2
		c0,1.5,0.5,2,4.1,3.1c5.6,2,7.7,4.1,7.7,8.2C778.2,524.3,774.1,526.8,769,526.8"/>
</g>
<g>
	<rect x="781.3" y="500.7" fill="#666666" width="6.1" height="25.6"/>
</g>
<g>
	<polygon fill="#666666" points="804.4,506.4 804.4,526.8 798.2,526.8 798.2,506.4 791,506.4 791,500.7 811.5,500.7 812.5,506.4 	
		"/>
</g>
<g>
	<rect x="815.1" y="500.7" fill="#666666" width="6.7" height="25.6"/>
</g>
<g>
	<polygon fill="#666666" points="825.9,526.8 825.9,500.7 841.7,500.7 841.7,505.9 832,505.9 832,510.5 839.7,510.5 840.7,516.1 
		832,516.1 832,521.7 842.2,521.7 842.2,526.8 	"/>
</g>
<g>
	<path fill="#666666" d="M853.5,526.8c-3.6,0-6.1-0.5-9.2-2l1-5.6c2.6,1.5,5.6,2.6,8.2,2.6c2,0,3.1-1,3.1-2.6c0-1.5-1-2-4.6-3.6
		c-5.1-2-7.7-3.6-7.7-8.2c0-5.1,4.1-7.7,8.7-7.7c3.6,0,5.6,0.5,7.7,1.5l-1,5.1c-2.6-1.5-4.6-2-6.7-2c-2,0-3.1,1-3.1,2
		c0,1.5,0.5,2,4.1,3.1c5.6,2,7.7,4.1,7.7,8.2C862.7,524.3,858.6,526.8,853.5,526.8"/>
</g>
<g>
	<path fill="#666666" d="M868.4,510.5c-2,0-4.1-1.5-4.1-4.1s1.5-4.1,4.1-4.1c2,0,4.1,1.5,4.1,4.1
		C871.9,508.9,870.4,510.5,868.4,510.5 M868.4,502.8c-2,0-3.1,1-3.1,3.6c0,2,1.5,3.6,3.1,3.6c2,0,3.1-1,3.1-3.6
		C871.4,504.3,869.9,502.8,868.4,502.8 M868.9,508.4l-1-1.5l0,0v1.5h-1v-4.6h1.5c1,0,1.5,0.5,1.5,1.5c0,0.5-0.5,1-1,1l1,1.5
		L868.9,508.4z M868.4,504.8L868.4,504.8l-0.5,1h0.5c0.5,0,0.5,0,0.5-0.5C868.9,505.3,868.9,504.8,868.4,504.8"/>
</g>
</svg>
