<?xml version="1.0" encoding="utf-8"?>
<!-- Generator: Adobe Illustrator 18.1.1, SVG Export Plug-In . SVG Version: 6.00 Build 0)  -->
<svg version="1.1" id="Capa_1" xmlns="http://www.w3.org/2000/svg" xmlns:xlink="http://www.w3.org/1999/xlink" x="0px" y="0px"
	 viewBox="0 0 1024 768" enable-background="new 0 0 1024 768" xml:space="preserve">
<g>
	<g>
		<path fill="#999999" d="M159.2,516.1c0-6.1,0-10.8-0.5-15.4h4.6l0.5,9.2l0,0c3.6-6.7,9.7-10.2,18.9-10.2c12.8,0,22,10.2,22,24.6
			c0,17.4-10.8,26.1-23,26.1c-7.2,0-13.8-3.1-17.4-9.2l0,0v16.9h-5.1V516.1z M163.8,530.4c0,1.5,0,2.6,0.5,3.6
			c2,7.7,8.7,12.3,16.9,12.3c11.8,0,18.4-9.2,18.4-22c0-10.8-6.1-21-17.9-21c-7.7,0-14.8,5.1-16.9,12.8c-0.5,1.5-0.5,3.1-0.5,4.1
			v10.2H163.8z"/>
		<path fill="#999999" d="M213.5,486.9c0,2-1.5,4.1-4.1,4.1s-4.1-2-4.1-4.1s2-4.1,4.1-4.1C212,482.8,213.5,484.9,213.5,486.9z
			 M206.8,549.4v-48.6h5.1v48.6H206.8z"/>
		<path fill="#999999" d="M219.1,524.8c0,15.4,8.7,21.5,19.5,21.5c7.7,0,11.3-1.5,14.3-2.6l1,3.6c-2,1-7.2,3.1-15.9,3.1
			c-14.8,0-23.6-10.2-23.6-24.6c0-16.4,9.7-26.1,23-26.1c16.9,0,20,14.8,20,22c0,1.5,0,2,0,3.1L219.1,524.8L219.1,524.8z
			 M251.9,520.7c0-6.7-3.1-16.9-15.4-16.9c-11.3,0-16.4,9.7-16.9,16.9H251.9z"/>
		<path fill="#999999" d="M259.6,512.5c0-4.6,0-7.7-0.5-11.8h4.6l0.5,8.7l0,0c2.6-5.6,9.2-9.7,17.4-9.7c5.1,0,17.9,2.6,17.9,20.5
			v29.2h-5.1v-28.7c0-8.7-3.6-16.9-14.3-16.9c-7.2,0-13.3,4.6-15.4,11.3c-0.5,1-0.5,3.1-0.5,4.1v29.7h-5.1v-36.4H259.6z"/>
		<path fill="#999999" d="M303.6,542.7c2.6,1.5,6.7,3.6,11.3,3.6c8.2,0,11.8-4.1,11.8-9.2s-3.6-8.2-10.8-10.8
			c-8.2-3.1-12.8-7.2-12.8-13.3c0-7.2,5.6-13.3,15.9-13.3c4.6,0,8.7,1.5,11.3,3.1l-2,4.1c-1.5-1-5.1-3.1-10.2-3.1
			c-6.7,0-9.7,4.1-9.7,8.2c0,5.1,3.6,7.2,10.8,9.7c8.2,3.1,13.3,7.2,13.3,14.3c0,8.2-6.7,13.8-17.4,13.8c-5.1,0-9.7-1.5-12.8-3.6
			L303.6,542.7z"/>
		<path fill="#999999" d="M366.1,537.6c0,3.6,0,7.7,0.5,11.3H362l-0.5-7.2H361c-2.6,3.6-8.2,8.2-16.4,8.2
			c-10.2,0-14.8-6.7-14.8-13.3c0-11.3,10.2-17.9,31.2-17.9v-1c0-4.6-1-14.3-12.8-14.3c-4.6,0-9.2,1-12.8,3.6l-1.5-3.6
			c4.6-3.1,10.2-4.1,14.8-4.1c14.8,0,17.4,10.2,17.4,18.9V537.6z M361.5,523.3c-11.3-0.5-25.6,1.5-25.6,12.8
			c0,7.2,5.1,10.2,10.2,10.2c8.7,0,13.3-5.1,14.8-9.7c0.5-1,0.5-2,0.5-3.1V523.3z"/>
		<path fill="#999999" d="M421.9,537.6c0,4.6,0,8.7,0.5,11.8h-11.8l-1-5.6h-0.5c-3.1,3.6-8.7,6.7-15.4,6.7
			c-10.2,0-16.4-7.2-16.4-14.8c0-12.3,11.8-18.4,30.7-18.4v-1c0-3.1-1.5-8.7-10.8-8.7c-5.1,0-10.2,1.5-13.8,3.6l-2.6-8.2
			c3.6-2,10.8-4.1,18.9-4.1c16.4,0,21.5,9.7,21.5,20.5v18.4H421.9z M409.6,525.3c-9.2,0-17.9,1.5-17.9,9.2c0,4.6,3.1,7.2,7.7,7.2
			c5.1,0,9.2-3.1,10.2-6.7c0.5-1,0.5-2,0.5-2.6v-7.2H409.6z"/>
		<path fill="#999999" d="M463.4,547.8c-2.6,1-8.2,2.6-14.8,2.6c-16.4,0-26.6-9.7-26.6-25.1c0-14.8,10.8-26.1,28.7-26.1
			c4.6,0,9.7,1,12.8,2.6l-2.6,9.2c-2-1-5.1-2-9.7-2c-9.7,0-15.9,7.2-15.9,15.9c0,10.2,6.7,15.9,15.9,15.9c4.6,0,7.7-1,10.2-2
			L463.4,547.8z"/>
		<path fill="#999999" d="M478.7,487.4v12.8h12.8v9.2h-12.3v21.5c0,6.1,1.5,9.2,6.7,9.2c2.6,0,3.6,0,5.1-0.5v9.7
			c-2,0.5-5.1,1.5-9.2,1.5c-4.6,0-8.7-1.5-11.3-4.1c-2.6-3.1-4.1-7.2-4.1-13.8v-23h-7.7v-9.2h7.2v-9.2L478.7,487.4z"/>
		<path fill="#999999" d="M537.1,534.5v-34.3h-13.3v29.7c0,1.5-0.5,2.6-0.5,3.6c-1.5,3.1-4.6,6.7-9.7,6.7c-6.7,0-9.7-5.1-9.7-13.3
			v-26.6h-13.3v28.7c0,15.9,8.7,21.5,17.9,21.5c9.2,0,14.3-5.1,16.4-8.7l0,0l0.5,7.7h11.3C537.1,545.3,537.1,540.2,537.1,534.5z"/>
		<polygon fill="#999999" points="524.8,491.5 515.1,491.5 507.9,502.8 515.1,502.8 		"/>
		<path fill="#999999" d="M580.6,537.6c0,4.6,0,8.7,0.5,11.8h-11.8l-1-5.6l0,0c-3.1,3.6-8.7,6.7-15.4,6.7
			c-10.2,0-16.4-7.2-16.4-14.8c0-12.3,11.8-18.4,30.7-18.4v-1c0-3.1-1.5-8.7-10.8-8.7c-5.1,0-10.2,1.5-13.8,3.6l-2.6-8.2
			c3.6-2,10.8-4.1,18.4-4.1c16.4,0,21.5,9.7,21.5,20.5v18.4H580.6z M567.8,525.3c-9.2,0-17.9,1.5-17.9,9.2c0,4.6,3.1,7.2,7.7,7.2
			c5.1,0,9.2-3.1,10.2-6.7c0.5-1,0.5-2,0.5-2.6v-7.2H567.8z"/>
		<path fill="#999999" d="M628.2,537.6c0,3.6,0,7.7,0.5,11.3h-4.1l-0.5-7.2h-0.5c-2.6,3.6-8.2,8.2-16.4,8.2
			c-10.2,0-14.8-6.7-14.8-13.3c0-11.3,10.2-17.9,31.2-17.9v-1c0-4.6-1-14.3-13.3-14.3c-4.6,0-9.2,1-12.8,3.6l-1.5-3.6
			c4.6-3.1,10.2-4.1,14.8-4.1c14.8,0,17.4,10.2,17.4,18.9V537.6L628.2,537.6z M623.1,523.3c-11.3-0.5-25.6,1.5-25.6,12.8
			c0,7.2,5.1,10.2,10.2,10.2c8.7,0,13.3-5.1,14.8-9.7c0.5-1,0.5-2,0.5-3.1V523.3z"/>
		<path fill="#999999" d="M631.8,500.7l11.8,30.2c2,4.6,3.6,8.7,5.1,12.8l0,0c1.5-4.1,3.1-8.2,5.1-12.8l12.3-30.2h5.1l-20.5,48.6
			h-4.6l-20-48.6H631.8z"/>
		<path fill="#999999" d="M702.5,537.6c0,3.6,0,7.7,0.5,11.3h-4.6l-0.5-7.2h-0.5c-2.6,3.6-8.2,8.2-16.4,8.2
			c-10.2,0-14.8-6.7-14.8-13.3c0-11.3,10.2-17.9,31.2-17.9v-1c0-4.6-1-14.3-12.8-14.3c-4.6,0-9.2,1-12.8,3.6l-1.5-3.6
			c4.6-3.1,10.2-4.1,14.8-4.1c14.8,0,17.4,10.2,17.4,18.9V537.6z M697.3,523.3c-11.3-0.5-25.6,1.5-25.6,12.8
			c0,7.2,5.1,10.2,10.2,10.2c8.7,0,13.3-5.1,14.8-9.7c0.5-1,0.5-2,0.5-3.1V523.3z"/>
		<path fill="#999999" d="M708.6,512.5c0-4.6,0-7.7-0.5-11.8h4.6l0.5,8.7l0,0c2.6-5.6,9.2-9.7,17.4-9.7c5.1,0,17.9,2.6,17.9,20.5
			v29.2h-5.1v-28.7c0-8.7-3.6-16.9-14.3-16.9c-7.2,0-13.3,4.6-15.4,11.3c-0.5,1-0.5,3.1-0.5,4.1v29.7h-5.1v-36.4H708.6z"/>
		<path fill="#999999" d="M748,546.3l27.1-34.3c2-2.6,3.6-4.6,5.6-7.2l0,0h-31.2v-4.1h37.4v3.1l-27.1,34.3c-2,2.6-3.6,4.6-5.6,6.7
			l0,0h32.8v4.1h-39.4v-2.6H748z"/>
		<path fill="#999999" d="M818.7,537.6c0,3.6,0,7.7,0.5,11.3h-4.6l-0.5-7.2h-0.5c-2.6,3.6-8.2,8.2-16.4,8.2
			c-10.2,0-14.8-6.7-14.8-13.3c0-11.3,10.2-17.9,31.2-17.9v-1c0-4.6-1-14.3-13.3-14.3c-4.6,0-9.2,1-12.8,3.6l-1.5-3.6
			c4.6-3.1,10.2-4.1,14.8-4.1c14.8,0,17.4,10.2,17.4,18.9v19.5H818.7z M813.6,523.3c-11.3-0.5-25.6,1.5-25.6,12.8
			c0,7.2,5.1,10.2,10.2,10.2c8.7,0,13.3-5.1,14.8-9.7c0.5-1,0.5-2,0.5-3.1V523.3z"/>
	</g>
	<path fill="#666666" d="M224.3,315.4v-94.2h40.4v94.2c0,14.3-1,25.6-3.1,32.8c-2,7.2-5.6,13.3-10.2,18.9
		c-4.1,4.6-9.7,8.2-16.4,10.2c-7.2,2.6-14.3,3.6-22.5,3.6c-8.2,0-15.4-1.5-22-3.6c-6.7-2.6-12.3-6.1-16.4-10.2
		c-5.1-5.1-8.7-11.8-10.8-18.9c-2-7.2-3.1-18.4-3.1-32.8v-94.2h40.4v94.2c0,8.7,1,14.8,2.6,18.4s4.6,5.1,9.2,5.1
		c4.1,0,7.2-1.5,9.2-5.1C223.2,330.2,224.3,324.1,224.3,315.4L224.3,315.4z M290.3,376.8V221.2h17.9l57.9,68.1v-68.1h40.4v155.6
		h-18.4l-57.3-67.6v67.6H290.3L290.3,376.8z M474.6,376.8h-40.4V221.2h40.4V376.8L474.6,376.8z M562.2,260.6v116.2h-40.4V260.6H490
		l4.1-39.4h95.2l4.1,39.4H562.2L562.2,260.6z M704.5,333.8l-10.8,43h-86.5V221.2h86l6.7,41.5h-52.2v15.9H683v41h-35.3v14.3
		L704.5,333.8L704.5,333.8z M817.2,376.8c-3.1,1-6.1,1.5-9.7,2s-7.2,0.5-11.3,0.5c-24.6,0-44.5-7.2-59.4-22
		c-15.4-14.8-23-33.8-23-57.3c0-23.6,7.7-43,23.6-58.9c15.9-15.4,35.8-23,60.4-23c3.1,0,5.6,0,8.7,0.5c3.1,0.5,6.1,1,9.7,1.5l2,46.1
		c-3.6-1.5-7.2-3.1-10.8-3.6c-3.6-0.5-7.2-1-10.2-1c-12.3,0-22,3.6-29.7,10.2c-7.7,7.2-11.3,15.9-11.3,26.1
		c0,10.8,3.6,19.5,11.3,26.6s17.4,10.8,28.7,10.8c4.1,0,8.2-0.5,12.3-1.5c4.1-1,8.2-2.6,11.8-4.6L817.2,376.8z"/>
	<g>
		<path fill="#666666" d="M603.1,463.9v-2c1,0,2-1,3.6-2v-7.7c-1.5,0.5-3.1,1-3.6,1.5v-1.5c1-0.5,2.6-1,3.6-1.5v-1
			c0-2-0.5-3.6-1-4.1c-0.5-1-1.5-1-3.1-1l0,0v-1.5h0.5c1.5,0,3.1,0.5,4.1,1s1.5,1,2,2c0,0.5,0.5,2,0.5,4.1v7.2c0,2,0,3.1,0,3.6
			s0,0.5,0.5,1h0.5h0.5c0,0,1-1,1.5-1.5v1c-1.5,2.6-3.1,3.6-4.6,3.6c-1,0-1.5,0-1.5-0.5c-0.5-0.5-0.5-1.5-0.5-2.6
			C604.7,462.8,603.6,463.9,603.1,463.9z M603.1,442.9v1.5c-1,0-1.5,0-2,1c-0.5,0.5-1,1-1,1.5v1.5c0,0.5,0,1-0.5,1.5
			c-0.5,0.5-1,0.5-1.5,0.5s-1,0-1.5-0.5c-0.5-0.5-0.5-1-0.5-1.5c0-1.5,0.5-2.6,2-3.6C599,443.4,600.6,442.9,603.1,442.9L603.1,442.9
			z M603.1,452.1v1.5h-0.5c-1,0.5-2,1.5-2.6,2c-0.5,0.5-1,1.5-1,2.6s0.5,2,1,2.6c0.5,0.5,1.5,1,2,1h0.5v2l0,0
			c-1,0.5-1.5,0.5-2.6,0.5c-1.5,0-2.6-0.5-3.6-1.5c-1-1-1.5-2-1.5-4.1c0-1,0-2,0.5-2.6c0.5-1,1.5-2,3.1-3.1
			C600.1,453.1,601.1,452.6,603.1,452.1L603.1,452.1z M548.9,474.1v-2.6c0.5,0,1,0,1.5,0c2.6,0,4.6-0.5,5.6-1.5c1.5-1,2-2,2-3.1
			s-0.5-1.5-1-1.5c-1,0-2.6-0.5-4.6-0.5c-1.5,0-2.6,0-3.6,0v-3.6l0,0c3.1,0,5.1,0,5.6,0c1.5,0,2.6,0.5,3.6,1.5c0.5,1,1,2,1,3.1
			c0,1.5-1,3.1-2.6,4.6C555.5,473.1,552.4,474.1,548.9,474.1L548.9,474.1z M548.9,457.7v-1c0,0,0,0,0.5,0c1,0,2-0.5,2.6-1.5
			c1-1,1-2,1-4.1c0-2.6-0.5-4.1-1.5-5.6c-0.5-1-1.5-1.5-2.6-1.5v-1l0,0c2,0,3.6,0.5,5.1,1.5h4.1c0.5,0,1,0,1,0l0,0v0.5
			c0,0.5,0,0.5,0,1l0,0c0,0-0.5,0-1,0h-2.6c1,1,1.5,2.6,1.5,4.1c0,2-0.5,3.6-2,5.1C553.5,456.7,551.4,457.7,548.9,457.7L548.9,457.7
			L548.9,457.7z M567.3,432.1c0.5,0,1,0,1.5,0.5c0.5,0.5,0.5,1,0.5,1.5c0,0.5,0,1-0.5,1.5c-0.5,0.5-1,0.5-1.5,0.5s-1,0-1.5-0.5
			c-0.5-0.5-0.5-1-0.5-1.5c0-0.5,0-1,0.5-1.5C566.3,432.1,566.8,432.1,567.3,432.1L567.3,432.1z M569.3,442.9v16.9
			c0,1.5,0,2,0.5,2.6c0,0.5,0.5,0.5,1,1c0.5,0,1,0.5,2,0.5v1h-9.7v-1c1,0,1.5,0,2-0.5c0.5,0,0.5-0.5,1-1c0-0.5,0.5-1.5,0.5-2.6v-8.2
			c0-2,0-3.6,0-4.1c0-0.5,0-1-0.5-1c0,0-0.5,0-1,0c-0.5,0-1,0-1.5,0.5v-1l6.1-2.6h-0.5V442.9z M592.4,456.2
			c-0.5,2.6-1.5,4.6-3.1,6.1c-1.5,1.5-3.6,2-5.1,2c-2.6,0-4.1-1-6.1-3.1c-1.5-2-2.6-4.6-2.6-8.2c0-3.1,1-5.6,3.1-8.2
			c2-2,4.1-3.1,7.2-3.1c2,0,3.6,0.5,5.1,1.5c1.5,1,2,2,2,3.6c0,0.5,0,1-0.5,1.5c-0.5,0.5-1,0.5-1.5,0.5c-1,0-1.5,0-2-1
			c0-0.5-0.5-1-0.5-2c0-1-0.5-1.5-1-2c-0.5-0.5-1.5-0.5-2-0.5c-1.5,0-2.6,0.5-3.6,1.5c-1,1.5-1.5,3.6-1.5,5.6c0,2.6,0.5,4.6,1.5,6.7
			c1,2,3.1,3.1,4.6,3.1s3.1-0.5,4.1-1.5c1-0.5,1.5-2,2.6-3.6L592.4,456.2z M548.9,442.9v1l0,0c-1,0-2,0.5-2.6,1.5c-1,1-1,2-1,4.1
			c0,2.6,0.5,4.1,1.5,5.6c0.5,1,1.5,1.5,2.6,1.5v1c-1,0-2,0-3.1-0.5c-0.5,0.5-1,1-1.5,1.5c0,0.5-0.5,1-0.5,1c0,0.5,0,0.5,0.5,1
			c0,0,0.5,0.5,1.5,0.5c0.5,0,1.5,0,3.1,0v3.6c-1.5,0-3.1,0-4.1-0.5c-0.5,0.5-1,1.5-1.5,2c-1,0.5-1,1-1,2c0,0.5,0.5,1.5,1.5,2
			c1.5,1,3.1,1.5,5.1,1.5v2.6h-0.5c-3.1,0-5.1-0.5-7.2-2c-1-0.5-1.5-1.5-1.5-2.6c0-0.5,0-0.5,0-1c0-0.5,1-1.5,1.5-2.6
			c0,0,1-1,2.6-2.6c-1-0.5-1.5-1-1.5-1c-0.5-0.5-0.5-1-0.5-1.5c0-0.5,0-1,0.5-2c0.5-0.5,1.5-1.5,3.1-3.1c-1.5-0.5-2-1.5-3.1-2.6
			c-0.5-1-1-2.6-1-3.6c0-2,1-3.6,2.6-5.1C544.8,443.9,546.8,442.9,548.9,442.9L548.9,442.9z M526.8,464.9v-1.5h0.5
			c1.5,0,2.6-0.5,3.6-2c1-1,1.5-3.1,1.5-6.1c0-3.6-1-6.7-2.6-8.7c-1-1-2-2-3.1-2v-1.5l0,0c3.1,0,5.6,1,7.2,3.6
			c1.5,2,2.6,4.1,2.6,7.2c0,2-0.5,3.6-1.5,5.6c-1,2-2,3.6-3.6,4.1C529.9,464.4,528.4,464.9,526.8,464.9L526.8,464.9z M526.8,438.3
			v-5.6h4.6L526.8,438.3z M526.8,432.6v5.6l-2,2h-1L526.8,432.6L526.8,432.6L526.8,432.6z M526.8,442.9v1.5h-0.5c-1,0-1.5,0-2.6,0.5
			s-1.5,1.5-2,2.6c-0.5,1-0.5,2.6-0.5,4.6c0,3.1,0.5,5.6,1.5,7.7s2.6,3.1,4.1,3.1v1.5l0,0c-3.1,0-5.6-1-7.2-3.6c-1.5-2-2-4.6-2-7.2
			c0-2,0.5-3.6,1.5-5.6s2-3.1,3.6-4.1C523.3,443.4,524.8,442.9,526.8,442.9L526.8,442.9z M491.5,464.9v-1.5c0,0,0.5,0,1,0
			c1.5,0,2.6-0.5,3.6-2c1-1,1.5-3.1,1.5-6.1c0-3.6-1-6.7-2.6-8.7c-1-1-2-2-3.6-2v-1.5l0,0c3.1,0,5.6,1,7.7,3.6
			c1.5,2,2.6,4.1,2.6,7.2c0,2-0.5,3.6-1.5,5.6c-1,2-2,3.6-3.6,4.1C494.6,464.4,493.1,464.9,491.5,464.9L491.5,464.9z M511,432.1
			v27.6c0,1.5,0,2,0,2.6s0.5,0.5,1,1c0.5,0,1,0.5,2,0.5v1h-9.7v-1c1,0,1.5,0,2-0.5c0.5,0,0.5-0.5,1-1c0-0.5,0.5-1.5,0.5-2.6v-18.9
			c0-2.6,0-3.6,0-4.1c0-0.5,0-1-0.5-1c0,0-0.5-0.5-1-0.5s-1,0-1.5,0.5l-0.5-0.5l6.1-2.6h0.5V432.1z M491.5,442.9v1.5H491
			c-1,0-1.5,0-2.6,0.5c-0.5,0.5-1.5,1.5-2,2.6s-0.5,2.6-0.5,4.6c0,3.1,0.5,5.6,1.5,7.7c1,2,2.6,3.1,4.1,3.1v1.5l0,0
			c-3.1,0-5.6-1-7.2-3.6c-1.5-2-2-4.6-2-7.2c0-2,0.5-3.6,1.5-5.6c1-2,2-3.1,3.6-4.1C487.9,443.4,489.5,442.9,491.5,442.9
			L491.5,442.9z M426.5,464.9v-4.1c1,0.5,1.5,0.5,2.6,0.5c1.5,0,2.6-0.5,3.6-1c1-0.5,1.5-2,2.6-3.6l0.5,0.5c-0.5,2-1,4.1-2.6,5.6
			c-1.5,1.5-3.6,2.6-5.6,2.6C427,464.9,426.5,464.9,426.5,464.9L426.5,464.9z M426.5,451.1v-1.5h4.6c0-1.5,0-2.6-0.5-3.1
			c-0.5,0-1-1-1.5-1c-0.5-0.5-1.5-0.5-2-0.5c0,0,0,0-0.5,0v-1.5c0.5,0,1,0,1.5,0c2.6,0,4.1,1,5.6,2.6c1.5,1.5,2,3.6,2,6.1h-9.2
			V451.1z M455.7,456.2c-0.5,2.6-1.5,4.6-3.1,6.1c-1.5,1.5-3.6,2-5.1,2c-2.6,0-4.1-1-6.1-3.1c-1.5-2-2.6-4.6-2.6-8.2
			c0-3.1,1-5.6,3.1-8.2c2-2,4.1-3.1,6.7-3.1c2,0,3.6,0.5,5.1,1.5c1.5,1,2,2,2,3.6c0,0.5,0,1-0.5,1.5c-0.5,0.5-1,0.5-1.5,0.5
			c-1,0-1.5,0-2-1c0-0.5-0.5-1-0.5-2c0-1-0.5-1.5-1-2s-1.5-0.5-2-0.5c-1.5,0-2.6,0.5-3.6,1.5c-1,1.5-1.5,3.6-1.5,5.6
			c0,2.6,0.5,4.6,1.5,6.7c1,2,3.1,3.1,4.6,3.1s3.1-0.5,4.1-1.5c0.5-0.5,1.5-2,2.6-3.6V456.2L455.7,456.2z M464.9,447.5
			c2.6-3.1,4.6-4.6,6.7-4.6c1,0,2,0.5,3.1,1s1.5,1.5,2,3.1c0.5,1,0.5,2.6,0.5,4.1v8.7c0,1.5,0,2,0.5,2.6c0,0.5,0.5,0.5,1,1
			c0.5,0,1,0.5,2,0.5v1h-10.2v-1h0.5c1,0,1.5,0,2-0.5c0.5,0,0.5-0.5,0.5-1.5c0,0,0-1,0-2v-8.7c0-2,0-3.1-0.5-4.1c-1-1-2-1.5-3.1-1.5
			c-1.5,0-3.6,1-5.1,3.1v10.8c0,1.5,0,2,0,2.6s0.5,1,1,1s1,0.5,2,0.5v1h-10.2v-1h0.5c1,0,1.5,0,2-1c0.5-0.5,0.5-1.5,0.5-3.1v-7.7
			c0-2.6,0-4.1,0-4.6c0-0.5-0.5-1-0.5-1s-0.5,0-1,0s-1,0-1.5,0.5v-1l6.1-2.6h1L464.9,447.5L464.9,447.5z M426.5,442.9v1.5
			c-1,0-2,0.5-3.1,1.5c-1,1-1.5,2.6-1.5,4.1h4.6v1.5h-4.6c0,3.1,0.5,5.6,2,7.2c1,1,1.5,1.5,2.6,2v4.1c-2,0-3.6-1-5.1-3.1
			c-1.5-1.5-2-3.1-2.6-5.6v-5.1c0.5-2.6,1-4.1,2.6-5.6C422.4,444.4,424.4,443.4,426.5,442.9L426.5,442.9z M418.8,440.8v-4.1V440.8
			L418.8,440.8z M418.8,436.7v4.1h-0.5c0-1.5-0.5-2-0.5-2.6c-0.5-1-1-1.5-2-2c-1-0.5-2-1-3.1-1h-4.1v23.6c0,2,0,3.1,0.5,3.6
			s1.5,1,2.6,1h1v1h-12.8v-1h1c1.5,0,2-0.5,2.6-1s0.5-1.5,0.5-3.1v-24.1h-3.6c-1.5,0-2.6,0-3.1,0.5c-1,0-1.5,1-2,1.5
			c-0.5,1-1,2-1,3.1h-1l0.5-7.2h24.6L418.8,436.7L418.8,436.7z M418.8,451.6c0,1,0,1.5,0,2.6s0,1.5,0,2.6V451.6L418.8,451.6z
			 M369.7,464.9v-2.6c0.5,0,1,0,1,0c1.5,0,2.6-0.5,4.1-2v-10.8c0-1-0.5-2-0.5-3.1c-0.5-1-1-1.5-1.5-2c-1-0.5-1.5-0.5-2-0.5
			c0,0,0,0-0.5,0v-1.5h0.5c1.5,0,3.1,0.5,4.1,1.5v-4.1c0-2.6,0-3.6,0-4.1c0-0.5,0-1-0.5-1c0,0-0.5-0.5-1-0.5s-1,0-1.5,0.5v-0.5
			l6.1-2.6h1v24.1c0,2.6,0,4.1,0,4.6s0,1,0.5,1c0,0,0.5,0.5,1,0.5c0.5,0,1,0,1.5-0.5l0.5,1l-6.1,2.6h-1v-3.1c-1,1-2,1.5-3.1,2
			C371.2,464.4,370.2,464.9,369.7,464.9z M369.7,442.9v1.5c-1,0-2,0.5-3.1,1.5c-1.5,1.5-2,4.1-2,7.2s0.5,5.6,2,7.2
			c1,1.5,2,2,3.1,2.6v2.6c0,0-0.5,0-1,0c-2,0-4.1-1-5.6-3.1c-1.5-2-2.6-4.1-2.6-7.2s1-5.6,2.6-8.2
			C365.1,444.4,367.1,442.9,369.7,442.9L369.7,442.9z M347.6,463.9v-2c1,0,2-1,3.6-2v-7.7c-1.5,0.5-3.1,1-3.6,1.5v-1.5
			c1-0.5,2.6-1,3.6-1.5v-1c0-2,0-3.6-1-4.1c-0.5-1-1.5-1-3.1-1l0,0v-1.5h0.5c1.5,0,3.1,0.5,4.6,1c1,0.5,1.5,1,2,2
			c0,0.5,0.5,2,0.5,4.1v7.2c0,2,0,3.1,0,3.6s0,0.5,0.5,1h0.5h0.5c0.5,0,1-1,1.5-1.5v1c-1.5,2.6-3.1,3.6-4.6,3.6
			c-0.5,0-1.5,0-1.5-0.5c-0.5-0.5-0.5-1.5-0.5-2.6C349.7,462.8,348.2,463.9,347.6,463.9z M347.6,442.9v1.5c-1,0-1.5,0-2,1
			c-0.5,0.5-1,1-1,1.5v1.5c0,0.5,0,1-0.5,1.5c-0.5,0.5-1,0.5-1.5,0.5s-1,0-1.5-0.5s-0.5-1-0.5-1.5c0-1.5,0.5-2.6,2-3.6
			C344.1,443.4,345.6,442.9,347.6,442.9L347.6,442.9z M347.6,452.1v1.5h-0.5c-1,0.5-2,1.5-2.6,2s-0.5,1.5-0.5,2.6s0,2,1,2.6
			c0.5,0.5,1.5,1,2,1h0.5v2l0,0c-1,0.5-1.5,0.5-2.6,0.5c-1.5,0-2.6-0.5-3.6-1.5c-1-1-1.5-2-1.5-4.1c0-1,0-2,0.5-2.6
			c0.5-1,1.5-2,3.1-3.1C345.1,453.1,346.1,452.6,347.6,452.1L347.6,452.1z M326.7,464.9v-2.6c0.5,0,1,0,1.5,0c1.5,0,2.6-0.5,4.1-2
			v-10.8c0-1-0.5-2-1-3.1c-0.5-1-1-1.5-1.5-2s-1.5-0.5-2-0.5h-0.5v-1.5h0.5c1.5,0,3.1,0.5,4.6,1.5v-4.1c0-2.6,0-3.6,0-4.1
			c0-0.5,0-1-0.5-1c0,0-0.5-0.5-1-0.5c-0.5,0-1,0-1.5,0.5v-0.5l6.1-2.6h1v24.1c0,2.6,0,4.1,0,4.6s0.5,1,0.5,1s0.5,0.5,1,0.5
			s1,0,1.5-0.5v1l-6.7,2.6h-1v-3.1c-1,1-2,1.5-3.1,2C328.2,464.4,327.2,464.9,326.7,464.9z M326.7,442.9v1.5c-1,0-2,0.5-3.1,1.5
			c-1.5,1.5-2,4.1-2,7.2s0.5,5.6,2,7.2c1,1.5,2,2,3.1,2.6v2.6c0,0-0.5,0-1,0c-2,0-4.1-1-5.6-3.1c-1.5-2-2.6-4.1-2.6-7.2
			s1-5.6,3.1-8.2C322,444.4,324.1,442.9,326.7,442.9L326.7,442.9z M259.6,464.9v-4.1c1,0.5,1.5,0.5,2.6,0.5c1.5,0,2.6-0.5,3.6-1
			c1-0.5,1.5-2,2.6-3.6l0.5,0.5c-0.5,2-1,4.1-2.6,5.6c-1.5,1.5-3.6,2.6-5.6,2.6C260.6,464.9,260.1,464.9,259.6,464.9L259.6,464.9z
			 M259.6,451.1v-1.5h4.6c0-1.5,0-2.6-0.5-3.1c-0.5-1-1-1.5-1.5-2c-0.5-0.5-1.5-0.5-2-0.5c0,0,0,0-0.5,0v-1.5c0.5,0,1,0,1.5,0
			c2.6,0,4.1,1,5.6,2.6c1.5,1.5,2,3.6,2,6.1L259.6,451.1L259.6,451.1z M277.5,442.9v4.6c1.5-3.1,3.6-4.6,5.1-4.6c1,0,1.5,0,2,1
			c0.5,0.5,0.5,1,0.5,1.5c0,0.5,0,1-0.5,1.5c-0.5,0.5-1,0.5-1.5,0.5c-0.5,0-1-0.5-1.5-1s-1-1-1.5-1s-0.5,0-1,0.5s-1.5,1.5-2,3.1
			v10.2c0,1,0,2,0.5,2.6c0,0.5,0.5,0.5,1,1s1,0.5,2,0.5v1h-10.2v-1c1,0,2,0,2.6-0.5c0.5,0,0.5-0.5,1-1c0,0,0-1,0-2v-8.2
			c0-2.6,0-4.1,0-4.1c0-0.5,0-1-0.5-1c0,0-0.5-0.5-1-0.5c-0.5,0-1,0-1.5,0.5v-1l6.1-2.6L277.5,442.9L277.5,442.9z M300,442.9v7.2
			h-0.5c-0.5-2-1.5-3.6-2-4.6c-1-1-2-1-3.1-1s-2,0-2.6,1c-0.5,0.5-1,1-1,2c0,1,0,1.5,0.5,2c0.5,0.5,1.5,1.5,3.1,2l3.1,1.5
			c3.1,1.5,4.6,3.6,4.6,6.1c0,2-0.5,3.6-2,4.6c-1.5,1-3.1,1.5-4.6,1.5c-1,0-2.6,0-4.1-0.5c-0.5,0-1,0-1,0c-0.5,0-0.5,0-1,0.5h-0.5
			v-7.2h0.5c0.5,2,1,3.6,2.6,4.6c1,1,2.6,1.5,4.1,1.5c1,0,1.5-0.5,2.6-1c0.5-0.5,1-1.5,1-2c0-1-0.5-2-1-2.6c-0.5-0.5-2-1.5-4.1-2.6
			c-2-1-3.6-2-4.1-3.1s-1-2-1-3.1c0-1.5,0.5-3.1,1.5-4.1c1-1,2.6-1.5,4.1-1.5c1,0,2,0,3.1,0.5c1,0,1.5,0.5,1.5,0.5h0.5
			c0,0,0-0.5,0.5-0.5H300V442.9z M309.8,432.1c0.5,0,1,0,1.5,0.5s0.5,1,0.5,1.5c0,0.5,0,1-0.5,1.5c-0.5,0.5-1,0.5-1.5,0.5
			s-1,0-1.5-0.5c-0.5-0.5-0.5-1-0.5-1.5c0-0.5,0-1,0.5-1.5C308.7,432.1,309.2,432.1,309.8,432.1L309.8,432.1z M311.8,442.9v16.9
			c0,1.5,0,2,0,2.6s0.5,0.5,1,1c0.5,0,1,0.5,2,0.5v1h-9.7v-1c1,0,1.5,0,2-0.5c0.5,0,0.5-0.5,1-1c0-0.5,0-1.5,0-2.6v-8.2
			c0-2,0-3.6,0-4.1c0-0.5-0.5-1-0.5-1s-0.5,0-1,0c-0.5,0-1,0-1.5,0.5l-0.5-1.5l6.1-2.6H311.8z M180.7,434.2v-1h10.8v1h-1
			c-1,0-2,0.5-2.6,1.5c-0.5,0.5-0.5,1.5-0.5,3.1v12.3c0,3.1-0.5,5.6-1,7.2c-0.5,1.5-1.5,3.1-3.6,4.6c-1.5,1-4.1,1.5-7.2,1.5
			s-5.6-0.5-7.2-1.5c-1.5-1-3.1-2.6-3.6-4.6c-1-1-1-3.6-1-7.2v-11.8c0-2,0-3.1-1-3.6c-0.5-0.5-1.5-1-2.6-1h-1v-1H172v1h-1
			c-1,0-2,0.5-2.6,1s-0.5,1.5-0.5,3.6v13.3c0,1,0,2.6,0.5,4.1c0,1.5,0.5,2.6,1,3.6c0.5,1,1.5,1.5,2.6,2s2.6,1,4.1,1
			c2,0,3.6-0.5,5.1-1.5c1.5-1,2.6-2,3.1-3.1c0.5-1.5,1-3.6,1-7.2v-12.3c0-2,0-3.1-0.5-3.6c-0.5-0.5-1.5-1-2.6-1h-1.5V434.2z
			 M259.6,442.9v1.5c-1,0-2,0.5-3.1,1.5c-1,1-1.5,2.6-1.5,4.1h4.6v1.5H255c0,3.1,0.5,5.6,2,7.2c1,1,1.5,1.5,2.6,2v4.1
			c-2,0-3.6-1-5.1-3.1s-2.6-4.6-2.6-7.7c0-3.6,1-6.1,2.6-8.2C256,444.4,257.5,443.4,259.6,442.9L259.6,442.9z M199.2,447.5
			c2.6-3.1,4.6-4.6,6.7-4.6c1,0,2,0.5,3.1,1s1.5,1.5,2,3.1c0.5,1,0.5,2.6,0.5,4.1v8.7c0,1.5,0,2,0,2.6s0.5,0.5,1,1
			c0.5,0,1,0.5,2,0.5v1h-10.2v-1h0.5c1,0,1.5,0,2-0.5c0.5,0,0.5-0.5,1-1.5c0,0,0-1,0-2v-8.7c0-2,0-3.1-0.5-4.1
			c-0.5-1-1.5-1.5-2.6-1.5c-1.5,0-3.6,1-5.1,3.1v10.8c0,1.5,0,2,0,2.6s0.5,1,1,1s1,0.5,2,0.5v1h-10.2v-1h0.5c1,0,1.5,0,2-1
			c0.5-0.5,0.5-1.5,0.5-3.1v-7.7c0-2.6,0-4.1,0-4.6s0-1-0.5-1c0,0-0.5,0-1,0s-1,0-1.5,0.5l-0.5-1l6.1-2.6h1V447.5L199.2,447.5z
			 M221.2,432.1c0.5,0,1,0,1.5,0.5s0.5,1,0.5,1.5c0,0.5,0,1-0.5,1.5c-0.5,0.5-1,0.5-1.5,0.5c-0.5,0-1,0-1.5-0.5
			c-0.5-0.5-0.5-1-0.5-1.5c0-0.5,0-1,0.5-1.5C220.2,432.1,220.7,432.1,221.2,432.1L221.2,432.1z M223.2,442.9v16.9c0,1.5,0,2,0,2.6
			s0.5,0.5,1,1c0.5,0,1,0.5,2,0.5v1h-9.7v-1c1,0,1.5,0,2-0.5c0.5,0,0.5-0.5,1-1c0-0.5,0-1.5,0-2.6v-8.2c0-2,0-3.6,0-4.1
			c0-0.5-0.5-1-0.5-1s-0.5,0-1,0s-1,0-1.5,0.5l-0.5-1.5l6.1-2.6H223.2L223.2,442.9z M227.8,443.4h9.7v1h-0.5c-0.5,0-1,0-1.5,0.5
			c-0.5,0.5-0.5,0.5-0.5,1s0,1,0.5,2l4.6,11.3l4.6-11.8c0.5-1,0.5-1.5,0.5-2v-0.5l-0.5-0.5c0,0-1,0-1.5,0v-1h6.7v1
			c-0.5,0-1.5,0-1.5,0.5c-0.5,0.5-1,1-1.5,2l-7.2,17.9h-1l-7.2-17.4c-0.5-1-1-1.5-1-2c-0.5-0.5-0.5-0.5-1-1c0,0-0.5,0-1.5-0.5V443.4
			z"/>
		<path fill="#666666" d="M807.4,464.9v-1.5c0,0,0.5,0,1,0c1.5,0,2.6-0.5,3.6-2c1-1,1.5-3.1,1.5-6.1c0-3.6-1-6.7-2.6-8.7
			c-1-1-2-2-3.6-2v-1.5l0,0c3.1,0,5.6,1,7.7,3.6c1.5,2,2.6,4.1,2.6,7.2c0,2-0.5,3.6-1.5,5.6s-2,3.6-3.6,4.1
			C810.5,464.4,809,464.9,807.4,464.9z M807.4,442.9v1.5h-0.5c-1,0-1.5,0-2.6,0.5c-0.5,0.5-1.5,1.5-2,2.6c-0.5,1-0.5,2.6-0.5,4.6
			c0,3.1,0.5,5.6,1.5,7.7s2.6,3.1,4.1,3.1v1.5l0,0c-3.1,0-5.6-1-7.2-3.6c-1.5-2-2-4.6-2-7.2c0-2,0.5-3.6,1.5-5.6c1-2,2-3.1,3.6-4.1
			C803.8,443.4,805.9,442.9,807.4,442.9L807.4,442.9z M729.6,464.9v-4.1c1,0.5,1.5,0.5,2.6,0.5c1.5,0,2.6-0.5,3.6-1s1.5-2,2.6-3.6
			l0.5,0.5c0,2-1,4.1-2.6,5.6c-1.5,1.5-3.1,2.6-5.6,2.6C730.6,464.9,730.1,464.9,729.6,464.9L729.6,464.9z M729.6,451.1v-1.5h4.6
			c0-1.5,0-2.6-0.5-3.1c-0.5-1-1-1.5-1.5-2c-0.5-0.5-1.5-0.5-2.6-0.5l0,0v-1.5c0.5,0,1,0,1.5,0c2,0,4.1,1,5.6,2.6
			c1.5,1.5,2,3.6,2,6.1L729.6,451.1L729.6,451.1z M729.6,439.8v-4.1l1-3.1h5.1L729.6,439.8L729.6,439.8z M740.9,443.4h9.7v1
			c-0.5,0-1,0-1.5,0c0,0-0.5,0.5-0.5,1s0,1,1,1.5c0,0,0.5,0.5,0.5,1l1.5,2.6l1.5-2.6c1-1.5,1.5-2.6,1.5-3.1c0,0,0-0.5-0.5-1
			c0,0-0.5,0-1.5,0v-1h7.2v1c-0.5,0-1.5,0-2,0.5c-0.5,0.5-1.5,1.5-3.1,3.1l-3.1,3.6l5.1,7.7c1.5,1.5,2,3.1,2.6,3.1
			c0.5,0.5,1,0.5,2,0.5v1h-9.7v-1c0.5,0,1,0,1.5-0.5c0,0,0.5-0.5,0.5-1s-0.5-1-1.5-2.6l-3.1-4.6l-3.1,4.6c-1,1.5-1.5,2-1.5,2.6
			s0,0.5,0.5,1c0,0,1,0.5,1.5,0.5v1h-6.7v-1c0.5,0,1,0,1.5-0.5s1.5-1.5,3.1-3.1l4.1-5.6l-4.1-5.6c-1-1.5-2-2.6-2.6-3.1
			c-0.5-0.5-1.5-0.5-2-0.5v-0.5H740.9z M769.5,432.1c0.5,0,1,0,1.5,0.5c0.5,0.5,0.5,1,0.5,1.5c0,0.5,0,1-0.5,1.5
			c-0.5,0.5-1,0.5-1.5,0.5s-1,0-1.5-0.5c-0.5-0.5-0.5-1-0.5-1.5c0-0.5,0-1,0.5-1.5C768.5,432.1,769,432.1,769.5,432.1L769.5,432.1z
			 M771.6,442.9v16.9c0,1.5,0,2,0,2.6s0.5,0.5,1,1c0.5,0,1,0.5,2,0.5v1h-9.7v-1c1,0,1.5,0,2-0.5c0.5,0,0.5-0.5,1-1
			c0-0.5,0.5-1.5,0.5-2.6v-8.2c0-2,0-3.6,0-4.1c0-0.5,0-1-0.5-1c0,0-0.5,0-1,0c-0.5,0-1,0-1.5,0.5l-0.5-1l6.1-2.6h0.5V442.9z
			 M794.6,456.2c-0.5,2.6-1.5,4.6-3.1,6.1c-1.5,1.5-3.6,2-5.6,2c-2,0-4.1-1-6.1-3.1c-1.5-2-2.6-4.6-2.6-8.2c0-3.1,1-5.6,3.1-8.2
			c2-2,4.1-3.1,7.2-3.1c2,0,3.6,0.5,5.1,1.5c1.5,1,2,2,2,3.6c0,0.5,0,1-0.5,1.5c-0.5,0.5-1,0.5-1.5,0.5c-1,0-1.5,0-2-1
			c-0.5-0.5-0.5-1-0.5-2c0-1-0.5-1.5-1-2c-0.5-0.5-1.5-0.5-2-0.5c-1.5,0-2.6,0.5-3.6,1.5c-1,1.5-1.5,3.6-1.5,5.6
			c0,2.6,0.5,4.6,1.5,6.7c1,2,3.1,3.1,4.6,3.1c1.5,0,2.6-0.5,4.1-1.5c1-0.5,1.5-2,2.6-3.6L794.6,456.2z M729.6,435.7v4.1l-0.5,1
			h-0.5L729.6,435.7L729.6,435.7z M729.6,442.9v1.5c-1,0-2,0.5-3.1,1.5c-1,1-1.5,2.6-1.5,4.1h4.6v1.5H725c0,3.1,0.5,5.6,2,7.2
			c1,1,1.5,1.5,2.6,2v4.1c-2,0-3.6-1-5.1-3.1s-2.6-4.6-2.6-7.7c0-3.6,1-6.1,2.6-8.2C726,444.4,727.6,443.4,729.6,442.9L729.6,442.9z
			 M657.9,464.9v-4.1c1,0.5,1.5,0.5,2.6,0.5c1.5,0,2.6-0.5,3.6-1s2-2,2.6-3.6l0.5,0.5c0,2-1,4.1-2.6,5.6c-1.5,1.5-3.6,2.6-5.6,2.6
			C658.4,464.9,657.9,464.9,657.9,464.9L657.9,464.9z M657.9,451.1v-1.5h4.6c0-1.5,0-2.6-0.5-3.1c-0.5-1-1-1.5-1.5-2
			c-1-0.5-1.5-0.5-2.6-0.5l0,0v-1.5c0.5,0,1,0,1.5,0c2,0,4.1,1,5.6,2.6c1.5,1.5,2,3.6,2,6.1L657.9,451.1L657.9,451.1z M698.4,464.4
			l-11.8-26.1v20.5c0,2,0,3.1,0.5,3.6c0.5,0.5,1.5,1,2.6,1h1v1h-10.2v-1h1c1,0,2-0.5,2.6-1c0-0.5,0.5-1.5,0.5-3.1v-20
			c0-1.5,0-2.6-0.5-3.1c0-0.5-0.5-1-1-1c-0.5-0.5-1.5-0.5-2.6-0.5v-1h8.7l10.8,24.1l10.8-24.1h8.7v1h-1c-1.5,0-2,0.5-2.6,1
			c-0.5,0.5-0.5,1.5-0.5,3.1v20c0,2,0,3.1,0.5,3.6c0.5,0.5,1.5,1,2.6,1h1v1h-12.8v-1h1c1.5,0,2-0.5,3.1-1c0-0.5,0.5-1.5,0.5-3.1
			v-20.5l-11.8,26.1h-1V464.4z M641,461.8c-1,1-2,1.5-3.1,2c-0.5,0.5-1.5,0.5-2,0.5v-2.6c0.5,0,0.5,0,1,0c1.5,0,2.6-0.5,4.1-2V449
			c0-1-0.5-2-1-3.1c-0.5-1-1-1.5-1.5-2s-1.5-0.5-2-0.5c0,0,0,0-0.5,0v-1.5h0.5c1.5,0,3.1,0.5,4.6,1.5v-4.1c0-2.6,0-3.6,0-4.1
			c0-0.5-0.5-1-0.5-1s-0.5-0.5-1-0.5c-0.5,0-1,0-1.5,0.5l-0.5-0.5l6.1-2.6h1v24.1c0,2.6,0,4.1,0,4.6s0,1,0.5,1c0,0,0.5,0.5,1,0.5
			c0.5,0,1,0,1.5-0.5v1l-6.1,2.6h-1v-2.6H641z M657.9,442.9v1.5c-1,0-2,0.5-3.1,1.5c-1,1-1.5,2.6-1.5,4.1h4.6v1.5h-4.6
			c0,3.1,0.5,5.6,2,7.2c1,1,1.5,1.5,2.6,2v4.1c-2,0-3.6-1-5.1-3.1s-2.6-4.6-2.6-7.7c0-3.6,1-6.1,2.6-8.2
			C653.8,444.4,655.4,443.4,657.9,442.9z M635.9,464.9c-0.5,0-0.5,0-1,0c-2,0-4.1-1-5.6-3.1s-2.6-4.1-2.6-7.2s1-5.6,3.1-8.2
			c1.5-2.6,4.1-3.6,6.7-3.6v1.5c-1,0-2,0.5-3.1,1.5c-1.5,1.5-2,4.1-2,7.2s0.5,5.6,2,7.2c1,1.5,2,2,3.1,2.6v2H635.9z"/>
	</g>
	<rect x="158.2" y="406" fill="#666666" width="661" height="9.7"/>
	<g>
		<path fill="#666666" d="M845.3,224.8c10.2,0,18.4,8.2,18.4,18.4c0,10.2-8.2,18.4-18.4,18.4s-18.9-8.2-18.9-18.4
			C826.4,233,834.6,224.8,845.3,224.8L845.3,224.8z M845.3,228.4c-8.2,0-13.8,6.7-13.8,14.3c0,8.2,6.1,14.3,14.3,14.3
			s13.8-6.7,13.8-14.3C859.1,235,853.5,228.4,845.3,228.4L845.3,228.4z M842.2,252.4h-4.1v-17.9c1.5-0.5,4.1-0.5,7.2-0.5
			c3.6,0,5.1,0.5,6.1,1.5s1.5,2,1.5,4.1c0,2-1.5,3.6-3.6,4.1l0,0c1.5,0.5,2.6,2,3.6,4.6c0.5,2.6,1,4.1,1.5,4.6h-4.6
			c-0.5-0.5-1-2-1.5-4.1c-0.5-2-1.5-3.1-3.6-3.1h-2v6.7H842.2z M842.2,242.2h2c2.6,0,4.1-1,4.1-2.6s-1-2.6-4.1-2.6c-1,0-2,0-2.6,0
			v5.1H842.2z"/>
	</g>
</g>
</svg>
