<?xml version="1.0" encoding="utf-8"?>
<!-- Generator: Adobe Illustrator 18.1.1, SVG Export Plug-In . SVG Version: 6.00 Build 0)  -->
<svg version="1.1" id="Capa_1" xmlns="http://www.w3.org/2000/svg" xmlns:xlink="http://www.w3.org/1999/xlink" x="0px" y="0px"
	 viewBox="0 0 1024 768" enable-background="new 0 0 1024 768" xml:space="preserve">
<g>
	<rect x="128" y="192" fill="#CCCCCC" width="768" height="384"/>
	<path fill="#666666" d="M340,319h28.2v78.3c0,14.8-4.6,26.6-13.3,35.3c-9.2,8.2-22,12.8-39.4,12.8c-17.4,0-30.2-4.1-38.9-12.8
		c-8.7-8.2-13.3-20-13.3-35.3V319h28.2v79.4c0,7.7,2,13.8,6.1,17.9c4.1,4.1,10.2,6.1,18.4,6.1c8.2,0,14.3-2,18.4-6.1
		c4.1-4.1,6.1-10.2,6.1-17.9V319H340z"/>
	<path fill="#666666" d="M472.6,382.5c0-13.3-3.1-23.6-8.7-31.2c-6.1-7.7-14.3-11.3-25.1-11.3h-18.9v84h20
		c10.8,0,18.4-3.6,24.1-10.8S472.6,395.8,472.6,382.5 M499.7,382.5c0,10.2-1.5,18.9-4.1,26.6c-3.1,7.7-6.7,14.3-12.3,19.5
		c-5.1,5.6-11.3,9.7-18.9,12.3c-7.2,2.6-15.4,4.1-24.6,4.1h-32.3c-5.1,0-9.2-1.5-11.8-4.1s-4.1-6.1-4.1-10.8v-96.3
		c0-4.6,1.5-8.2,4.1-10.8s6.7-4.1,11.8-4.1h32.8c9.2,0,16.9,1.5,24.6,4.1c7.2,3.1,13.3,7.2,18.4,12.3c5.1,5.6,9.2,12.3,11.8,20
		C498.2,363.5,499.7,372.2,499.7,382.5"/>
	<path fill="#666666" d="M539.6,445.4c-5.1,0-9.2-1.5-11.8-4.1s-4.1-6.1-4.1-10.8v-96.8c0-4.6,1.5-8.2,4.1-10.8
		c3.1-2.6,6.7-4.1,11.8-4.1h72.7v21h-61.4v31.2h53.8v20h-53.2V425h61.4v20.5H539.6z"/>
	<path fill="#666666" d="M768.5,445.4h-24.6v-91.6l-27.1,82.4c-2,6.7-6.7,9.7-14.8,9.7c-7.7,0-12.8-3.1-15.4-9.7l-26.1-82.4v91.6
		h-23.6V335.9c0-5.6,2-10.2,5.6-12.8c3.6-3.1,8.7-4.1,14.8-4.1c3.6,0,6.7,0.5,9.2,1c2.6,1,4.6,2,6.7,3.6c1.5,1.5,3.1,3.1,4.6,5.1
		c1,2,2,4.1,3.1,6.7l22.5,72.2l23.6-72.2c1.5-4.6,3.6-8.7,7.2-11.8c3.1-3.1,8.2-4.6,15.4-4.6c6.1,0,11.3,1.5,14.8,4.1
		c3.6,3.1,5.6,7.2,5.6,12.8v109.6H768.5z"/>
</g>
</svg>
