<?xml version="1.0" encoding="utf-8"?>
<!-- Generator: Adobe Illustrator 18.1.1, SVG Export Plug-In . SVG Version: 6.00 Build 0)  -->
<svg version="1.1" id="Capa_1" xmlns="http://www.w3.org/2000/svg" xmlns:xlink="http://www.w3.org/1999/xlink" x="0px" y="0px"
	 viewBox="0 0 1024 768" enable-background="new 0 0 1024 768" xml:space="preserve">
<g>
	<g>
		<path fill-rule="evenodd" clip-rule="evenodd" fill="#666666" d="M333.7,265.4c6.9-34.8,32.1-40.8,55.9-40.8
			C383.6,258.5,358,265.4,333.7,265.4L333.7,265.4L333.7,265.4z"/>
		<g>
			<path fill-rule="evenodd" clip-rule="evenodd" fill="#666666" d="M232.4,395.5c0-40.3,19.7-76.1,49.9-98
				c-10.5,19.2-17.9,43.1-19.7,69.2c-3.7,50.9,14.2,96.2,42.6,119.1l1.4,1.4c-3.2,4.6-8.7,10.1-13.3,14.2
				C257.6,479.8,232.4,440.4,232.4,395.5L232.4,395.5L232.4,395.5z"/>
			<path fill-rule="evenodd" clip-rule="evenodd" fill="#666666" d="M240.7,491.7c-15.6,11-30.7,10.5-40.8-5
				C215.5,476.1,231.5,483,240.7,491.7L240.7,491.7L240.7,491.7z M211.8,437.2c-18.8,4.1-32.5-2.3-35.7-20.2
				C194.4,412.9,206.8,425.7,211.8,437.2L211.8,437.2L211.8,437.2z M206.3,382.7c-18.8-3.7-29.3-14.7-25.2-32.5
				C199.9,353.3,206.3,369.8,206.3,382.7L206.3,382.7L206.3,382.7z M220,332.7c-13.7-13.3-16.5-28.4-3.2-41.2
				C230.6,304.8,226.5,321.7,220,332.7L220,332.7z M281,510.9c-17.4,12.8-38.9,20.6-59.6,20.6c-46.7,0-76.5-40.8-67.4-87.5
				l31.6-164.5h96.2c-38.9,27.9-63.7,69.6-63.7,116.4C218.2,442.2,243,483,281,510.9L281,510.9L281,510.9z"/>
		</g>
		<path fill-rule="evenodd" clip-rule="evenodd" fill="#94959B" d="M384.5,406.5c-5,25.7-11.5,51.3-17.4,77.4
			c18.3-0.9,36.2-1.8,54.1-1.8c18.3,0,38.5,0.5,55.9,1.4c0-2.7,0-6,0.9-8.7c0.5-2.8,1.4-6.4,2.3-9.2c-19.2,3.2-56.8,4.1-83.4,4.1
			c1.4-7.3,3.7-22,8.2-44.4c5.5-28.4,6.9-36.2,8.7-43.1c14.2,0,49.5,0.9,69.6,2.8c0-2.8,0.5-6,0.9-8.7c0.5-3.2,1.4-6.4,2.7-9.2
			c-17.9,1.4-35.7,2.8-71,2.8c1.4-7.8,4.6-23.8,7.3-39.4c2.7-14.2,6-24.7,8.7-37.6c38.5,0,55,1.8,79.7,3.7c0-3.2,0-6,0.9-9.2
			c0.5-2.8,1.4-6,2.3-8.7c-17.4,0.9-37.6,1.8-55.4,1.8c-17.9,0-35.3-0.5-52.7-1.4c-3.7,25.2-7.8,50.9-12.8,76.5L384.5,406.5
			L384.5,406.5z"/>
		<path fill-rule="evenodd" clip-rule="evenodd" fill="#94959B" d="M557.7,370.3l4.6-22.5c3.7-18.3,8.2-37.6,12.4-56.4
			c6-0.9,12.8-1.4,22.9-1.4c22.5,0,47.2,5.5,41.2,37.6c-6.4,32.5-37.1,42.6-65.1,42.6H557.7l-1.8,11h13.3c39.4,0,63.7,7.8,56.8,41.7
			c-6,32.1-31.6,49.9-57.3,49.9c-10.5,0-21.5-0.5-28.9-1.4c3.2-20.2,6-40.3,10.1-60l6-30.2L557.7,370.3L557.7,370.3z M527.9,406.5
			c-4.6,25.7-11,51.3-17,77.4c9.6-0.9,19.2-1.8,28.9-1.8c9.6,0,18.8,1.8,28.4,1.8c34.4,0,78.3-16,86.6-60
			c6.9-33.4-12.4-47.7-47.2-49.5v-0.9c31.2-6.4,54.5-22.5,60-51.8c6.4-33.4-20.6-42.6-54.1-42.6c-10.5,0-21.5,1.4-32.1,1.4
			c-10.1,0-20.6-0.5-31.2-1.4c-3.7,25.2-7.3,50.9-12.4,76.5L527.9,406.5L527.9,406.5z"/>
		<path fill-rule="evenodd" clip-rule="evenodd" fill="#94959B" d="M836.8,454.6l-0.9-0.9c-13.3,8.2-37.1,24.3-65.1,24.3
			c-46.7,0-76.5-29.3-63.7-94.8c12.8-66,54.1-95.3,100.3-95.3c28,0,44.9,17,51.3,26.1l1.8-0.5c2.7-6,6.9-17.9,11-22.9
			c-14.7-7.3-36.2-13.7-61.9-13.7c-65.5,0-118.7,38.9-132,106.3C664.9,450.5,703,489,765.7,489c29.3,0,56.4-11,64.6-17L836.8,454.6
			L836.8,454.6z"/>
		<path fill-rule="evenodd" clip-rule="evenodd" fill="#94959B" d="M301.6,371.7c-1.4,17.4-10.1,27.9-26.6,25.7
			C276.4,380.4,290.2,373,301.6,371.7L301.6,371.7L301.6,371.7z M278.7,340.5c17-0.9,27.9-9.6,26.6-26.1
			C287.9,315.3,280.5,329,278.7,340.5L278.7,340.5L278.7,340.5z M299.3,452.3c16-6.9,22.9-19.2,15.6-33.4
			C298.9,425.7,297,441.3,299.3,452.3L299.3,452.3L299.3,452.3z M358.4,279.6L326.8,445c-2.7,14.2-7.8,25.2-16,36.7
			c-30.2-24.3-49.5-58.6-49.5-100.3c0-40.3,19.2-77.4,47.7-101.7H358.4L358.4,279.6z"/>
	</g>
	<g>
		<path fill="#94959B" d="M366.9,507.6c1.5,0,2.9,0,4.3,0c1.3,0,2.6,0,3.7-0.1c1.2,0,2.2-0.1,3-0.1c-0.3,0.7-0.5,1.2-0.6,1.6
			c-0.1,0.4-0.1,0.8,0,1.4c-0.5-0.1-1-0.1-1.5-0.1c-0.5,0-1-0.1-1.6-0.1c-0.6,0-1.4-0.1-2.3-0.1c-0.9,0-2,0-3.4,0
			c-0.4,1.5-0.8,3-1.2,4.6c-0.3,1.5-0.6,2.8-0.8,3.8h3.1c0.7,0,1.3,0,1.8,0c0.5,0,1,0,1.5,0c0.4,0,0.9-0.1,1.3-0.1
			c0.4,0,0.8,0,1.2-0.1c-0.4,0.8-0.6,1.4-0.6,1.8c0,0.4,0,0.8,0,1.2c-1.3-0.2-2.8-0.2-4.3-0.3c-1.6,0-3-0.1-4.4-0.1
			c-0.4,1.7-0.7,3.4-1,5.1c-0.3,1.7-0.6,3.4-0.8,5.1h3.1c0.6,0,1.2,0,1.7,0c0.5,0,0.9,0,1.4,0c0.4,0,0.9,0,1.3-0.1
			c0.4,0,0.9-0.1,1.5-0.1c-0.3,0.8-0.5,1.3-0.6,1.7c-0.1,0.4-0.1,0.7,0,1c-1.5-0.1-3-0.1-4.3-0.1c-1.3,0-2.5,0-3.7,0
			c-1.4,0-2.6,0-3.8,0c-1.2,0-2.3,0-3.3,0.1c0.3-0.7,0.6-1.8,0.9-3.2c0.3-1.4,0.7-2.9,1.1-4.6c0.4-1.7,0.8-3.4,1.1-5.2
			c0.4-1.8,0.7-3.6,1-5.2c0.3-1.7,0.6-3.2,0.8-4.6c0.2-1.4,0.4-2.5,0.5-3.3C364.2,507.6,365.5,507.6,366.9,507.6z"/>
		<path fill="#94959B" d="M388.4,519.1c-0.1-0.4-0.3-0.7-0.6-1.1c-0.3-0.4-0.7-0.7-1.1-0.9c-0.5-0.3-1.1-0.4-1.9-0.4
			c-1,0-1.8,0.2-2.3,0.7c-0.5,0.5-0.8,1-0.8,1.7c0,0.3,0.1,0.6,0.2,0.9c0.1,0.3,0.4,0.5,0.7,0.8c0.3,0.3,0.7,0.5,1.3,0.8
			c0.5,0.3,1.2,0.6,2,1.1c1,0.6,1.9,1.2,2.6,2c0.7,0.8,1.1,1.8,1.1,3.1c0,1.1-0.2,2.1-0.7,2.9c-0.5,0.8-1.1,1.5-1.8,2
			c-0.8,0.5-1.6,0.9-2.6,1.1c-1,0.2-1.9,0.3-2.9,0.3c-0.9,0-1.8-0.1-2.6-0.3c-0.8-0.2-1.7-0.5-2.5-0.9c0.3-0.6,0.5-1.3,0.7-1.9
			c0.2-0.6,0.3-1.3,0.4-1.9h0.7c0.1,0.5,0.2,1,0.5,1.4c0.3,0.4,0.6,0.8,1,1.1c0.4,0.3,0.8,0.5,1.3,0.7c0.5,0.2,0.9,0.2,1.4,0.2
			c0.9,0,1.7-0.2,2.3-0.7c0.6-0.5,0.9-1.1,0.9-1.7c0-0.7-0.3-1.3-0.9-1.8c-0.6-0.4-1.4-0.9-2.5-1.5c-0.5-0.3-1-0.5-1.5-0.8
			c-0.5-0.3-0.9-0.6-1.3-1.1c-0.4-0.4-0.7-0.9-0.9-1.4c-0.2-0.6-0.3-1.2-0.3-2c0-0.8,0.2-1.5,0.5-2.3c0.3-0.8,0.8-1.5,1.4-2.1
			c0.6-0.6,1.4-1.1,2.3-1.5c0.9-0.4,2-0.6,3.2-0.6c1.1,0,2.1,0.1,3,0.4c0.9,0.3,1.6,0.5,2.2,0.8c-0.4,0.7-0.6,1.4-0.8,2.1
			c-0.2,0.7-0.3,1.3-0.3,1.8h-0.8C388.6,519.8,388.5,519.5,388.4,519.1z"/>
		<path fill="#94959B" d="M407.5,519.1c-0.2-0.6-0.5-1-0.9-1.4c-0.4-0.4-0.8-0.6-1.3-0.8c-0.5-0.2-1-0.2-1.4-0.2
			c-0.8,0-1.5,0.2-2.2,0.5c-0.6,0.4-1.2,0.8-1.7,1.4c-0.5,0.6-0.9,1.2-1.2,1.9c-0.3,0.7-0.6,1.4-0.8,2.2c-0.2,0.7-0.4,1.4-0.5,2.1
			c-0.1,0.7-0.1,1.3-0.1,1.7c0,0.6,0.1,1.2,0.3,1.9c0.2,0.6,0.5,1.2,0.8,1.7c0.4,0.5,0.9,0.9,1.5,1.2c0.6,0.3,1.4,0.5,2.2,0.5
			c0.9,0,1.7-0.2,2.3-0.5c0.6-0.3,1.2-0.7,1.7-1.2l0.5,0.4c-0.4,0.7-0.7,1.2-0.9,1.6c-0.2,0.4-0.3,0.8-0.3,1.1
			c-0.8,0.2-1.6,0.4-2.3,0.6c-0.7,0.1-1.5,0.2-2.3,0.2c-1.3,0-2.5-0.2-3.6-0.5c-1.1-0.3-2.1-0.9-2.9-1.6c-0.8-0.7-1.5-1.6-1.9-2.7
			c-0.5-1.1-0.7-2.3-0.7-3.6c0-1.2,0.2-2.5,0.6-3.8c0.4-1.3,1.1-2.4,2-3.5c0.9-1,2.1-1.9,3.5-2.5c1.4-0.7,3.1-1,5-1
			c0.9,0,1.8,0.1,2.5,0.2c0.7,0.1,1.4,0.3,2,0.5c0.6,0.2,1.2,0.4,1.6,0.7c0.5,0.2,0.9,0.5,1.3,0.7c-0.2,0.3-0.4,0.6-0.5,0.8
			c-0.2,0.3-0.3,0.6-0.5,0.9c-0.2,0.3-0.3,0.7-0.5,1c-0.2,0.4-0.3,0.8-0.5,1.4h-0.9C407.8,520.3,407.7,519.7,407.5,519.1z"/>
		<path fill="#94959B" d="M410.9,528.1c0.2-0.7,0.3-1.4,0.5-2.1c0.4-1.7,0.7-3.1,1-4.3c0.3-1.2,0.5-2.1,0.6-2.9
			c0.2-0.8,0.3-1.4,0.3-2c0.1-0.5,0.1-1.1,0.2-1.6c0.4,0.1,0.8,0.1,1.3,0.1c0.4,0,1,0.1,1.6,0.1c0.7,0,1.3,0,1.7-0.1
			c0.4,0,0.9-0.1,1.2-0.1c-0.4,1.1-0.7,2.1-0.9,3c-0.2,0.8-0.5,1.6-0.6,2.3c-0.2,0.7-0.4,1.4-0.5,2.1c-0.2,0.7-0.4,1.5-0.6,2.4
			c-0.2,0.7-0.3,1.3-0.4,1.7c-0.1,0.5-0.2,0.9-0.3,1.2c-0.1,0.3-0.1,0.6-0.2,0.8c0,0.2,0,0.4,0,0.6c0,0.6,0.2,1,0.6,1.4
			c0.4,0.4,0.9,0.6,1.6,0.6c0.3,0,0.7-0.1,1.1-0.2c0.4-0.1,0.8-0.4,1.3-0.7c0.4-0.3,0.8-0.8,1.2-1.3c0.4-0.5,0.7-1.2,1-2
			c0.3-0.8,0.5-1.7,0.8-2.7c0.3-1,0.5-2,0.7-3.1c0.2-1.1,0.4-2.1,0.6-3.2c0.2-1,0.3-2,0.4-2.8c0.4,0.1,0.7,0.1,1.1,0.1
			c0.4,0,0.9,0.1,1.5,0.1c0.7,0,1.2,0,1.7-0.1c0.4,0,0.8-0.1,1.2-0.1c-0.5,1.8-0.9,3.6-1.3,5.2c-0.4,1.6-0.7,3.1-1,4.6
			c-0.3,1.5-0.6,2.9-0.8,4.3c-0.3,1.4-0.5,2.8-0.8,4.2c-0.4-0.1-0.8-0.1-1.1-0.1c-0.4,0-0.8,0-1.4,0c-0.6,0-1.1,0-1.5,0
			c-0.4,0-0.8,0-1.2,0.1c0.2-0.5,0.4-1,0.5-1.4c0.1-0.4,0.2-0.9,0.4-1.6c-0.2,0.3-0.5,0.6-0.9,1c-0.4,0.4-0.8,0.8-1.4,1.2
			c-0.6,0.4-1.2,0.7-2,0.9c-0.8,0.2-1.7,0.4-2.7,0.4c-1.5,0-2.7-0.3-3.5-1c-0.8-0.7-1.2-1.6-1.2-2.8
			C410.6,529.5,410.7,528.8,410.9,528.1z"/>
		<path fill="#94959B" d="M446.9,530.9c-0.1,0.4-0.3,0.9-0.5,1.6c-0.8,0.6-1.7,1-2.7,1.1c-1,0.2-2,0.3-3,0.3c-1.5,0-2.8-0.2-3.9-0.7
			c-1.1-0.4-2-1.1-2.7-1.9c-0.7-0.8-1.2-1.7-1.6-2.7c-0.3-1-0.5-2.1-0.5-3.2c0-1.3,0.2-2.5,0.6-3.8c0.4-1.2,1.1-2.4,1.9-3.4
			c0.8-1,1.9-1.8,3.1-2.4c1.3-0.6,2.7-0.9,4.4-0.9c2.4,0,4.2,0.6,5.4,1.9c1.2,1.3,1.8,2.9,1.8,5c0,0.5,0,1-0.1,1.5
			c-0.1,0.5-0.1,1-0.2,1.5c-1.6-0.1-3-0.1-4.1-0.1c-1.1,0-2.1,0-2.9,0h-1.8c-0.3,0-0.7,0-1.2,0c-0.4,0-0.9,0-1.5,0
			c-0.1,0.3-0.1,0.6-0.1,1c0,0.4,0,0.7,0,1.1c0,1.5,0.4,2.8,1.1,3.7c0.7,0.9,1.9,1.4,3.5,1.4c0.7,0,1.5-0.2,2.4-0.5
			c0.9-0.3,1.7-0.9,2.4-1.6l0.6,0.3C447.1,530.2,447,530.5,446.9,530.9z M444,517.5c-0.3-0.6-1-0.9-1.9-0.9c-0.6,0-1.2,0.2-1.7,0.5
			c-0.5,0.4-0.9,0.8-1.2,1.4c-0.3,0.6-0.6,1.3-0.9,2c-0.2,0.8-0.4,1.5-0.6,2.3c0.2,0,0.4,0,0.7,0.1c0.2,0,0.4,0,0.7,0h1.4h1.6
			c0.3,0,0.6,0,1,0c0.4,0,0.7,0,1.1-0.1c0.1-0.3,0.2-0.8,0.3-1.3c0.1-0.6,0.1-1.2,0.1-1.8C444.5,518.8,444.3,518.1,444,517.5z"/>
		<path fill="#94959B" d="M457.9,504.9c0.5,0,1,0.1,1.6,0.1c0.5,0,1,0,1.5,0c0.4,0,0.9-0.1,1.4-0.2c-0.3,1.2-0.6,2.4-0.9,3.5
			c-0.3,1.1-0.6,2.2-0.8,3.3c-0.3,1.1-0.6,2.3-0.8,3.4c-0.3,1.2-0.6,2.5-0.9,3.9c-0.5,2.5-1,4.9-1.5,7.3c-0.5,2.4-1,4.9-1.4,7.4
			c-0.4-0.1-0.9-0.1-1.4-0.1c-0.5,0-1,0-1.6,0c-0.5,0-1,0-1.5,0c-0.5,0-0.9,0-1.5,0.1c0.4-1.1,0.7-2.5,1.2-4.1
			c0.4-1.6,0.8-3.3,1.2-5.1c0.4-1.8,0.8-3.6,1.2-5.5c0.4-1.9,0.8-3.7,1.1-5.4c0.4-1.7,0.7-3.4,1-4.9c0.3-1.5,0.5-2.8,0.7-3.9
			C456.9,504.8,457.4,504.9,457.9,504.9z"/>
		<path fill="#94959B" d="M476.8,533.7c-0.5,0.2-1.1,0.3-1.9,0.3c-0.7,0-1.3-0.1-1.7-0.3c-0.5-0.2-0.8-0.4-1.1-0.7
			c-0.3-0.3-0.4-0.6-0.6-0.9c-0.1-0.3-0.2-0.6-0.2-0.8c-0.6,1.1-1.3,1.8-2.1,2.2c-0.8,0.4-1.8,0.6-3.1,0.6c-1.5,0-2.8-0.4-3.7-1.3
			c-0.9-0.9-1.4-2.1-1.4-3.6c0-1.2,0.4-2.4,1.1-3.4c0.7-1,1.7-1.8,3-2.2c0.6-0.2,1.3-0.3,2.2-0.5c0.9-0.1,1.7-0.2,2.5-0.3
			c0.6-0.1,1.1-0.1,1.4-0.2c0.4-0.1,0.7-0.2,0.9-0.3c0.2-0.2,0.4-0.4,0.5-0.7c0.1-0.3,0.1-0.7,0.1-1.2c0-0.6-0.1-1.1-0.3-1.4
			c-0.2-0.4-0.5-0.7-0.8-0.9c-0.3-0.2-0.7-0.4-1.1-0.5c-0.4-0.1-0.8-0.1-1.2-0.1c-0.8,0-1.5,0.1-2.2,0.4c-0.7,0.3-1.3,0.6-1.9,1.1
			h-0.2c0.1-0.5,0.1-0.9,0.1-1.2c0-0.3,0.1-0.6,0.1-1c2.1-1.2,4.3-1.8,6.7-1.8c0.7,0,1.5,0.1,2.2,0.2c0.7,0.2,1.3,0.4,1.9,0.8
			c0.6,0.4,1,0.8,1.4,1.4c0.3,0.6,0.5,1.3,0.5,2.2c0,0.6-0.1,1.2-0.2,1.8c-0.1,0.7-0.2,1.2-0.3,1.6l-1,4.8c-0.2,0.9-0.3,1.5-0.4,2
			c0,0.4-0.1,0.8-0.1,1c0,0.3,0.1,0.6,0.2,1c0.1,0.4,0.4,0.5,0.8,0.5c0.1,0,0.2,0,0.3-0.1c0.1-0.1,0.2-0.1,0.3-0.2l0.3,0.9
			C477.7,533.3,477.3,533.5,476.8,533.7z M466.9,530.8c0.3,0.5,0.8,0.8,1.6,0.8c0.6,0,1.1-0.2,1.5-0.5c0.4-0.3,0.7-0.7,0.9-1.2
			c0.2-0.5,0.4-1,0.6-1.5c0.1-0.6,0.2-1.1,0.3-1.6l0.6-2.9c-1.1,0.2-2,0.3-2.6,0.5c-0.6,0.2-1.1,0.4-1.6,0.7c-0.6,0.4-1.1,1-1.3,1.7
			c-0.3,0.8-0.4,1.5-0.4,2.2C466.4,529.7,466.6,530.3,466.9,530.8z"/>
		<path fill="#94959B" d="M507.9,520.7c0.7,0.3,1.3,0.6,1.8,1.1c0.5,0.5,0.9,1.1,1.2,1.8c0.3,0.7,0.4,1.5,0.4,2.4
			c0,0.5-0.1,1-0.2,1.6c-0.1,0.6-0.3,1.1-0.6,1.6c-0.3,0.5-0.6,1-1.1,1.5c-0.4,0.5-1,0.9-1.6,1.3c-0.7,0.4-1.4,0.7-2.1,0.9
			c-0.7,0.2-1.4,0.4-2,0.4c-0.6,0.1-1.2,0.1-1.8,0.1c-0.5,0-1,0-1.3,0c-0.2,0-0.6,0-1.1,0c-0.5,0-1.1,0-1.7,0c-0.6,0-1.1,0-1.6,0
			c-0.5,0-0.9,0-1.1,0c-0.6,0-1.2,0-1.7,0c-0.6,0-1.2,0-1.7,0.1c0.5-1.5,0.9-3.2,1.3-5c0.4-1.8,0.8-3.6,1.2-5.4
			c0.4-1.8,0.8-3.5,1.1-5.2c0.3-1.7,0.6-3.3,0.9-4.7c0.3-1.4,0.5-2.6,0.6-3.7c0.2-1,0.3-1.8,0.3-2.2c0.5,0,0.9,0.1,1.4,0.1
			c0.5,0,1,0.1,1.8,0.1c0.2,0,0.6,0,1.2,0c0.6,0,1.1,0,1.7-0.1c0.6,0,1.2,0,1.7-0.1c0.5,0,0.9,0,1.1,0c0.2,0,0.6,0,1,0
			c0.4,0,0.9,0.1,1.5,0.2c0.5,0.1,1.1,0.3,1.6,0.5c0.5,0.2,1,0.5,1.5,0.9c0.4,0.4,0.8,0.9,1.1,1.5c0.3,0.6,0.4,1.3,0.4,2.2
			c0,0.4-0.1,0.9-0.2,1.6c-0.1,0.7-0.4,1.4-0.9,2.1c-0.5,0.7-1.3,1.4-2.3,2c-1,0.6-2.4,1.1-4.2,1.3v0.4
			C506.5,520.3,507.2,520.4,507.9,520.7z M505.3,523.5c-0.2-0.7-0.5-1.3-1.1-1.8c-0.5-0.4-1-0.7-1.6-0.7c-0.6-0.1-1.4-0.1-2.4-0.1
			c-0.2,0.7-0.3,1.6-0.6,2.6c-0.2,1-0.4,2-0.7,3c-0.2,1-0.4,2-0.6,2.9c-0.2,0.9-0.3,1.7-0.4,2.3c0.2,0,0.4,0,0.5,0.1
			c0.2,0,0.3,0,0.4,0h0.8c0.9,0,1.8-0.2,2.5-0.5c0.7-0.3,1.3-0.8,1.8-1.4c0.5-0.6,0.8-1.3,1.1-2c0.2-0.8,0.4-1.6,0.4-2.5
			C505.5,524.8,505.5,524.2,505.3,523.5z M507.4,511.3c-0.2-0.4-0.5-0.8-0.8-1.1c-0.3-0.3-0.7-0.4-1.2-0.5c-0.4-0.1-0.9-0.1-1.4-0.1
			h-0.7c-0.1,0-0.2,0-0.4,0c-0.1,0-0.2,0-0.4,0.1c-0.2,0.7-0.4,1.6-0.6,2.4c-0.2,0.9-0.4,1.7-0.6,2.6c-0.2,0.8-0.3,1.6-0.5,2.4
			c-0.1,0.7-0.2,1.3-0.3,1.7c0.1,0,0.2,0,0.3,0c0.1,0,0.3,0,0.4,0h0.8c1.8,0,3.1-0.5,4.1-1.5c1-1,1.5-2.4,1.5-4.2
			C507.7,512.4,507.6,511.8,507.4,511.3z"/>
		<path fill="#94959B" d="M530,533.7c-0.4,0.2-1.1,0.3-1.9,0.3c-0.7,0-1.3-0.1-1.7-0.3c-0.4-0.2-0.8-0.4-1.1-0.7
			c-0.3-0.3-0.4-0.6-0.6-0.9c-0.1-0.3-0.2-0.6-0.2-0.8c-0.6,1.1-1.3,1.8-2.1,2.2c-0.8,0.4-1.8,0.6-3.1,0.6c-1.5,0-2.8-0.4-3.7-1.3
			c-0.9-0.9-1.4-2.1-1.4-3.6c0-1.2,0.3-2.4,1-3.4c0.7-1,1.7-1.8,3-2.2c0.6-0.2,1.3-0.3,2.2-0.5c0.9-0.1,1.7-0.2,2.5-0.3
			c0.6-0.1,1.1-0.1,1.4-0.2c0.4-0.1,0.7-0.2,0.9-0.3c0.2-0.2,0.4-0.4,0.5-0.7c0.1-0.3,0.1-0.7,0.1-1.2c0-0.6-0.1-1.1-0.3-1.4
			c-0.2-0.4-0.5-0.7-0.8-0.9c-0.3-0.2-0.7-0.4-1.1-0.5c-0.4-0.1-0.8-0.1-1.2-0.1c-0.8,0-1.5,0.1-2.2,0.4c-0.7,0.3-1.3,0.6-1.9,1.1
			h-0.2c0-0.5,0.1-0.9,0.1-1.2c0-0.3,0-0.6,0.1-1c2.1-1.2,4.3-1.8,6.7-1.8c0.7,0,1.5,0.1,2.2,0.2c0.7,0.2,1.3,0.4,1.9,0.8
			c0.6,0.4,1,0.8,1.4,1.4c0.3,0.6,0.5,1.3,0.5,2.2c0,0.6-0.1,1.2-0.2,1.8c-0.1,0.7-0.2,1.2-0.3,1.6l-1,4.8c-0.2,0.9-0.3,1.5-0.4,2
			c-0.1,0.4-0.1,0.8-0.1,1c0,0.3,0.1,0.6,0.2,1c0.1,0.4,0.4,0.5,0.8,0.5c0.1,0,0.2,0,0.3-0.1c0.1-0.1,0.2-0.1,0.3-0.2l0.3,0.9
			C530.9,533.3,530.5,533.5,530,533.7z M520.1,530.8c0.3,0.5,0.8,0.8,1.6,0.8c0.6,0,1.1-0.2,1.5-0.5c0.4-0.3,0.7-0.7,0.9-1.2
			c0.2-0.5,0.4-1,0.6-1.5c0.1-0.6,0.2-1.1,0.3-1.6l0.6-2.9c-1.2,0.2-2,0.3-2.6,0.5c-0.6,0.2-1.1,0.4-1.6,0.7c-0.6,0.4-1,1-1.3,1.7
			c-0.3,0.8-0.4,1.5-0.4,2.2C519.6,529.7,519.8,530.3,520.1,530.8z"/>
		<path fill="#94959B" d="M552.9,519.9c0,0.3-0.1,0.7-0.2,1.2c-0.1,0.5-0.2,1-0.4,1.7c-0.2,0.7-0.4,1.5-0.6,2.6
			c-0.2,0.9-0.4,1.8-0.6,2.5c-0.2,0.7-0.3,1.4-0.4,2c-0.1,0.6-0.2,1.3-0.3,1.9c-0.1,0.6-0.2,1.2-0.3,1.9c-0.4-0.1-0.9-0.1-1.3-0.1
			c-0.4,0-0.9,0-1.5,0c-0.5,0-1,0-1.5,0c-0.5,0-0.9,0-1.4,0.1c0.1-0.2,0.3-0.7,0.5-1.4c0.2-0.7,0.5-1.5,0.7-2.4
			c0.3-0.9,0.5-1.9,0.8-2.9c0.3-1,0.5-2,0.7-2.9c0.2-0.9,0.4-1.7,0.6-2.5c0.2-0.7,0.2-1.3,0.2-1.6c0-0.7-0.2-1.3-0.6-1.6
			c-0.4-0.4-0.9-0.5-1.6-0.5c-0.9,0-1.8,0.4-2.7,1.2c-0.9,0.8-1.6,2-2.2,3.7c-0.2,0.6-0.4,1.4-0.6,2.3c-0.2,0.9-0.5,1.8-0.7,2.8
			c-0.2,1-0.4,2-0.6,3c-0.2,1-0.4,2-0.5,2.9c-0.4-0.1-0.9-0.1-1.3-0.1c-0.4,0-0.9,0-1.3,0c-0.5,0-0.9,0-1.4,0c-0.5,0-0.9,0-1.4,0.1
			c0.3-1.2,0.7-2.4,1-3.7c0.3-1.3,0.7-2.7,1-4.2c0.3-1.5,0.7-3.1,1-4.8c0.3-1.7,0.7-3.6,1.1-5.7c0.4,0.1,0.8,0.1,1.3,0.1
			c0.5,0,1,0.1,1.4,0.1c0.4,0,0.9,0,1.3-0.1c0.4,0,0.8-0.1,1.2-0.1c-0.1,0.3-0.2,0.6-0.3,0.9c-0.1,0.2-0.1,0.5-0.2,0.7
			c0,0.2-0.1,0.5-0.2,0.7c-0.1,0.3-0.1,0.6-0.2,0.9c0.9-1.1,1.9-2,3-2.7c1.1-0.6,2.4-0.9,3.9-0.9c1.6,0,2.8,0.4,3.5,1.1
			c0.8,0.8,1.1,1.7,1.1,2.9C552.9,519.3,552.9,519.6,552.9,519.9z"/>
		<path fill="#94959B" d="M570.6,519.1c-0.2-0.6-0.5-1-0.9-1.4c-0.4-0.4-0.8-0.6-1.3-0.8c-0.5-0.2-0.9-0.2-1.4-0.2
			c-0.8,0-1.5,0.2-2.2,0.5c-0.6,0.4-1.2,0.8-1.7,1.4c-0.5,0.6-0.9,1.2-1.2,1.9c-0.3,0.7-0.6,1.4-0.8,2.2c-0.2,0.7-0.4,1.4-0.5,2.1
			c-0.1,0.7-0.1,1.3-0.1,1.7c0,0.6,0.1,1.2,0.3,1.9c0.2,0.6,0.5,1.2,0.8,1.7c0.4,0.5,0.9,0.9,1.5,1.2c0.6,0.3,1.4,0.5,2.2,0.5
			c0.9,0,1.7-0.2,2.3-0.5c0.6-0.3,1.2-0.7,1.7-1.2l0.5,0.4c-0.4,0.7-0.7,1.2-0.9,1.6c-0.2,0.4-0.3,0.8-0.3,1.1
			c-0.8,0.2-1.6,0.4-2.3,0.6c-0.7,0.1-1.5,0.2-2.3,0.2c-1.3,0-2.5-0.2-3.6-0.5c-1.1-0.3-2.1-0.9-2.9-1.6c-0.8-0.7-1.5-1.6-1.9-2.7
			c-0.5-1.1-0.7-2.3-0.7-3.6c0-1.2,0.2-2.5,0.6-3.8c0.4-1.3,1.1-2.4,2-3.5c0.9-1,2.1-1.9,3.5-2.5c1.4-0.7,3.1-1,5-1
			c0.9,0,1.8,0.1,2.5,0.2c0.7,0.1,1.4,0.3,2,0.5c0.6,0.2,1.2,0.4,1.6,0.7c0.5,0.2,0.9,0.5,1.3,0.7c-0.2,0.3-0.3,0.6-0.5,0.8
			c-0.2,0.3-0.3,0.6-0.5,0.9c-0.2,0.3-0.3,0.7-0.5,1c-0.1,0.4-0.3,0.8-0.5,1.4h-0.9C570.9,520.3,570.8,519.7,570.6,519.1z"/>
		<path fill="#94959B" d="M588.9,533.7c-0.4,0.2-1.1,0.3-1.9,0.3c-0.7,0-1.3-0.1-1.7-0.3c-0.4-0.2-0.8-0.4-1.1-0.7
			c-0.3-0.3-0.4-0.6-0.6-0.9c-0.1-0.3-0.2-0.6-0.2-0.8c-0.6,1.1-1.3,1.8-2.1,2.2c-0.8,0.4-1.8,0.6-3.1,0.6c-1.5,0-2.8-0.4-3.7-1.3
			c-0.9-0.9-1.4-2.1-1.4-3.6c0-1.2,0.4-2.4,1.1-3.4c0.7-1,1.7-1.8,3-2.2c0.6-0.2,1.3-0.3,2.2-0.5c0.9-0.1,1.7-0.2,2.5-0.3
			c0.6-0.1,1.1-0.1,1.4-0.2c0.4-0.1,0.7-0.2,0.9-0.3c0.2-0.2,0.4-0.4,0.5-0.7c0.1-0.3,0.1-0.7,0.1-1.2c0-0.6-0.1-1.1-0.3-1.4
			c-0.2-0.4-0.5-0.7-0.8-0.9c-0.3-0.2-0.7-0.4-1.1-0.5c-0.4-0.1-0.8-0.1-1.2-0.1c-0.8,0-1.5,0.1-2.2,0.4c-0.6,0.3-1.3,0.6-1.9,1.1
			h-0.2c0-0.5,0.1-0.9,0.1-1.2c0-0.3,0-0.6,0.1-1c2.1-1.2,4.3-1.8,6.7-1.8c0.7,0,1.5,0.1,2.2,0.2c0.7,0.2,1.3,0.4,1.9,0.8
			c0.6,0.4,1,0.8,1.4,1.4c0.3,0.6,0.5,1.3,0.5,2.2c0,0.6-0.1,1.2-0.2,1.8c-0.1,0.7-0.2,1.2-0.3,1.6l-1,4.8c-0.2,0.9-0.3,1.5-0.4,2
			c-0.1,0.4-0.1,0.8-0.1,1c0,0.3,0.1,0.6,0.2,1c0.1,0.4,0.4,0.5,0.8,0.5c0.1,0,0.2,0,0.3-0.1c0.1-0.1,0.2-0.1,0.3-0.2l0.3,0.9
			C589.7,533.3,589.3,533.5,588.9,533.7z M578.9,530.8c0.3,0.5,0.8,0.8,1.6,0.8c0.6,0,1.1-0.2,1.5-0.5c0.4-0.3,0.7-0.7,0.9-1.2
			c0.2-0.5,0.4-1,0.6-1.5c0.1-0.6,0.2-1.1,0.3-1.6l0.6-2.9c-1.1,0.2-2,0.3-2.6,0.5c-0.6,0.2-1.1,0.4-1.6,0.7c-0.6,0.4-1.1,1-1.3,1.7
			c-0.3,0.8-0.4,1.5-0.4,2.2C578.5,529.7,578.6,530.3,578.9,530.8z"/>
		<path fill="#94959B" d="M605.2,519.9c-0.3-0.1-0.7-0.2-1.2-0.2c-0.8,0-1.4,0.1-2,0.4c-0.5,0.3-1,0.7-1.3,1.1
			c-0.3,0.4-0.6,0.9-0.8,1.4c-0.2,0.5-0.3,0.9-0.4,1.4c-0.2,0.8-0.5,2-0.8,3.5c-0.3,1.5-0.7,3.5-1.2,6.1c-0.4-0.1-0.8-0.1-1.3-0.1
			c-0.5,0-1,0-1.5,0c-0.5,0-1,0-1.4,0c-0.5,0-0.9,0-1.3,0.1c0.9-3.1,1.6-6.2,2.4-9.4c0.7-3.1,1.3-6.1,1.7-8.9
			c0.4,0.1,0.7,0.1,1.2,0.1c0.4,0,0.9,0.1,1.4,0.1c0.5,0,0.9,0,1.3-0.1c0.4,0,0.7-0.1,1.1-0.1c-0.2,0.7-0.3,1.4-0.5,2.1
			c-0.1,0.7-0.3,1.4-0.5,2.1c0.1-0.3,0.4-0.7,0.7-1.2c0.3-0.5,0.7-1,1.2-1.6c0.5-0.5,1-0.9,1.7-1.3c0.6-0.4,1.4-0.6,2.1-0.6
			c0.4,0,0.7,0,0.9,0.1c0.3,0.1,0.5,0.2,0.7,0.3c-0.5,0.9-0.8,1.7-0.9,2.4c-0.2,0.7-0.3,1.5-0.3,2.4l-0.3,0.1
			C605.7,520.2,605.5,520,605.2,519.9z"/>
		<path fill="#94959B" d="M612.4,515.4c0.5,0,1,0.1,1.5,0.1c0.7,0,1.2,0,1.7-0.1c0.4,0,0.9-0.1,1.2-0.1c-0.3,0.8-0.6,2-1,3.5
			c-0.4,1.5-0.8,3.2-1.2,5c-0.4,1.8-0.8,3.6-1.1,5.3c-0.3,1.8-0.6,3.2-0.7,4.4c-0.4-0.1-0.9-0.1-1.3-0.1c-0.5,0-1,0-1.5,0
			c-0.6,0-1.1,0-1.6,0c-0.5,0-0.9,0-1.3,0.1c0.4-1.3,0.8-2.8,1.2-4.5c0.4-1.7,0.8-3.4,1.2-5.1c0.4-1.7,0.7-3.4,1-4.9
			c0.3-1.5,0.5-2.8,0.6-3.8C611.4,515.4,611.9,515.4,612.4,515.4z M613,506.2c0.6-0.6,1.2-0.9,2.1-0.9c0.8,0,1.5,0.3,2.1,0.8
			c0.6,0.6,0.8,1.2,0.8,2.1c0,0.8-0.3,1.5-0.8,2.1c-0.6,0.6-1.3,0.8-2.1,0.8c-0.8,0-1.5-0.3-2.1-0.9c-0.6-0.6-0.8-1.3-0.8-2.1
			C612.2,507.4,612.5,506.8,613,506.2z"/>
		<path fill="#94959B" d="M633.6,533.7c-0.5,0.2-1.1,0.3-1.9,0.3c-0.7,0-1.3-0.1-1.7-0.3c-0.4-0.2-0.8-0.4-1.1-0.7
			c-0.3-0.3-0.4-0.6-0.6-0.9c-0.1-0.3-0.2-0.6-0.2-0.8c-0.6,1.1-1.3,1.8-2.1,2.2c-0.8,0.4-1.8,0.6-3.1,0.6c-1.5,0-2.8-0.4-3.7-1.3
			c-0.9-0.9-1.4-2.1-1.4-3.6c0-1.2,0.3-2.4,1.1-3.4c0.7-1,1.7-1.8,3-2.2c0.6-0.2,1.3-0.3,2.2-0.5c0.9-0.1,1.7-0.2,2.5-0.3
			c0.6-0.1,1.1-0.1,1.4-0.2c0.4-0.1,0.7-0.2,0.9-0.3c0.2-0.2,0.4-0.4,0.5-0.7c0.1-0.3,0.1-0.7,0.1-1.2c0-0.6-0.1-1.1-0.3-1.4
			c-0.2-0.4-0.5-0.7-0.8-0.9c-0.3-0.2-0.7-0.4-1.1-0.5c-0.4-0.1-0.8-0.1-1.2-0.1c-0.8,0-1.5,0.1-2.2,0.4c-0.7,0.3-1.3,0.6-1.9,1.1
			H622c0-0.5,0.1-0.9,0.1-1.2c0-0.3,0-0.6,0.1-1c2.1-1.2,4.3-1.8,6.7-1.8c0.7,0,1.5,0.1,2.2,0.2c0.7,0.2,1.3,0.4,1.9,0.8
			c0.6,0.4,1,0.8,1.4,1.4c0.3,0.6,0.5,1.3,0.5,2.2c0,0.6-0.1,1.2-0.2,1.8c-0.1,0.7-0.2,1.2-0.3,1.6l-1,4.8c-0.2,0.9-0.3,1.5-0.4,2
			c-0.1,0.4-0.1,0.8-0.1,1c0,0.3,0.1,0.6,0.2,1c0.1,0.4,0.4,0.5,0.8,0.5c0.1,0,0.2,0,0.3-0.1c0.1-0.1,0.2-0.1,0.3-0.2l0.3,0.9
			C634.4,533.3,634,533.5,633.6,533.7z M623.6,530.8c0.3,0.5,0.8,0.8,1.6,0.8c0.6,0,1.1-0.2,1.5-0.5c0.4-0.3,0.7-0.7,0.9-1.2
			c0.2-0.5,0.4-1,0.6-1.5c0.1-0.6,0.2-1.1,0.3-1.6l0.6-2.9c-1.1,0.2-2,0.3-2.6,0.5c-0.6,0.2-1.1,0.4-1.6,0.7c-0.6,0.4-1,1-1.3,1.7
			c-0.3,0.8-0.4,1.5-0.4,2.2C623.2,529.7,623.3,530.3,623.6,530.8z"/>
		<path fill="#94959B" d="M666.3,516.5c-0.2,0.3-0.4,0.6-0.7,1c-0.2,0.3-0.5,0.7-0.7,1.1c-0.3,0.4-0.5,0.9-0.9,1.5
			c-2.5,3.9-4.9,7.8-7.2,11.6c-2.4,3.8-4.7,7.7-6.9,11.7c-0.3,0-0.6-0.1-0.9-0.1c-0.3,0-0.6-0.1-1-0.1c-0.6,0-1.2,0.1-1.7,0.2
			c0.5-0.7,1.1-1.6,1.7-2.5c0.7-0.9,1.3-1.8,1.9-2.8c0.6-0.9,1.2-1.8,1.8-2.6c0.6-0.8,1-1.5,1.3-2c-0.1-0.6-0.3-1.5-0.4-2.5
			c-0.2-1-0.3-2.1-0.5-3.2c-0.2-1.1-0.4-2.3-0.6-3.4c-0.2-1.1-0.4-2.2-0.5-3.1c-0.2-1-0.4-2-0.6-3c-0.2-1-0.4-2-0.6-3
			c0.4,0.1,0.7,0.1,1.2,0.1c0.4,0,0.9,0.1,1.4,0.1c0.5,0,1,0,1.4-0.1c0.5,0,0.9-0.1,1.3-0.1c0.3,2.2,0.5,4.3,0.8,6.4
			c0.3,2,0.6,4.1,0.9,6.2c0.3-0.4,0.7-1.1,1.3-2.1c0.6-1,1.2-2.1,1.9-3.4c0.7-1.2,1.4-2.5,2.1-3.8c0.7-1.3,1.3-2.4,1.7-3.3
			c0.2,0.1,0.4,0.1,0.7,0.1c0.2,0,0.5,0.1,0.8,0.1c0.3,0,0.6,0,0.9-0.1c0.2,0,0.5-0.1,0.7-0.1l0,0.2
			C666.7,515.9,666.5,516.2,666.3,516.5z"/>
		<path fill="#94959B" d="M699.3,510c-1.1-0.6-2.4-0.8-3.9-0.8c-1.9,0-3.5,0.5-4.9,1.4c-1.3,0.9-2.4,2.1-3.2,3.5
			c-0.8,1.4-1.4,3-1.8,4.7c-0.4,1.7-0.6,3.4-0.6,5c0,2.5,0.6,4.5,1.9,5.9c1.3,1.5,3.2,2.2,5.7,2.2c1.2,0,2.4-0.2,3.6-0.5
			c1.1-0.4,2.2-0.9,3.1-1.7l0.3,0.3c-0.3,0.6-0.5,1.1-0.7,1.5c-0.2,0.5-0.4,1-0.7,1.6c-0.8,0.3-1.7,0.5-2.5,0.7
			c-0.9,0.2-1.9,0.2-3.3,0.2c-2.6,0-4.8-0.4-6.5-1.1c-1.7-0.7-3.1-1.7-4.1-2.8c-1-1.2-1.7-2.5-2.1-3.9c-0.4-1.4-0.6-2.8-0.6-4.2
			c0-2.1,0.4-4.1,1.2-5.9c0.8-1.8,1.9-3.4,3.3-4.8c1.4-1.4,3.1-2.4,5-3.2c1.9-0.8,4.1-1.2,6.4-1.2c1.3,0,2.4,0.1,3.4,0.3
			c1,0.2,1.9,0.4,2.6,0.6c0.8,0.2,1.4,0.5,2,0.8c0.6,0.3,1,0.5,1.4,0.7c-0.4,0.6-0.8,1.2-1.1,1.8c-0.3,0.6-0.5,1.2-0.7,1.6h-0.4
			C701.3,511.5,700.4,510.6,699.3,510z"/>
		<path fill="#94959B" d="M704.1,521.7c0.6-1.4,1.4-2.5,2.4-3.5c1-1,2.2-1.8,3.5-2.4c1.4-0.6,2.8-0.9,4.4-0.9c1.4,0,2.6,0.2,3.6,0.6
			c1,0.4,1.9,1,2.6,1.7c0.7,0.7,1.2,1.6,1.6,2.6c0.4,1,0.5,2.1,0.5,3.4c0,1.6-0.3,3-0.9,4.3c-0.6,1.3-1.4,2.5-2.5,3.5
			c-1,1-2.2,1.8-3.6,2.3c-1.4,0.5-2.8,0.8-4.3,0.8c-1.2,0-2.3-0.2-3.3-0.6c-1-0.4-1.9-0.9-2.6-1.6c-0.7-0.7-1.3-1.6-1.6-2.6
			c-0.4-1-0.6-2.1-0.6-3.3C703.2,524.5,703.5,523.1,704.1,521.7z M708.6,529.7c0.1,0.6,0.2,1.1,0.4,1.5c0.2,0.4,0.5,0.8,0.9,1.1
			c0.4,0.3,0.9,0.4,1.5,0.4c0.7,0,1.4-0.2,2-0.6c0.6-0.4,1.1-1,1.5-1.7c0.4-0.7,0.8-1.5,1.1-2.3c0.3-0.9,0.6-1.7,0.7-2.6
			c0.2-0.9,0.3-1.7,0.4-2.5c0.1-0.8,0.1-1.4,0.1-1.9c0-0.5,0-1.1-0.1-1.6c-0.1-0.6-0.2-1.1-0.4-1.5c-0.2-0.4-0.5-0.8-0.9-1.1
			c-0.4-0.3-0.9-0.4-1.6-0.4c-0.7,0-1.4,0.2-2,0.6c-0.6,0.4-1.1,1-1.5,1.7c-0.4,0.7-0.8,1.5-1.1,2.3c-0.3,0.9-0.6,1.7-0.7,2.6
			c-0.2,0.9-0.3,1.7-0.4,2.4c-0.1,0.8-0.1,1.4-0.1,1.9C708.4,528.6,708.5,529.1,708.6,529.7z"/>
		<path fill="#94959B" d="M728.8,515.4c0.4,0,0.9,0.1,1.4,0.1c0.6,0,1,0,1.4-0.1c0.4,0,0.8-0.1,1.1-0.1c-0.2,0.5-0.3,1-0.4,1.4
			c-0.1,0.5-0.2,0.9-0.3,1.4c0.2-0.3,0.5-0.6,0.9-1c0.4-0.4,0.8-0.7,1.3-1.1c0.5-0.3,1.1-0.6,1.8-0.9c0.7-0.2,1.5-0.4,2.4-0.4
			c1.2,0,2.2,0.3,3,0.9c0.8,0.6,1.3,1.5,1.6,2.7c0.8-1,1.8-1.9,2.9-2.6c1.1-0.7,2.3-1,3.6-1c0.5,0,1.1,0.1,1.7,0.2
			c0.6,0.2,1.1,0.4,1.6,0.8c0.5,0.3,0.9,0.8,1.1,1.3c0.3,0.6,0.4,1.2,0.4,2c0,0.3,0,0.7,0,1c0,0.3-0.1,0.7-0.2,1.1
			c-0.1,0.4-0.2,0.9-0.3,1.5c-0.1,0.6-0.3,1.3-0.5,2.2c0,0.2-0.2,0.6-0.3,1.3c-0.2,0.7-0.3,1.5-0.5,2.4c-0.2,0.9-0.4,1.8-0.6,2.8
			c-0.2,0.9-0.3,1.7-0.4,2.2c-0.4-0.1-0.9-0.1-1.3-0.1c-0.4,0-0.9,0-1.4,0c-0.7,0-1.2,0-1.6,0c-0.4,0-0.8,0-1.2,0.1
			c0.4-1.1,0.7-2.4,1.1-3.8c0.4-1.4,0.8-2.8,1.1-4.1c0.3-1.3,0.6-2.5,0.8-3.5c0.2-1,0.3-1.8,0.3-2.2c0-0.6-0.2-1.1-0.5-1.5
			c-0.4-0.4-0.9-0.6-1.6-0.6c-0.3,0-0.6,0-1,0.2c-0.4,0.1-0.8,0.3-1.2,0.7c-0.4,0.3-0.9,0.8-1.3,1.5c-0.4,0.7-0.8,1.5-1.1,2.7
			c-0.3,0.9-0.6,2.3-1.1,4.2c-0.4,1.9-0.9,4.1-1.3,6.6c-0.4-0.1-0.9-0.1-1.4-0.1c-0.5,0-1,0-1.6,0c-0.5,0-0.9,0-1.3,0
			c-0.4,0-0.8,0-1.2,0.1c0.3-1,0.7-2.2,1-3.6c0.4-1.4,0.7-2.8,1.1-4.2c0.3-1.4,0.6-2.6,0.8-3.7c0.2-1.1,0.3-1.9,0.3-2.3
			c0-0.7-0.2-1.2-0.6-1.5c-0.4-0.3-0.9-0.5-1.5-0.5c-1.1,0-2,0.4-2.8,1.2c-0.8,0.8-1.4,2-1.9,3.5c-0.1,0.2-0.2,0.6-0.3,1.2
			c-0.2,0.6-0.3,1.4-0.6,2.3c-0.2,0.9-0.5,2-0.7,3.3c-0.3,1.3-0.5,2.6-0.7,4.1c-0.4-0.1-0.9-0.1-1.3-0.1c-0.5,0-0.9,0-1.4,0
			c-0.5,0-1,0-1.4,0c-0.4,0-0.9,0-1.3,0.1c0.3-1.2,0.6-2.2,0.9-3.2c0.2-1,0.5-1.9,0.7-3c0.2-1,0.5-2.1,0.7-3.4
			c0.3-1.2,0.6-2.8,1-4.6c0.1-0.7,0.2-1.2,0.3-1.6c0.1-0.4,0.1-0.8,0.2-1.1c0.1-0.3,0.1-0.6,0.2-0.8c0-0.2,0.1-0.5,0.1-0.7
			C728,515.4,728.4,515.4,728.8,515.4z"/>
		<path fill="#94959B" d="M771.7,530.9c-0.1,0.4-0.3,0.9-0.5,1.6c-0.8,0.6-1.7,1-2.7,1.1c-1,0.2-2,0.3-3,0.3c-1.5,0-2.8-0.2-3.9-0.7
			c-1.1-0.4-2-1.1-2.7-1.9c-0.7-0.8-1.2-1.7-1.6-2.7c-0.3-1-0.5-2.1-0.5-3.2c0-1.3,0.2-2.5,0.6-3.8c0.4-1.2,1.1-2.4,1.9-3.4
			c0.8-1,1.9-1.8,3.1-2.4c1.3-0.6,2.7-0.9,4.4-0.9c2.4,0,4.2,0.6,5.4,1.9c1.2,1.3,1.8,2.9,1.8,5c0,0.5,0,1-0.1,1.5
			c-0.1,0.5-0.1,1-0.2,1.5c-1.6-0.1-3-0.1-4.1-0.1c-1.1,0-2.1,0-2.9,0H765c-0.3,0-0.7,0-1.2,0c-0.4,0-0.9,0-1.5,0
			c0,0.3-0.1,0.6-0.1,1c0,0.4,0,0.7,0,1.1c0,1.5,0.4,2.8,1.1,3.7c0.7,0.9,1.9,1.4,3.5,1.4c0.7,0,1.5-0.2,2.4-0.5
			c0.9-0.3,1.7-0.9,2.4-1.6l0.6,0.3C772,530.2,771.8,530.5,771.7,530.9z M768.8,517.5c-0.3-0.6-1-0.9-1.9-0.9
			c-0.6,0-1.2,0.2-1.7,0.5c-0.5,0.4-0.9,0.8-1.2,1.4c-0.3,0.6-0.6,1.3-0.9,2c-0.2,0.8-0.4,1.5-0.6,2.3c0.2,0,0.4,0,0.6,0.1
			c0.2,0,0.4,0,0.7,0h1.4h1.6c0.3,0,0.6,0,1,0c0.4,0,0.7,0,1.1-0.1c0.1-0.3,0.2-0.8,0.3-1.3c0.1-0.6,0.1-1.2,0.1-1.8
			C769.3,518.8,769.2,518.1,768.8,517.5z"/>
		<path fill="#94959B" d="M788.2,519.9c-0.3-0.1-0.7-0.2-1.2-0.2c-0.8,0-1.4,0.1-2,0.4c-0.5,0.3-0.9,0.7-1.3,1.1
			c-0.3,0.4-0.6,0.9-0.8,1.4c-0.2,0.5-0.3,0.9-0.4,1.4c-0.2,0.8-0.5,2-0.8,3.5c-0.3,1.5-0.7,3.5-1.2,6.1c-0.4-0.1-0.8-0.1-1.3-0.1
			s-1,0-1.5,0c-0.5,0-1,0-1.4,0c-0.5,0-0.9,0-1.3,0.1c0.9-3.1,1.7-6.2,2.4-9.4c0.7-3.1,1.3-6.1,1.7-8.9c0.4,0.1,0.7,0.1,1.2,0.1
			c0.4,0,0.9,0.1,1.4,0.1c0.5,0,0.9,0,1.3-0.1c0.4,0,0.7-0.1,1.1-0.1c-0.2,0.7-0.3,1.4-0.5,2.1c-0.2,0.7-0.3,1.4-0.5,2.1
			c0.2-0.3,0.4-0.7,0.7-1.2c0.3-0.5,0.7-1,1.2-1.6c0.5-0.5,1-0.9,1.7-1.3c0.6-0.4,1.4-0.6,2.1-0.6c0.4,0,0.7,0,0.9,0.1
			c0.3,0.1,0.5,0.2,0.7,0.3c-0.5,0.9-0.8,1.7-0.9,2.4c-0.2,0.7-0.3,1.5-0.3,2.4l-0.3,0.1C788.7,520.2,788.5,520,788.2,519.9z"/>
		<path fill="#94959B" d="M805.6,519.1c-0.2-0.6-0.5-1-0.9-1.4c-0.4-0.4-0.8-0.6-1.3-0.8c-0.5-0.2-0.9-0.2-1.4-0.2
			c-0.8,0-1.5,0.2-2.2,0.5c-0.6,0.4-1.2,0.8-1.7,1.4c-0.5,0.6-0.9,1.2-1.2,1.9c-0.3,0.7-0.6,1.4-0.8,2.2c-0.2,0.7-0.4,1.4-0.5,2.1
			c-0.1,0.7-0.1,1.3-0.1,1.7c0,0.6,0.1,1.2,0.3,1.9c0.2,0.6,0.5,1.2,0.8,1.7c0.4,0.5,0.9,0.9,1.5,1.2c0.6,0.3,1.4,0.5,2.2,0.5
			c0.9,0,1.7-0.2,2.3-0.5c0.6-0.3,1.2-0.7,1.7-1.2l0.5,0.4c-0.4,0.7-0.7,1.2-0.9,1.6c-0.2,0.4-0.3,0.8-0.3,1.1
			c-0.8,0.2-1.6,0.4-2.3,0.6c-0.7,0.1-1.5,0.2-2.3,0.2c-1.3,0-2.5-0.2-3.6-0.5c-1.1-0.3-2.1-0.9-2.9-1.6c-0.8-0.7-1.5-1.6-1.9-2.7
			c-0.5-1.1-0.7-2.3-0.7-3.6c0-1.2,0.2-2.5,0.7-3.8c0.4-1.3,1.1-2.4,2-3.5c0.9-1,2.1-1.9,3.5-2.5c1.4-0.7,3.1-1,5-1
			c0.9,0,1.8,0.1,2.5,0.2c0.8,0.1,1.4,0.3,2,0.5c0.6,0.2,1.2,0.4,1.6,0.7c0.5,0.2,0.9,0.5,1.3,0.7c-0.2,0.3-0.4,0.6-0.5,0.8
			c-0.2,0.3-0.3,0.6-0.5,0.9c-0.2,0.3-0.3,0.7-0.5,1c-0.1,0.4-0.3,0.8-0.5,1.4h-0.9C805.9,520.3,805.8,519.7,805.6,519.1z"/>
		<path fill="#94959B" d="M813.3,515.4c0.5,0,1,0.1,1.5,0.1c0.7,0,1.2,0,1.7-0.1c0.4,0,0.9-0.1,1.2-0.1c-0.3,0.8-0.6,2-1,3.5
			c-0.4,1.5-0.8,3.2-1.2,5c-0.4,1.8-0.8,3.6-1.1,5.3c-0.3,1.8-0.6,3.2-0.7,4.4c-0.4-0.1-0.9-0.1-1.3-0.1c-0.5,0-1,0-1.5,0
			c-0.6,0-1.1,0-1.6,0c-0.5,0-0.9,0-1.3,0.1c0.4-1.3,0.8-2.8,1.2-4.5c0.4-1.7,0.8-3.4,1.2-5.1c0.4-1.7,0.7-3.4,1-4.9
			c0.3-1.5,0.5-2.8,0.6-3.8C812.4,515.4,812.8,515.4,813.3,515.4z M814,506.2c0.6-0.6,1.3-0.9,2.1-0.9c0.8,0,1.5,0.3,2.1,0.8
			c0.6,0.6,0.8,1.2,0.8,2.1c0,0.8-0.3,1.5-0.8,2.1c-0.6,0.6-1.3,0.8-2.1,0.8c-0.8,0-1.5-0.3-2.1-0.9c-0.6-0.6-0.8-1.3-0.8-2.1
			C813.1,507.4,813.4,506.8,814,506.2z"/>
		<path fill="#94959B" d="M834.5,533.7c-0.5,0.2-1.1,0.3-1.9,0.3c-0.7,0-1.3-0.1-1.7-0.3c-0.4-0.2-0.8-0.4-1.1-0.7
			c-0.3-0.3-0.4-0.6-0.6-0.9c-0.1-0.3-0.2-0.6-0.2-0.8c-0.6,1.1-1.3,1.8-2.1,2.2c-0.8,0.4-1.8,0.6-3.1,0.6c-1.5,0-2.8-0.4-3.7-1.3
			c-0.9-0.9-1.4-2.1-1.4-3.6c0-1.2,0.4-2.4,1.1-3.4c0.7-1,1.7-1.8,3-2.2c0.6-0.2,1.3-0.3,2.2-0.5c0.9-0.1,1.7-0.2,2.5-0.3
			c0.6-0.1,1.1-0.1,1.4-0.2c0.4-0.1,0.7-0.2,0.9-0.3c0.2-0.2,0.4-0.4,0.5-0.7c0.1-0.3,0.1-0.7,0.1-1.2c0-0.6-0.1-1.1-0.3-1.4
			c-0.2-0.4-0.5-0.7-0.8-0.9c-0.3-0.2-0.7-0.4-1.1-0.5c-0.4-0.1-0.8-0.1-1.2-0.1c-0.8,0-1.5,0.1-2.2,0.4c-0.7,0.3-1.3,0.6-1.9,1.1
			h-0.2c0.1-0.5,0.1-0.9,0.1-1.2c0-0.3,0-0.6,0.1-1c2.1-1.2,4.3-1.8,6.7-1.8c0.7,0,1.5,0.1,2.2,0.2c0.7,0.2,1.3,0.4,1.9,0.8
			c0.6,0.4,1,0.8,1.4,1.4c0.3,0.6,0.5,1.3,0.5,2.2c0,0.6-0.1,1.2-0.2,1.8c-0.1,0.7-0.2,1.2-0.3,1.6l-1,4.8c-0.2,0.9-0.3,1.5-0.4,2
			c-0.1,0.4-0.1,0.8-0.1,1c0,0.3,0.1,0.6,0.2,1c0.1,0.4,0.4,0.5,0.8,0.5c0.1,0,0.2,0,0.3-0.1c0.1-0.1,0.2-0.1,0.3-0.2l0.3,0.9
			C835.4,533.3,835,533.5,834.5,533.7z M824.6,530.8c0.3,0.5,0.8,0.8,1.6,0.8c0.6,0,1.1-0.2,1.5-0.5c0.4-0.3,0.7-0.7,0.9-1.2
			c0.2-0.5,0.4-1,0.6-1.5c0.1-0.6,0.2-1.1,0.3-1.6l0.6-2.9c-1.2,0.2-2,0.3-2.6,0.5c-0.6,0.2-1.1,0.4-1.6,0.7c-0.6,0.4-1.1,1-1.3,1.7
			c-0.3,0.8-0.4,1.5-0.4,2.2C824.1,529.7,824.3,530.3,824.6,530.8z"/>
		<path fill="#94959B" d="M845.4,504.9c0.5,0,1,0.1,1.6,0.1c0.5,0,1,0,1.5,0c0.4,0,0.9-0.1,1.4-0.2c-0.3,1.2-0.6,2.4-0.9,3.5
			c-0.3,1.1-0.6,2.2-0.8,3.3c-0.3,1.1-0.6,2.3-0.8,3.4c-0.3,1.2-0.6,2.5-0.9,3.9c-0.5,2.5-1,4.9-1.5,7.3c-0.5,2.4-1,4.9-1.4,7.4
			c-0.4-0.1-0.9-0.1-1.4-0.1s-1,0-1.6,0c-0.5,0-1,0-1.5,0c-0.5,0-0.9,0-1.5,0.1c0.4-1.1,0.7-2.5,1.2-4.1c0.4-1.6,0.8-3.3,1.2-5.1
			c0.4-1.8,0.8-3.6,1.2-5.5c0.4-1.9,0.8-3.7,1.1-5.4c0.4-1.7,0.7-3.4,1-4.9c0.3-1.5,0.5-2.8,0.7-3.9
			C844.4,504.8,844.9,504.9,845.4,504.9z"/>
	</g>
</g>
</svg>
