<?xml version="1.0" encoding="utf-8"?>
<!-- Generator: Adobe Illustrator 16.0.0, SVG Export Plug-In . SVG Version: 6.00 Build 0)  -->
<!DOCTYPE svg PUBLIC "-//W3C//DTD SVG 1.1//EN" "http://www.w3.org/Graphics/SVG/1.1/DTD/svg11.dtd">
<svg version="1.1" id="Layer_1" xmlns="http://www.w3.org/2000/svg" xmlns:xlink="http://www.w3.org/1999/xlink" x="0px" y="0px"
	 width="16px" height="16px" viewBox="0 0 16 16" enable-background="new 0 0 16 16" xml:space="preserve">
<path fill="#FFFFFF" d="M8,0C3.573,0,0,3.573,0,8s3.573,8,8,8s8-3.573,8-8S12.427,0,8,0z M8,15.359c-4.053,0-7.36-3.308-7.36-7.359
	c0-4.053,3.307-7.36,7.36-7.36c4.053,0,7.359,3.307,7.359,7.36S12.053,15.359,8,15.359z"/>
<path fill="#FFFFFF" d="M7.2,10.773c0-1.388,0.906-2.561,2.187-2.987c0-0.106,0.053-0.213,0.053-0.267
	C9.493,7.307,9.6,6.987,9.547,6.827c-0.054-0.213-0.213-0.32-0.213-0.533S9.439,5.76,9.493,5.547C9.547,5.173,9.547,4.8,9.439,4.427
	C9.227,3.36,8.267,3.04,7.307,2.827c-0.106,0-0.213-0.053-0.213-0.053s-0.106-0.107-0.16-0.107c-0.106,0-0.213,0-0.32,0
	C5.973,2.773,5.28,3.093,4.8,3.573C4.587,3.787,4.267,4.16,4.213,4.533c-0.053,0.32-0.053,0.693,0,1.067
	c0.053,0.213,0.053,0.32,0.053,0.533c0,0.16,0.16,0.267,0.107,0.427c0,0.106-0.054,0.16-0.107,0.213
	c-0.213,0.373,0,0.853,0.213,1.173c0.107,0.16,0.16,0.32,0.267,0.427c0.16,0.16,0.16,0.268,0.16,0.48c0,0.373,0.16,1.014,0.48,1.174
	c0.106,0.053-0.053,0.692-0.053,0.746c0,0.586,0.106,0.854-0.48,0.959c-0.213,0.055-0.427,0.106-0.64,0.215
	C4.106,12,3.947,12.053,3.68,12.16c0.907,0.693,2.026,1.119,3.307,1.119c0.426,0,0.853-0.053,1.28-0.159
	C7.626,12.533,7.2,11.732,7.2,10.773z"/>
<path fill="#FFFFFF" d="M10.348,8.267c-1.388,0-2.508,1.12-2.508,2.506c0,1.388,1.12,2.507,2.508,2.507
	c1.387,0,2.506-1.119,2.506-2.507C12.854,9.387,11.732,8.267,10.348,8.267z M11.895,11.307h-1.067v1.066h-0.96v-1.066H8.8v-0.959
	h1.067V9.279h0.959v1.066h1.066v0.961H11.895z"/>
</svg>
