<?xml version="1.0" encoding="utf-8"?>
<!-- Generator: Adobe Illustrator 18.1.1, SVG Export Plug-In . SVG Version: 6.00 Build 0)  -->
<svg version="1.1" xmlns="http://www.w3.org/2000/svg" xmlns:xlink="http://www.w3.org/1999/xlink" x="0px" y="0px"
	 viewBox="0 0 700 700" enable-background="new 0 0 700 700" xml:space="preserve">
<g id="Capa_1" display="none">
	<g id="Layer_1" display="inline">
	</g>
	<g id="Capa_2" display="inline">
		<g>
			<g>
				<g>
					<g>
						<g>
							<path fill="#F9F9F9" d="M880.7,580.9c-3.1,7.3-11.6,10.8-18.8,7.7l-229-96.6c-7.3-3.1-10.8-11.6-7.7-18.8l145.4-345.1
								c3.1-7.3,11.6-10.8,18.8-7.7l229,96.6c7.3,3.1,10.8,11.6,7.7,18.8L880.7,580.9z"/>
						</g>
					</g>
					
						<line fill="none" stroke="#CCCCCC" stroke-width="9.1969" stroke-miterlimit="10" x1="787.1" y1="158.7" x2="987.8" y2="243.2"/>
					<line fill="none" stroke="#CCCCCC" stroke-width="9.1969" stroke-miterlimit="10" x1="737.3" y1="276.8" x2="938" y2="361.3"/>
					
						<line fill="none" stroke="#CCCCCC" stroke-width="4.5984" stroke-miterlimit="10" x1="797.2" y1="191.8" x2="977.4" y2="267.8"/>
					<line fill="none" stroke="#CCCCCC" stroke-width="4.5984" stroke-miterlimit="10" x1="787.8" y1="214.3" x2="968" y2="290.3"/>
					
						<line fill="none" stroke="#CCCCCC" stroke-width="4.5984" stroke-miterlimit="10" x1="778.3" y1="236.9" x2="958.5" y2="312.8"/>
					
						<line fill="none" stroke="#CCCCCC" stroke-width="4.5984" stroke-miterlimit="10" x1="768.9" y1="259.2" x2="949.1" y2="335.2"/>
					
						<line fill="none" stroke="#CCCCCC" stroke-width="4.5984" stroke-miterlimit="10" x1="655.7" y1="470.5" x2="771.9" y2="519.5"/>
					<circle fill="#CCCCCC" cx="782.7" cy="185.8" r="2.9"/>
					<circle fill="none" stroke="#CCCCCC" stroke-width="1.1496" stroke-miterlimit="10" cx="782.7" cy="185.8" r="5.8"/>
					<circle fill="none" stroke="#CCCCCC" stroke-width="1.1496" stroke-miterlimit="10" cx="773.3" cy="208.2" r="5.8"/>
					<circle fill="none" stroke="#CCCCCC" stroke-width="1.1496" stroke-miterlimit="10" cx="763.9" cy="230.7" r="5.8"/>
					<circle fill="none" stroke="#CCCCCC" stroke-width="1.1496" stroke-miterlimit="10" cx="754.4" cy="253.3" r="5.8"/>
					<path fill="#E6E6E6" d="M917,411.3c-0.9,2-3.1,2.9-5.1,2l-193.5-81.4c-2-0.9-2.9-3.1-2-5.1l11.4-27.1c0.9-2,3.1-2.9,5.1-2
						l193.5,81.6c2,0.9,2.9,3.1,2,5.1L917,411.3z"/>
					<line fill="none" stroke="#CCCCCC" stroke-width="9.1969" stroke-miterlimit="10" x1="705.9" y1="351.6" x2="906.6" y2="436"/>
					<path fill="#E6E6E6" d="M891.8,471.4c-0.9,2-3.1,2.9-5.1,2l-193.5-81.6c-2-0.9-2.9-3.1-2-5.1l5.8-13.7c0.9-2,3.1-2.9,5.1-2
						l193.5,81.6c2,0.9,2.9,3.1,2,5.1L891.8,471.4z"/>
					<line fill="none" stroke="#CCCCCC" stroke-width="9.1969" stroke-miterlimit="10" x1="678.9" y1="415.4" x2="879.6" y2="500"/>
					<path fill="#E6E6E6" d="M864.8,535.2c-0.9,2-3.1,2.9-5.1,2l-193.5-81.6c-2-0.9-2.9-3.1-2-5.1l5.8-13.7c0.9-2,3.1-2.9,5.1-2
						l193.5,81.6c2,0.9,2.9,3.1,2,5.1L864.8,535.2z"/>
					<path fill="#29ABE2" d="M855.2,557.9c-0.9,2-3.1,2.9-5.1,2l-60.9-25.6c-2-0.9-2.9-3.1-2-5.1l2.2-5.5c0.9-2,3.1-2.9,5.1-2
						l60.9,25.6c2,0.9,2.9,3.1,2,5.1L855.2,557.9z"/>
				</g>
				<g>
					<g>
						<g>
							<path fill="#F9F9F9" d="M945.2,538.6c-0.5,7.9-7.5,13.8-15.4,13.3l-248-18.1c-7.9-0.5-13.8-7.5-13.3-15.4l27.3-373.4
								c0.5-7.9,7.5-13.8,15.4-13.3l248,18.1c7.9,0.5,13.8,7.5,13.3,15.4L945.2,538.6z"/>
						</g>
					</g>
					
						<line fill="none" stroke="#CCCCCC" stroke-width="9.1969" stroke-miterlimit="10" x1="721.4" y1="168.6" x2="938.5" y2="184.5"/>
					<line fill="none" stroke="#CCCCCC" stroke-width="9.1969" stroke-miterlimit="10" x1="712" y1="296.4" x2="929.3" y2="312.3"/>
					
						<line fill="none" stroke="#CCCCCC" stroke-width="4.5984" stroke-miterlimit="10" x1="741.6" y1="196.8" x2="936.6" y2="211.1"/>
					
						<line fill="none" stroke="#CCCCCC" stroke-width="4.5984" stroke-miterlimit="10" x1="739.9" y1="221.2" x2="934.9" y2="235.5"/>
					<line fill="none" stroke="#CCCCCC" stroke-width="4.5984" stroke-miterlimit="10" x1="738" y1="245.4" x2="933.1" y2="259.7"/>
					<line fill="none" stroke="#CCCCCC" stroke-width="4.5984" stroke-miterlimit="10" x1="736.3" y1="269.8" x2="931.3" y2="284"/>
					
						<line fill="none" stroke="#CCCCCC" stroke-width="4.5984" stroke-miterlimit="10" x1="696.7" y1="506.2" x2="822.6" y2="515.4"/>
					<circle fill="#CCCCCC" cx="726" cy="195.7" r="2.9"/>
					<circle fill="none" stroke="#CCCCCC" stroke-width="1.1496" stroke-miterlimit="10" cx="726" cy="195.7" r="5.8"/>
					<circle fill="none" stroke="#CCCCCC" stroke-width="1.1496" stroke-miterlimit="10" cx="724.2" cy="220" r="5.8"/>
					<circle fill="none" stroke="#CCCCCC" stroke-width="1.1496" stroke-miterlimit="10" cx="722.5" cy="244.4" r="5.8"/>
					<circle fill="none" stroke="#CCCCCC" stroke-width="1.1496" stroke-miterlimit="10" cx="720.6" cy="268.6" r="5.8"/>
					<path fill="#E6E6E6" d="M925.2,366.4c-0.2,2.2-2,3.8-4.3,3.6l-209.4-15.4c-2.2-0.2-3.8-2-3.6-4.3l2.2-29.4
						c0.2-2.2,2-3.8,4.3-3.6l209.4,15.4c2.2,0.2,3.8,2,3.6,4.3L925.2,366.4z"/>
					
						<line fill="none" stroke="#CCCCCC" stroke-width="9.1969" stroke-miterlimit="10" x1="706.1" y1="377.3" x2="923.3" y2="393.2"/>
					<path fill="#E6E6E6" d="M920.6,431.3c-0.2,2.2-2,3.8-4.3,3.6l-209.4-15.4c-2.2-0.2-3.8-2-3.6-4.3l1-14.7c0.2-2.2,2-3.8,4.3-3.6
						L918,412.3c2.2,0.2,3.8,2,3.6,4.3L920.6,431.3z"/>
					
						<line fill="none" stroke="#CCCCCC" stroke-width="9.1969" stroke-miterlimit="10" x1="701.1" y1="446.4" x2="918.2" y2="462.3"/>
					<path fill="#E6E6E6" d="M915.5,500.6c-0.2,2.2-2,3.8-4.3,3.6l-209.4-15.4c-2.2-0.2-3.8-2-3.6-4.3l1-14.7c0.2-2.2,2-3.8,4.3-3.6
						l209.4,15.4c2.2,0.2,3.8,2,3.6,4.3L915.5,500.6z"/>
					<path fill="#29ABE2" d="M913.6,525c-0.2,2.2-2,3.8-4.3,3.6l-65.9-4.8c-2.2-0.2-3.8-2-3.6-4.3l0.5-5.8c0.2-2.2,2-3.8,4.3-3.6
						l65.9,4.8c2.2,0.2,3.8,2,3.6,4.3L913.6,525z"/>
				</g>
				<g opacity="0.1">
					<g>
						<path fill="#4D4D4D" d="M1018.2,217.2l-48.3-20.1l2.2-31.4c0.5-7.9-5.5-14.8-13.3-15.4l-121.2-8.5L789,121.5
							c-7.3-3.1-15.7,0.3-18.8,7.7l-3.2,7.7l-56-3.9c-7.9-0.5-14.8,5.5-15.4,13.3l-13.7,194l-56.1,134.3c-3.1,7.3,0.3,15.7,7.7,18.8
							l36.5,15.4l-0.9,10.9c-0.5,7.9,5.5,14.8,13.3,15.4l60.6,4.3l119.5,50c7.3,3.1,15.7-0.3,18.8-7.7l13.1-31.6l35.8,2.6
							c7.9,0.5,14.8-5.5,15.4-13.3l9.4-134l70.7-169C1029,228.8,1025.6,220.3,1018.2,217.2z"/>
					</g>
				</g>
				<g>
					<g>
						<g>
							<path fill="#F9F9F9" d="M971.8,514.5c1.5,8.2-3.8,16.2-12.1,17.7l-258.4,49.5c-8.2,1.5-16.2-3.8-17.7-12.1l-74.4-389.1
								c-1.5-8.2,3.8-16.2,12.1-17.7l258.4-49.3c8.2-1.5,16.2,3.8,17.7,12.1L971.8,514.5z"/>
						</g>
					</g>
					<line fill="none" stroke="#CCCCCC" stroke-width="9.7337" stroke-miterlimit="10" x1="641.7" y1="197.6" x2="868" y2="154.4"/>
					
						<line fill="none" stroke="#CCCCCC" stroke-width="9.7337" stroke-miterlimit="10" x1="667.2" y1="330.9" x2="893.6" y2="287.7"/>
					<line fill="none" stroke="#CCCCCC" stroke-width="4.8669" stroke-miterlimit="10" x1="670.1" y1="221" x2="873.3" y2="182.1"/>
					<line fill="none" stroke="#CCCCCC" stroke-width="4.8669" stroke-miterlimit="10" x1="675" y1="246.3" x2="878.3" y2="207.5"/>
					
						<line fill="none" stroke="#CCCCCC" stroke-width="4.8669" stroke-miterlimit="10" x1="679.8" y1="271.7" x2="883.1" y2="232.8"/>
					<line fill="none" stroke="#CCCCCC" stroke-width="4.8669" stroke-miterlimit="10" x1="684.6" y1="296.9" x2="888" y2="258.2"/>
					<line fill="none" stroke="#CCCCCC" stroke-width="4.8669" stroke-miterlimit="10" x1="709" y1="549.5" x2="840" y2="524.4"/>
					<circle fill="#CCCCCC" cx="653.8" cy="224.1" r="3.1"/>
					<circle fill="none" stroke="#CCCCCC" stroke-width="1.2167" stroke-miterlimit="10" cx="653.8" cy="224.1" r="6.3"/>
					<circle fill="none" stroke="#CCCCCC" stroke-width="1.2167" stroke-miterlimit="10" cx="658.6" cy="249.5" r="6.3"/>
					<circle fill="none" stroke="#CCCCCC" stroke-width="1.2167" stroke-miterlimit="10" cx="663.4" cy="274.8" r="6.3"/>
					<circle fill="none" stroke="#CCCCCC" stroke-width="1.2167" stroke-miterlimit="10" cx="668.4" cy="300" r="6.3"/>
					<path fill="#E6E6E6" d="M904.4,344c0.5,2.2-1,4.4-3.2,4.8l-218.3,41.6c-2.2,0.5-4.4-1-4.8-3.2l-5.8-30.7
						c-0.5-2.2,1-4.4,3.2-4.8l218.3-41.6c2.2-0.5,4.4,1,4.8,3.2L904.4,344z"/>
					<line fill="none" stroke="#CCCCCC" stroke-width="9.7337" stroke-miterlimit="10" x1="683.2" y1="415.2" x2="909.7" y2="372"/>
					<path fill="#E6E6E6" d="M917.2,411.6c0.5,2.2-1,4.4-3.2,4.8l-218.3,41.8c-2.2,0.5-4.4-1-4.8-3.2l-2.9-15.4
						c-0.5-2.2,1-4.4,3.2-4.8L909.5,393c2.2-0.5,4.4,1,4.8,3.2L917.2,411.6z"/>
					<line fill="none" stroke="#CCCCCC" stroke-width="9.7337" stroke-miterlimit="10" x1="697" y1="487.2" x2="923.5" y2="444.1"/>
					<path fill="#E6E6E6" d="M931,483.8c0.5,2.2-1,4.4-3.2,4.8l-218.3,41.6c-2.2,0.5-4.4-1-4.8-3.2l-2.9-15.4
						c-0.5-2.2,1-4.4,3.2-4.8l218.1-41.8c2.2-0.5,4.4,1,4.8,3.2L931,483.8z"/>
					<path fill="#29ABE2" d="M936,509.3c0.5,2.2-1,4.4-3.2,4.8l-68.6,13.1c-2.2,0.5-4.4-1-4.8-3.2l-1.2-6.1c-0.5-2.2,1-4.4,3.2-4.8
						l68.6-13.1c2.2-0.5,4.4,1,4.8,3.2L936,509.3z"/>
				</g>
			</g>
			<g>
				<g>
					
						<circle fill="none" stroke="#FFFFFF" stroke-width="3.2112" stroke-miterlimit="10" stroke-dasharray="16.1788,16.1788" cx="809.8" cy="352.9" r="325.1"/>
				</g>
				<g>
					<circle fill="#29ABE2" cx="811.9" cy="31.4" r="31.2"/>
					<g>
						<line fill="none" stroke="#FFFFFF" stroke-width="5.072" stroke-miterlimit="10" x1="797" y1="32.6" x2="809.2" y2="44.7"/>
						<line fill="none" stroke="#FFFFFF" stroke-width="5.072" stroke-miterlimit="10" x1="828.8" y1="18.2" x2="802.5" y2="44.7"/>
					</g>
				</g>
				<g>
					<circle fill="#29ABE2" cx="504.9" cy="251.5" r="31.2"/>
					<g>
						<line fill="none" stroke="#FFFFFF" stroke-width="5.072" stroke-miterlimit="10" x1="489.8" y1="252.6" x2="502" y2="264.7"/>
						
							<line fill="none" stroke="#FFFFFF" stroke-width="5.072" stroke-miterlimit="10" x1="521.7" y1="238.4" x2="495.3" y2="264.7"/>
					</g>
				</g>
				<g>
					<circle fill="#29ABE2" cx="619.2" cy="611.7" r="31.2"/>
					<g>
						
							<line fill="none" stroke="#FFFFFF" stroke-width="5.072" stroke-miterlimit="10" x1="604.4" y1="612.7" x2="616.5" y2="624.8"/>
						
							<line fill="none" stroke="#FFFFFF" stroke-width="5.072" stroke-miterlimit="10" x1="636.1" y1="598.5" x2="609.8" y2="624.8"/>
					</g>
				</g>
				<g>
					<circle fill="#29ABE2" cx="997.1" cy="614" r="31.2"/>
					<g>
						
							<line fill="none" stroke="#FFFFFF" stroke-width="5.072" stroke-miterlimit="10" x1="982.2" y1="616.3" x2="995.2" y2="627.5"/>
						
							<line fill="none" stroke="#FFFFFF" stroke-width="5.072" stroke-miterlimit="10" x1="1012.9" y1="599.7" x2="988.5" y2="627.9"/>
					</g>
				</g>
				<g>
					<circle fill="#29ABE2" cx="1116.2" cy="255.5" r="31.2"/>
					<g>
						
							<line fill="none" stroke="#FFFFFF" stroke-width="5.072" stroke-miterlimit="10" x1="1101.3" y1="256.7" x2="1113.5" y2="268.8"/>
						
							<line fill="none" stroke="#FFFFFF" stroke-width="5.072" stroke-miterlimit="10" x1="1133.1" y1="242.3" x2="1106.6" y2="268.8"/>
					</g>
				</g>
			</g>
		</g>
	</g>
</g>
<g id="Capa_2_1_">
	<g>
		<g>
			<g>
				<g>
					
						<image overflow="visible" opacity="0.22" width="428" height="497" xlink:href="C933C8507B8B3E85.png"  transform="matrix(1 0 0 1 143.252 107.252)">
					</image>
					<g>
						<path fill="#F8F8F8" d="M414.5,585.8c-3.2,7.5-11.9,11.1-19.4,7.9l-235.7-99.3c-7.5-3.2-11.1-11.9-7.9-19.4l149.6-355
							c3.2-7.5,11.9-11.1,19.4-7.9l235.7,99.3c7.5,3.2,11.1,11.9,7.9,19.4L414.5,585.8z"/>
					</g>
				</g>
				<g>
					
						<rect x="309.4" y="186.8" transform="matrix(0.9215 0.3883 -0.3883 0.9215 108.7202 -148.3246)" fill="#CACACA" width="224.1" height="16.2"/>
				</g>
				<g>
					
						<rect x="258.1" y="308.3" transform="matrix(0.9215 0.3883 -0.3883 0.9215 151.8978 -118.9044)" fill="#CACACA" width="224.1" height="16.2"/>
				</g>
				<g>
					
						<rect x="320.7" y="220.6" transform="matrix(0.9215 0.3883 -0.3883 0.9215 120.2653 -145.9416)" fill="#CACACA" width="201.2" height="8.1"/>
				</g>
				<g>
					
						<rect x="310.9" y="243.7" transform="matrix(0.9215 0.3883 -0.3883 0.9215 128.474 -140.3483)" fill="#CACACA" width="201.2" height="8.1"/>
				</g>
				<g>
					
						<rect x="301.2" y="266.8" transform="matrix(0.9215 0.3883 -0.3883 0.9215 136.6826 -134.7551)" fill="#CACACA" width="201.2" height="8.1"/>
				</g>
				<g>
					
						<rect x="291.5" y="289.9" transform="matrix(0.9215 0.3883 -0.3883 0.9215 144.8909 -129.1618)" fill="#CACACA" width="201.2" height="8.1"/>
				</g>
				<g>
					
						<rect x="177.8" y="493.5" transform="matrix(0.9215 0.3883 -0.3883 0.9215 212.2099 -55.2289)" fill="#CACACA" width="129.9" height="8.1"/>
				</g>
				<circle fill="#CACACA" cx="313.7" cy="179.3" r="3"/>
				<g>
					<path fill="#CACACA" d="M313.7,186.4c-0.9,0-1.9-0.2-2.7-0.6c-1.7-0.7-3.1-2.1-3.8-3.8c-0.7-1.7-0.7-3.7,0-5.4
						c1.1-2.6,3.7-4.3,6.5-4.3c0.9,0,1.9,0.2,2.7,0.6c3.6,1.5,5.3,5.7,3.8,9.3C319.1,184.7,316.5,186.4,313.7,186.4z M313.7,174.2
						c-2,0-3.9,1.2-4.7,3.1c-0.5,1.2-0.5,2.6,0,3.9c0.5,1.2,1.5,2.2,2.7,2.7c0.6,0.3,1.3,0.4,2,0.4c2,0,3.9-1.2,4.7-3.1
						c1.1-2.6-0.1-5.5-2.7-6.6C315,174.4,314.3,174.2,313.7,174.2z"/>
				</g>
				<g>
					<path fill="#CACACA" d="M303.9,209.5c-0.9,0-1.9-0.2-2.7-0.6c-3.6-1.5-5.3-5.7-3.8-9.3c1.1-2.6,3.7-4.3,6.5-4.3
						c0.9,0,1.9,0.2,2.7,0.6c1.7,0.7,3.1,2.1,3.8,3.8c0.7,1.7,0.7,3.7,0,5.4C309.3,207.8,306.8,209.5,303.9,209.5z M303.9,197.4
						c-2,0-3.9,1.2-4.7,3.1c-1.1,2.6,0.1,5.5,2.7,6.6c0.6,0.3,1.3,0.4,2,0.4c2,0,3.9-1.2,4.7-3.1c0.5-1.2,0.5-2.6,0-3.9
						c-0.5-1.2-1.5-2.2-2.7-2.7C305.3,197.5,304.6,197.4,303.9,197.4z"/>
				</g>
				<g>
					<path fill="#CACACA" d="M294.2,232.6c-0.9,0-1.9-0.2-2.7-0.6c-3.6-1.5-5.3-5.7-3.8-9.3c1.1-2.6,3.7-4.3,6.5-4.3
						c0.9,0,1.9,0.2,2.7,0.6c3.6,1.5,5.3,5.7,3.8,9.3C299.6,230.9,297,232.6,294.2,232.6z M294.2,220.5c-2,0-3.9,1.2-4.7,3.1
						c-1.1,2.6,0.1,5.5,2.7,6.6c0.6,0.3,1.3,0.4,2,0.4c2,0,3.9-1.2,4.7-3.1c1.1-2.6-0.1-5.5-2.7-6.6
						C295.5,220.6,294.9,220.5,294.2,220.5z"/>
				</g>
				<g>
					<path fill="#CACACA" d="M284.5,255.7c-0.9,0-1.9-0.2-2.7-0.6c-1.7-0.7-3.1-2.1-3.8-3.8c-0.7-1.7-0.7-3.7,0-5.4
						c1.1-2.6,3.7-4.3,6.5-4.3c0.9,0,1.9,0.2,2.7,0.6c1.7,0.7,3.1,2.1,3.8,3.8c0.7,1.7,0.7,3.7,0,5.4
						C289.9,254,287.3,255.7,284.5,255.7z M284.5,243.6c-2,0-3.9,1.2-4.7,3.1c-0.5,1.2-0.5,2.6,0,3.9c0.5,1.2,1.5,2.2,2.7,2.7
						c0.6,0.3,1.3,0.4,2,0.4c2,0,3.9-1.2,4.7-3.1c0.5-1.2,0.5-2.6,0-3.9c-0.5-1.2-1.5-2.2-2.7-2.7
						C285.8,243.7,285.1,243.6,284.5,243.6z"/>
				</g>
				<path fill="#E4E4E4" d="M451.7,411.4c-0.9,2.1-3.2,3-5.3,2.2l-199.1-83.9c-2.1-0.9-3-3.2-2.2-5.3l11.8-28c0.9-2.1,3.2-3,5.3-2.2
					l199.1,83.9c2.1,0.9,3,3.2,2.2,5.3L451.7,411.4z"/>
				<g>
					
						<rect x="225.7" y="385.2" transform="matrix(0.9215 0.3883 -0.3883 0.9215 179.2119 -100.2922)" fill="#CACACA" width="224.1" height="16.2"/>
				</g>
				<path fill="#E4E4E4" d="M425.8,473.1c-0.9,2.1-3.2,3-5.3,2.2l-199.1-83.9c-2.1-0.9-3-3.2-2.2-5.3l5.9-14c0.9-2.1,3.2-3,5.3-2.2
					l199.1,83.9c2.1,0.9,3,3.2,2.2,5.3L425.8,473.1z"/>
				<g>
					
						<rect x="198" y="451" transform="matrix(0.9215 0.3883 -0.3883 0.9215 202.5613 -84.3823)" fill="#CACACA" width="224.1" height="16.2"/>
				</g>
				<path fill="#E4E4E4" d="M398.1,538.8c-0.9,2.1-3.2,3-5.3,2.2l-199.1-83.9c-2.1-0.9-3-3.2-2.2-5.3l5.9-14c0.9-2.1,3.2-3,5.3-2.2
					l199.1,83.9c2.1,0.9,3,3.2,2.2,5.3L398.1,538.8z"/>
				<path fill="#66A8DE" d="M388.3,562.1c-0.9,2.1-3.2,3-5.3,2.2l-62.6-26.4c-2.1-0.9-3-3.2-2.2-5.3l2.4-5.6c0.9-2.1,3.2-3,5.3-2.2
					l62.6,26.4c2.1,0.9,3,3.2,2.2,5.3L388.3,562.1z"/>
			</g>
			<g>
				<g>
					
						<image overflow="visible" opacity="0.22" width="326" height="445" xlink:href="C933C8507B8B3E8B.png"  transform="matrix(1 0 0 1 189.252 120.252)">
					</image>
					<g>
						<path fill="#F8F8F8" d="M480.8,542.3c-0.6,8.2-7.7,14.3-15.8,13.7l-255.1-18.7c-8.2-0.6-14.3-7.7-13.7-15.8l28.1-384.2
							c0.6-8.2,7.7-14.3,15.8-13.7l255.1,18.7c8.2,0.6,14.3,7.7,13.7,15.8L480.8,542.3z"/>
					</g>
				</g>
				<g>
					
						<rect x="250.2" y="161.7" transform="matrix(0.9973 7.300116e-02 -7.300116e-02 0.9973 13.3601 -25.9925)" fill="#CACACA" width="224.1" height="16.1"/>
				</g>
				<g>
					
						<rect x="240.6" y="293.2" transform="matrix(0.9973 7.299709e-02 -7.299709e-02 0.9973 22.9363 -24.9372)" fill="#CACACA" width="224.1" height="16.1"/>
				</g>
				<g>
					
						<rect x="271.1" y="194" transform="matrix(0.9973 7.299652e-02 -7.299652e-02 0.9973 15.4453 -26.602)" fill="#CACACA" width="201.2" height="8.1"/>
				</g>
				<g>
					
						<rect x="269.2" y="219" transform="matrix(0.9973 7.299652e-02 -7.299652e-02 0.9973 17.266 -26.4016)" fill="#CACACA" width="201.2" height="8.1"/>
				</g>
				<g>
					
						<rect x="267.4" y="244" transform="matrix(0.9973 7.299652e-02 -7.299652e-02 0.9973 19.0867 -26.2013)" fill="#CACACA" width="201.2" height="8.1"/>
				</g>
				<g>
					
						<rect x="265.6" y="269" transform="matrix(0.9973 7.299621e-02 -7.299621e-02 0.9973 20.9073 -26.0009)" fill="#CACACA" width="201.2" height="8.1"/>
				</g>
				<g>
					
						<rect x="224.9" y="509.6" transform="matrix(0.9973 7.299983e-02 -7.299983e-02 0.9973 38.2697 -19.7893)" fill="#CACACA" width="129.9" height="8.1"/>
				</g>
				<circle fill="#CACACA" cx="255.2" cy="189.5" r="3"/>
				<g>
					<path fill="#CACACA" d="M255.2,196.5c-0.2,0-0.3,0-0.5,0c-3.9-0.3-6.8-3.7-6.5-7.6c0.3-3.8,3.7-6.8,7.6-6.5
						c1.9,0.1,3.6,1,4.8,2.4c1.2,1.4,1.8,3.3,1.7,5.1C262,193.7,258.9,196.5,255.2,196.5z M255.2,184.4c-2.6,0-4.8,2.1-5,4.7
						c-0.2,2.8,1.9,5.2,4.7,5.4c2.8,0.2,5.2-1.9,5.4-4.7c0.1-1.3-0.3-2.6-1.2-3.7c-0.9-1-2.1-1.6-3.5-1.7
						C255.5,184.4,255.3,184.4,255.2,184.4z"/>
				</g>
				<g>
					<path fill="#CACACA" d="M253.4,221.6c-0.2,0-0.3,0-0.5,0c-3.9-0.3-6.8-3.7-6.5-7.6c0.3-3.8,3.7-6.8,7.6-6.5
						c1.9,0.1,3.6,1,4.8,2.4c1.2,1.4,1.8,3.3,1.7,5.1C260.2,218.7,257.1,221.6,253.4,221.6z M253.4,209.4c-2.6,0-4.8,2.1-5,4.7
						c-0.2,2.8,1.9,5.2,4.7,5.4c2.8,0.2,5.2-1.9,5.4-4.7c0.1-1.3-0.3-2.6-1.2-3.7c-0.9-1-2.1-1.6-3.5-1.7
						C253.6,209.4,253.5,209.4,253.4,209.4z"/>
				</g>
				<g>
					<path fill="#CACACA" d="M251.6,246.6c-0.2,0-0.3,0-0.5,0c-1.9-0.1-3.6-1-4.8-2.4c-1.2-1.4-1.8-3.3-1.7-5.1
						c0.3-3.8,3.7-6.8,7.6-6.5c1.9,0.1,3.6,1,4.8,2.4c1.2,1.4,1.8,3.3,1.7,5.1C258.3,243.7,255.2,246.6,251.6,246.6z M251.6,234.5
						c-2.6,0-4.8,2.1-5,4.7c-0.1,1.3,0.3,2.6,1.2,3.7c0.9,1,2.1,1.6,3.5,1.7c2.8,0.2,5.2-1.9,5.4-4.7c0.1-1.3-0.3-2.6-1.2-3.7
						c-0.9-1-2.1-1.6-3.5-1.7C251.8,234.5,251.7,234.5,251.6,234.5z"/>
				</g>
				<g>
					<path fill="#CACACA" d="M249.7,271.6c-0.2,0-0.3,0-0.5,0c-1.9-0.1-3.6-1-4.8-2.4c-1.2-1.4-1.8-3.3-1.7-5.1
						c0.3-3.8,3.7-6.8,7.6-6.5c3.9,0.3,6.8,3.7,6.5,7.6C256.5,268.7,253.4,271.6,249.7,271.6z M249.7,259.5c-2.6,0-4.8,2.1-5,4.7
						c-0.1,1.3,0.3,2.6,1.2,3.7c0.9,1,2.1,1.6,3.5,1.7c2.8,0.2,5.2-1.9,5.4-4.7c0.2-2.8-1.9-5.2-4.7-5.4
						C250,259.5,249.9,259.5,249.7,259.5z"/>
				</g>
				<path fill="#E4E4E4" d="M460.3,365.2c-0.2,2.2-2.1,3.9-4.3,3.7l-215.4-15.8c-2.2-0.2-3.9-2.1-3.7-4.3l2.2-30.3
					c0.2-2.2,2.1-3.9,4.3-3.7l215.4,15.8c2.2,0.2,3.9,2.1,3.7,4.3L460.3,365.2z"/>
				<g>
					
						<rect x="234.5" y="376.5" transform="matrix(0.9973 7.300061e-02 -7.300061e-02 0.9973 28.9963 -24.2717)" fill="#CACACA" width="224.1" height="16.1"/>
				</g>
				<path fill="#E4E4E4" d="M455.4,431.9c-0.2,2.2-2.1,3.9-4.3,3.7l-215.4-15.8c-2.2-0.2-3.9-2.1-3.7-4.3l1.1-15.1
					c0.2-2.2,2.1-3.9,4.3-3.7l215.4,15.8c2.2,0.2,3.9,2.1,3.7,4.3L455.4,431.9z"/>
				<g>
					
						<rect x="229.3" y="447.6" transform="matrix(0.9973 7.300116e-02 -7.300116e-02 0.9973 34.1759 -23.7019)" fill="#CACACA" width="224.1" height="16.1"/>
				</g>
				<path fill="#E4E4E4" d="M450.2,503.1c-0.2,2.2-2.1,3.9-4.3,3.7L230.5,491c-2.2-0.2-3.9-2.1-3.7-4.3l1.1-15.1
					c0.2-2.2,2.1-3.9,4.3-3.7l215.4,15.8c2.2,0.2,3.9,2.1,3.7,4.3L450.2,503.1z"/>
				<path fill="#66A8DE" d="M448.4,528.3c-0.2,2.2-2.1,3.9-4.3,3.7l-67.8-5c-2.2-0.2-3.9-2.1-3.7-4.3l0.4-6c0.2-2.2,2.1-3.9,4.3-3.7
					l67.8,5c2.2,0.2,3.9,2.1,3.7,4.3L448.4,528.3z"/>
			</g>
			<g opacity="0.1">
				
					<image overflow="visible" opacity="0.22" width="427" height="497" xlink:href="C933C8507B8B3E8C.png"  transform="matrix(1 0 0 1 144.252 108.252)">
				</image>
				<g>
					<path fill="#4E4E4E" d="M556,211.7l-49.7-20.8l2.3-32.3c0.6-8.2-5.6-15.2-13.7-15.8L370.1,134L320,113
						c-7.5-3.2-16.2,0.4-19.4,7.9l-3.3,7.9l-57.6-4.1c-8.2-0.6-15.2,5.6-15.8,13.7l-14.1,199.6L152,476.4
						c-3.2,7.5,0.4,16.2,7.9,19.4l37.7,15.7l-0.8,11.3c-0.6,8.2,5.6,15.2,13.7,15.8l62.4,4.4l123,51.4c7.5,3.2,16.2-0.4,19.4-7.9
						l13.6-32.5l36.8,2.6c8.2,0.6,15.2-5.6,15.8-13.7l9.7-137.9l72.7-173.9C567.1,223.5,563.5,214.8,556,211.7z"/>
				</g>
			</g>
			<g>
				<g>
					
						<image overflow="visible" opacity="0.22" width="388" height="496" xlink:href="C933C8507B8B3E8F.png"  transform="matrix(1 0 0 1 127.9164 100.9164)">
					</image>
					<g>
						<path fill="#F8F8F8" d="M508.2,517.6c1.6,8.5-4,16.7-12.5,18.3l-265.9,50.8c-8.5,1.6-16.7-4-18.3-12.5l-76.5-400.5
							c-1.6-8.5,4-16.7,12.5-18.3l265.9-50.8c8.5-1.6,16.7,4,18.3,12.5L508.2,517.6z"/>
					</g>
				</g>
				<g>
					
						<rect x="276.5" y="50.6" transform="matrix(0.1876 0.9822 -0.9822 0.1876 397.7388 -142.4677)" fill="#CACACA" width="17.1" height="237.2"/>
				</g>
				<g>
					
						<rect x="302.6" y="187.8" transform="matrix(0.1876 0.9822 -0.9822 0.1876 553.7024 -56.799)" fill="#CACACA" width="17.1" height="237.2"/>
				</g>
				<g>
					
						<rect x="298.1" y="89" transform="matrix(0.1876 0.9822 -0.9822 0.1876 437.654 -138.1509)" fill="#CACACA" width="8.5" height="212.9"/>
				</g>
				<g>
					
						<rect x="303.1" y="115.1" transform="matrix(0.1876 0.9822 -0.9822 0.1876 467.305 -121.8638)" fill="#CACACA" width="8.5" height="212.9"/>
				</g>
				<g>
					
						<rect x="308" y="141.2" transform="matrix(0.1876 0.9822 -0.9822 0.1876 496.9553 -105.5773)" fill="#CACACA" width="8.5" height="212.9"/>
				</g>
				<g>
					
						<rect x="313" y="167.2" transform="matrix(0.1876 0.9822 -0.9822 0.1876 526.6063 -89.2901)" fill="#CACACA" width="8.5" height="212.9"/>
				</g>
				<g>
					
						<rect x="300.9" y="471.9" transform="matrix(0.1876 0.9822 -0.9822 0.1876 778.9209 139.4132)" fill="#CACACA" width="8.5" height="137.5"/>
				</g>
				<circle fill="#CACACA" cx="181" cy="218.7" r="3.2"/>
				<g>
					<path fill="#CACACA" d="M181,226.2c-3.6,0-6.7-2.6-7.3-6.1c-0.4-2,0-4,1.2-5.6c1.1-1.7,2.8-2.8,4.8-3.1
						c0.5-0.1,0.9-0.1,1.4-0.1c3.6,0,6.7,2.6,7.3,6.1c0.4,2,0,4-1.2,5.6c-1.1,1.7-2.8,2.8-4.8,3.1
						C181.9,226.1,181.4,226.2,181,226.2z M181,213.3c-0.3,0-0.7,0-1,0.1c-1.4,0.3-2.6,1.1-3.4,2.2c-0.8,1.2-1.1,2.6-0.8,4
						c0.5,2.8,3.3,4.8,6.2,4.2c1.4-0.3,2.6-1.1,3.4-2.2c0.8-1.2,1.1-2.6,0.8-4C185.7,215.2,183.5,213.3,181,213.3z"/>
				</g>
				<g>
					<path fill="#CACACA" d="M185.9,252.2c-3.6,0-6.7-2.6-7.3-6.1c-0.4-2,0-4,1.2-5.6c1.1-1.7,2.8-2.8,4.8-3.1
						c0.5-0.1,0.9-0.1,1.4-0.1c3.6,0,6.7,2.6,7.3,6.1c0.8,4.1-1.9,8-5.9,8.7C186.9,252.2,186.4,252.2,185.9,252.2z M186,239.4
						c-0.3,0-0.7,0-1,0.1c-2.9,0.6-4.8,3.4-4.2,6.2c0.5,2.8,3.3,4.8,6.2,4.2c2.9-0.6,4.8-3.4,4.2-6.2
						C190.7,241.2,188.5,239.4,186,239.4z"/>
				</g>
				<g>
					<path fill="#CACACA" d="M190.9,278.3c-3.6,0-6.7-2.6-7.3-6.1c-0.4-2,0-4,1.2-5.6c1.1-1.7,2.8-2.8,4.8-3.1
						c0.5-0.1,0.9-0.1,1.4-0.1c3.6,0,6.7,2.6,7.3,6.1c0.4,2,0,4-1.2,5.6c-1.1,1.7-2.8,2.8-4.8,3.1
						C191.9,278.3,191.4,278.3,190.9,278.3z M190.9,265.5c-0.3,0-0.7,0-1,0.1c-1.4,0.3-2.6,1.1-3.4,2.2c-0.8,1.2-1.1,2.6-0.8,4
						c0.5,2.8,3.3,4.8,6.2,4.2c1.4-0.3,2.6-1.1,3.4-2.2c0.8-1.2,1.1-2.6,0.8-4C195.7,267.3,193.5,265.5,190.9,265.5z"/>
				</g>
				<g>
					<path fill="#CACACA" d="M195.9,304.4c-3.6,0-6.7-2.6-7.3-6.1c-0.4-2,0-4,1.2-5.6c1.1-1.7,2.8-2.8,4.8-3.1
						c0.5-0.1,0.9-0.1,1.4-0.1c3.6,0,6.7,2.6,7.3,6.1c0.4,2,0,4-1.2,5.6c-1.1,1.7-2.8,2.8-4.8,3.1
						C196.8,304.3,196.4,304.4,195.9,304.4z M195.9,291.6c-0.3,0-0.7,0-1,0.1c-2.9,0.6-4.8,3.4-4.2,6.2c0.5,2.8,3.3,4.8,6.2,4.2
						c1.4-0.3,2.6-1.1,3.4-2.2c0.8-1.2,1.1-2.6,0.8-4C200.7,293.4,198.5,291.6,195.9,291.6z"/>
				</g>
				<path fill="#E4E4E4" d="M438.8,342.2c0.4,2.3-1.1,4.6-3.4,5L210.8,390c-2.3,0.4-4.6-1.1-5-3.4l-6-31.6c-0.4-2.3,1.1-4.6,3.4-5
					l224.6-42.9c2.3-0.4,4.6,1.1,5,3.4L438.8,342.2z"/>
				<g>
					
						<rect x="319.2" y="274.5" transform="matrix(0.1876 0.9822 -0.9822 0.1876 652.3676 -2.6041)" fill="#CACACA" width="17.1" height="237.2"/>
				</g>
				<path fill="#E4E4E4" d="M452,411.7c0.4,2.3-1.1,4.6-3.4,5l-224.6,42.9c-2.3,0.4-4.6-1.1-5-3.4l-3-15.8c-0.4-2.3,1.1-4.6,3.4-5
					L444,392.6c2.3-0.4,4.6,1.1,5,3.4L452,411.7z"/>
				<g>
					
						<rect x="333.4" y="348.7" transform="matrix(0.1876 0.9822 -0.9822 0.1876 736.7101 43.7241)" fill="#CACACA" width="17.1" height="237.2"/>
				</g>
				<path fill="#E4E4E4" d="M466.2,485.9c0.4,2.3-1.1,4.6-3.4,5l-224.6,42.9c-2.3,0.4-4.6-1.1-5-3.4l-3-15.8c-0.4-2.3,1.1-4.6,3.4-5
					l224.6-42.9c2.3-0.4,4.6,1.1,5,3.4L466.2,485.9z"/>
				<path fill="#66A8DE" d="M471.2,512.1c0.4,2.3-1.1,4.6-3.4,5l-70.7,13.5c-2.3,0.4-4.6-1.1-5-3.4l-1.2-6.3c-0.4-2.3,1.1-4.6,3.4-5
					l70.7-13.5c2.3-0.4,4.6,1.1,5,3.4L471.2,512.1z"/>
			</g>
		</g>
		<g>
			<g>
				<path fill="#FFFFFF" d="M362.9,700l-0.2-5.6c9.9-0.4,19.9-1.2,29.7-2.5l0.7,5.6C383.1,698.7,373,699.6,362.9,700z M332.6,699.9
					c-10.1-0.5-20.2-1.4-30.1-2.8l0.8-5.6c9.8,1.4,19.7,2.3,29.6,2.8L332.6,699.9z M422.9,692.2l-1.2-5.5c9.7-2.1,19.3-4.8,28.7-7.8
					l1.7,5.4C442.5,687.4,432.7,690,422.9,692.2z M272.8,691.5c-9.8-2.3-19.6-5-29.1-8.2l1.8-5.4c9.4,3.1,19,5.8,28.7,8L272.8,691.5
					z M480.5,673.8l-2.2-5.2c9.1-3.8,18.1-8.1,26.9-12.8l2.7,5C498.9,665.5,489.7,669.9,480.5,673.8z M215.3,672.6
					c-9.2-4-18.4-8.5-27.2-13.3l2.7-5c8.7,4.7,17.7,9.1,26.8,13.1L215.3,672.6z M533.8,645.4l-3.1-4.7c8.3-5.4,16.4-11.3,24.2-17.4
					l3.5,4.4C550.5,633.9,542.3,639.9,533.8,645.4z M162.2,643.7c-8.4-5.6-16.6-11.6-24.4-17.9l3.5-4.4c7.7,6.2,15.8,12.1,24,17.6
					L162.2,643.7z M581.3,607.9l-3.9-4.1c7.2-6.8,14.1-14,20.7-21.4l4.2,3.7C595.7,593.7,588.6,601,581.3,607.9z M115.1,605.7
					c-7.2-7-14.2-14.4-20.8-22l4.3-3.7c6.5,7.5,13.4,14.7,20.5,21.6L115.1,605.7z M621.3,562.6l-4.5-3.3c5.9-8,11.4-16.3,16.5-24.7
					l4.8,2.9C633,546,627.3,554.5,621.3,562.6z M75.5,560c-5.9-8.2-11.5-16.7-16.6-25.3l4.9-2.9c5,8.5,10.5,16.9,16.3,24.9L75.5,560
					z M652.7,510.8l-5.1-2.5c4.3-8.9,8.3-18.1,11.8-27.3l5.3,2C661.1,492.4,657.1,501.8,652.7,510.8z M44.6,508
					c-4.3-9.1-8.3-18.4-11.8-27.9l5.3-2c3.4,9.3,7.3,18.5,11.6,27.4L44.6,508z M674.2,454.3l-5.4-1.5c2.7-9.5,4.9-19.3,6.7-29l5.5,1
					C679.2,434.7,676.9,444.6,674.2,454.3z M23.6,451.3c-2.6-9.7-4.8-19.6-6.6-29.5l5.6-1c1.7,9.7,3.9,19.5,6.5,29L23.6,451.3z
					 M685.3,394.8l-5.6-0.5c0.9-9.8,1.4-19.8,1.5-29.7l0-0.8l5.6,0l0,0.8C686.7,374.7,686.2,384.9,685.3,394.8z M13.1,391.7
					c-0.8-9.5-1.2-19.2-1.2-28.8l0-1.4l5.6,0l0,1.4c0,9.5,0.4,19,1.2,28.4L13.1,391.7z M679.9,334.1c-0.8-9.9-2.1-19.8-3.9-29.5
					l5.6-1c1.8,9.9,3.1,20,3.9,30L679.9,334.1z M19,331.8l-5.6-0.5c0.9-10,2.3-20.1,4.1-30l5.5,1C21.3,312,19.9,321.9,19,331.8z
					 M669.5,275.5c-2.6-9.5-5.7-19.1-9.1-28.3l5.3-2c3.5,9.4,6.6,19.1,9.3,28.8L669.5,275.5z M29.8,273.3l-5.4-1.5
					c2.7-9.7,5.9-19.4,9.5-28.8l5.3,2C35.6,254.3,32.4,263.8,29.8,273.3z M648.8,219.8c-4.3-8.9-9-17.7-14-26.2l4.8-2.9
					c5.1,8.6,9.9,17.6,14.3,26.7L648.8,219.8z M50.9,217.7l-5.1-2.5c4.4-9,9.3-18,14.5-26.6l4.8,2.9C60,200,55.2,208.8,50.9,217.7z
					 M618.4,168.7c-5.8-8-12-15.9-18.5-23.3l4.3-3.7c6.6,7.6,12.9,15.6,18.8,23.7L618.4,168.7z M81.7,166.8l-4.5-3.3
					c5.9-8.1,12.3-16,19-23.6l4.2,3.7C93.8,151,87.5,158.8,81.7,166.8z M579.4,123.8c-7.1-6.9-14.6-13.5-22.3-19.7l3.5-4.4
					c7.8,6.3,15.5,13,22.7,20L579.4,123.8z M121,122.2l-3.9-4.1c7.3-6.9,15-13.6,22.9-19.8l3.5,4.4
					C135.7,108.8,128.2,115.4,121,122.2z M533,86.5c-8.2-5.5-16.8-10.7-25.5-15.4l2.7-5c8.8,4.8,17.6,10.1,25.9,15.6L533,86.5z
					 M167.6,85.2l-3.1-4.7c8.4-5.5,17.2-10.7,26-15.5l2.7,5C184.5,74.7,175.9,79.8,167.6,85.2z M480.8,58.1
					c-9.1-3.9-18.4-7.5-27.8-10.6l1.8-5.4c9.6,3.1,19.1,6.7,28.3,10.7L480.8,58.1z M220,57.2l-2.2-5.2c9.3-3.9,18.8-7.5,28.4-10.5
					l1.7,5.4C238.5,49.9,229.1,53.4,220,57.2z M424.3,39.6c-9.6-2.2-19.5-4-29.3-5.4l0.8-5.6c10,1.4,20,3.2,29.8,5.5L424.3,39.6z
					 M276.6,39.1l-1.2-5.5c9.8-2.2,19.8-4,29.8-5.3l0.7,5.6C296.1,35.2,286.3,36.9,276.6,39.1z M365.4,31.5
					c-4.7-0.2-9.6-0.4-14.3-0.4l-1.8,0c0,0,0,0-0.1,0c-4.5,0-9.1,0.1-13.6,0.3l-0.2-5.6c4.6-0.2,9.3-0.3,13.9-0.3c0,0,0,0,0.1,0
					l1.8,0c4.8,0,9.7,0.2,14.5,0.4L365.4,31.5z"/>
			</g>
			<g>
				<circle fill="#66A8DE" cx="351.5" cy="32.1" r="32.1"/>
				<polygon fill="#FFFFFF" points="372,21.7 365.7,15.4 345.2,36 339.3,30.1 333,36.4 338.9,42.3 345.2,48.6 				"/>
			</g>
			<g>
				<circle fill="#66A8DE" cx="35.5" cy="258.6" r="32.1"/>
				<polygon fill="#FFFFFF" points="56,248.2 49.7,241.9 29.1,262.4 23.3,256.6 17,262.9 22.8,268.7 29.1,275 				"/>
			</g>
			<g>
				<circle fill="#66A8DE" cx="153.2" cy="629.1" r="32.1"/>
				<polygon fill="#FFFFFF" points="173.7,618.7 167.4,612.4 146.9,633 141,627.1 134.7,633.4 140.6,639.3 146.9,645.6 				"/>
			</g>
			<g>
				<circle fill="#66A8DE" cx="542" cy="631.7" r="32.1"/>
				<polygon fill="#FFFFFF" points="562.5,621.3 556.2,615 535.6,635.5 529.8,629.6 523.5,635.9 529.3,641.8 535.6,648.1 				"/>
			</g>
			<g>
				<circle fill="#66A8DE" cx="664.5" cy="262.7" r="32.1"/>
				<polygon fill="#FFFFFF" points="685,252.3 678.7,246 658.2,266.5 652.3,260.7 646,267 651.9,272.8 658.2,279.1 				"/>
			</g>
		</g>
	</g>
</g>
</svg>
